<?xml version="1.0" encoding="UTF-8"?>
<!DOCTYPE svg PUBLIC "-//W3C//DTD SVG 1.1//EN" "http://www.w3.org/Graphics/SVG/1.1/DTD/svg11.dtd">
<!-- Creator: CorelDRAW X5 -->
<svg xmlns="http://www.w3.org/2000/svg" xml:space="preserve" width="0.153346in" height="0.333346in" style="shape-rendering:geometricPrecision; text-rendering:geometricPrecision; image-rendering:optimizeQuality; fill-rule:evenodd; clip-rule:evenodd"
viewBox="0 0 0.153346 0.333346"
 xmlns:xlink="http://www.w3.org/1999/xlink">
 <defs>
  <style type="text/css">
   <![CDATA[
    .fil0 {fill:#0A63C5}
   ]]>
  </style>
 </defs>
 <g id="Layer_x0020_1">
  <metadata id="CorelCorpID_0Corel-Layer"/>
  <path class="fil0" d="M0.117209 0c0.0223307,0 0.0334803,0.0152165 0.0334803,0.0326339 0,0.0217323 -0.0193819,0.0418504 -0.0446299,0.0418504 -0.0211575,0 -0.0334961,-0.0125039 -0.0329094,-0.0331575 0,-0.0174016 0.0146811,-0.0413268 0.0440591,-0.0413268zm-0.0687323 0.333346c-0.0176142,0 -0.0305354,-0.010874 -0.0181969,-0.0587283l0.0202283 -0.0848504c0.00351575,-0.0135906 0.00410236,-0.0190236 0,-0.0190236 -0.00530315,0 -0.0281772,0.00938976 -0.0417008,0.0186339l-0.00880709 -0.0146811c0.042874,-0.0364252 0.0922087,-0.0577795 0.11335,-0.0577795 0.0176142,0 0.0205591,0.0211929 0.011752,0.0538268l-0.0231614 0.0891929c-0.00411417,0.0157717 -0.00234252,0.0212126 0.00175984,0.0212126 0.0052874,0 0.022622,-0.00654724 0.0396496,-0.0201535l0.00999606 0.0136063c-0.0417205,0.0424016 -0.087248,0.0587441 -0.10487,0.0587441z"/>
 </g>
</svg>
