<?xml version="1.0" encoding="utf-8"?>
<!-- Generator: Adobe Illustrator 16.0.0, SVG Export Plug-In . SVG Version: 6.00 Build 0)  -->
<!DOCTYPE svg PUBLIC "-//W3C//DTD SVG 1.1//EN" "http://www.w3.org/Graphics/SVG/1.1/DTD/svg11.dtd">
<svg version="1.1" id="Layer_1" xmlns="http://www.w3.org/2000/svg" xmlns:xlink="http://www.w3.org/1999/xlink" x="0px" y="0px"
	 width="24px" height="14.891px" viewBox="0 0 24 14.891" enable-background="new 0 0 24 14.891" xml:space="preserve">
<g id="Layer_x0020_1">
	<path fill="#FFFFFF" d="M22.961,6.406H3.547l4.632-4.633c0.406-0.405,0.406-1.063,0-1.469c-0.406-0.406-1.064-0.406-1.469,0
		L0.304,6.71c-0.406,0.406-0.406,1.063,0,1.469l6.406,6.406c0.203,0.203,0.469,0.305,0.735,0.305s0.532-0.102,0.734-0.305
		c0.406-0.406,0.406-1.063,0-1.469L3.547,8.484h19.414c0.574,0,1.039-0.466,1.039-1.04C24,6.872,23.535,6.406,22.961,6.406z"/>
</g>
</svg>
