<?xml version="1.0" encoding="UTF-8"?>
<!DOCTYPE svg PUBLIC "-//W3C//DTD SVG 1.1//EN" "http://www.w3.org/Graphics/SVG/1.1/DTD/svg11.dtd">
<!-- Creator: CorelDRAW X5 -->
<svg xmlns="http://www.w3.org/2000/svg" xml:space="preserve" width="0.166669in" height="0.226701in" style="shape-rendering:geometricPrecision; text-rendering:geometricPrecision; image-rendering:optimizeQuality; fill-rule:evenodd; clip-rule:evenodd"
viewBox="0 0 0.166669 0.226701"
 xmlns:xlink="http://www.w3.org/1999/xlink">
 <defs>
  <style type="text/css">
   <![CDATA[
    .fil0 {fill:#0A63C5}
   ]]>
  </style>
 </defs>
 <g id="Layer_x0020_1">
  <metadata id="CorelCorpID_0Corel-Layer"/>
  <g id="_272969888">
   <g>
    <polygon id="_272970008" class="fil0" points="0.14565,0.0167283 0.131224,0.0260709 0.129909,0.0335276 0.144335,0.024185 "/>
    <polygon id="_272970080" class="fil0" points="0.142949,0.0320157 0.128531,0.0413543 0.127012,0.0499331 0.141437,0.0405906 "/>
    <polygon id="_272970176" class="fil0" points="0.148217,0.00218504 0.135823,0 0.132606,0.0182402 0.147028,0.00889764 "/>
    <path id="_272970296" class="fil0" d="M0.107138 0.0800276c-0.00429921,0 -0.0077874,0.00348425 -0.0077874,0.0077874 0,0.00430315 0.00348819,0.00779134 0.0077874,0.00779134 0.000200787,0 0.000393701,-4.72441e-005 0.000582677,-5.90551e-005 0.00187795,0.0138425 -0.0126417,0.0264961 -0.0263937,0.0272402 -0.0154921,0.000834646 -0.0219173,-0.0141654 -0.0232008,-0.0274055 0.00344488,-0.00080315 0.00601181,-0.00387795 0.00601181,-0.00756299 0,-0.00429921 -0.00348425,-0.0077874 -0.0077874,-0.0077874 -0.00429921,0 -0.0077874,0.00348425 -0.0077874,0.0077874 0,0.00238189 0.00109449,0.00448819 0.00277953,0.00591732 0.00114173,0.0182126 0.0115197,0.0383701 0.032874,0.0354764 0.017874,-0.00241732 0.0338504,-0.0196457 0.0295197,-0.0372874 0.000748031,-0.00119685 0.00119291,-0.00259449 0.00119291,-0.0041063 -3.93701e-006,-0.00430315 -0.00349213,-0.00779134 -0.00779134,-0.00779134z"/>
    <path id="_272970344" class="fil0" d="M0.166236 0.219024c-0.00572835,-0.0225433 -0.0226732,-0.0999213 -0.00030315,-0.149138 2.3622e-005,-4.72441e-005 2.75591e-005,-9.84252e-005 5.11811e-005,-0.000149606 0.00011811,-0.000287402 0.000208661,-0.00057874 0.000271654,-0.000877953 1.5748e-005,-7.48031e-005 3.93701e-005,-0.000145669 5.51181e-005,-0.000220472 6.29921e-005,-0.000370079 8.26772e-005,-0.000751969 6.29921e-005,-0.00112992 -3.93701e-006,-7.08661e-005 -2.75591e-005,-0.000141732 -3.14961e-005,-0.000204724 -3.54331e-005,-0.000307087 -9.05512e-005,-0.000606299 -0.000181102,-0.000905512 -3.14961e-005,-0.000110236 -7.08661e-005,-0.000212598 -0.000110236,-0.000314961 -9.84252e-005,-0.000259843 -0.000224409,-0.000515748 -0.000366142,-0.00076378 -3.14961e-005,-5.90551e-005 -5.11811e-005,-0.000129921 -9.44882e-005,-0.00019685 -1.9685e-005,-3.54331e-005 -5.51181e-005,-5.90551e-005 -7.87402e-005,-9.84252e-005 -3.93701e-005,-5.51181e-005 -6.29921e-005,-0.000122047 -0.000106299,-0.000177165l-0.0160866 -0.0216299c-0.000570866,-0.000771654 -0.00135827,-0.0013189 -0.00223228,-0.00164961 0.00185433,0.00449213 0.00154331,0.00995669 -0.000937008,0.014122l0.00531496 0.00714961 -0.022437 0 0.00958268 -0.0062126 0.00144882 -0.00820079 -0.0144213 0.00934252 -0.000897638 0.00507087 -0.0151142 0 0.00738583 -0.0116496 0.0016811 -0.00272835 -0.0113937 -0.00725591 -0.0274173 -0.0173858 -0.00825591 0.0130197 0.00801181 0.026 -0.00414567 0 -0.0167795 -0.0544764 -0.0439724 0.0135433 0.00594094 0.0192913 -0.00461024 0c-0.00187008,0 -0.00358661,0.00104724 -0.00444094,0.00271654l-0.0110906 0.0216299c-5.11811e-005,9.44882e-005 -7.08661e-005,0.000192913 -0.00011811,0.000291339 -5.51181e-005,0.000129921 -0.000106299,0.000255906 -0.000149606,0.000389764 -8.26772e-005,0.000240157 -0.000141732,0.000480315 -0.000181102,0.000724409 -2.3622e-005,0.000114173 -5.11811e-005,0.000228346 -6.29921e-005,0.000346457 -3.14961e-005,0.000322835 -3.54331e-005,0.000645669 -3.93701e-006,0.000968504 3.93701e-006,4.33071e-005 -3.93701e-006,8.26772e-005 0,0.000125984 4.33071e-005,0.000362205 0.000133858,0.000724409 0.000251969,0.00107087 1.1811e-005,2.75591e-005 1.1811e-005,5.51181e-005 1.9685e-005,8.66142e-005 0.0236339,0.0642992 0.007,0.131087 0.00133465,0.150028 -0.000322835,0.00108661 -0.000925197,0.00312205 0.000598425,0.00514173 0.000940945,0.00125197 0.00242126,0.00198425 0.00398425,0.00198425l6.69291e-005 0c0.00135039,-1.5748e-005 0.00234252,-0.000480315 0.00307874,-0.00113386l0.149476 0c0.000708661,0.000523622 0.0016378,0.000889764 0.00285433,0.000889764 0.00154331,0 0.00299606,-0.000712598 0.00394488,-0.00192913 0.00150787,-0.00193701 0.00104724,-0.00375197 0.000602362,-0.00550394zm-0.14711 -0.167839l0.00463386 0 0.00358661 0.0116457 -0.0142008 0 0.00598031 -0.0116457zm-0.00600787 0.164398c0.00659449,-0.0249567 0.0180315,-0.084063 -0.00112598,-0.142764l0.141957 0c-0.0178465,0.0481575 -0.00530315,0.115283 0.00116535,0.142764l-0.141996 0z"/>
   </g>
  </g>
 </g>
</svg>
