<?xml version="1.0" encoding="UTF-8"?>
<!DOCTYPE svg PUBLIC "-//W3C//DTD SVG 1.1//EN" "http://www.w3.org/Graphics/SVG/1.1/DTD/svg11.dtd">
<!-- Creator: CorelDRAW X5 -->
<svg xmlns="http://www.w3.org/2000/svg" xml:space="preserve" width="0.333339in" height="0.289559in" style="shape-rendering:geometricPrecision; text-rendering:geometricPrecision; image-rendering:optimizeQuality; fill-rule:evenodd; clip-rule:evenodd"
viewBox="0 0 0.333339 0.289559"
 xmlns:xlink="http://www.w3.org/1999/xlink">
 <defs>
  <style type="text/css">
   <![CDATA[
    .fil0 {fill:#0A63C5}
   ]]>
  </style>
 </defs>
 <g id="Layer_x0020_1">
  <metadata id="CorelCorpID_0Corel-Layer"/>
  <g id="_287965272">
   <path id="_287965536" class="fil0" d="M0.28865 0.055311l-0.0349843 -0.000185039 -0.0335157 -0.0499961c-0.00201181,-0.00311417 -0.00549606,-0.00512992 -0.00915748,-0.00512992l-0.0902913 0c-0.00366535,0 -0.00696063,0.00201575 -0.00897638,0.00494488l-0.0346142 0.0501811 -0.0324173 0.000185039c-0.0245433,0 -0.044689,0.0201457 -0.044689,0.044689l0 0.144504c0,0.0245433 0.0201457,0.0450551 0.044689,0.0450551l0.243957 0c0.0245433,0 0.044685,-0.0205118 0.044685,-0.0450551l0 -0.144504c3.93701e-006,-0.0245433 -0.0201417,-0.044689 -0.044685,-0.044689zm0.0227087 0.189193c0,0.0124528 -0.0102559,0.0230787 -0.0227087,0.0230787l-0.243957 0c-0.0124528,0 -0.0227126,-0.010626 -0.0227126,-0.0230787l0 -0.144504c0,-0.0124567 0.0102598,-0.0227126 0.0227126,-0.0227126l0.0382795 0c0.00366142,0 0.00695669,-0.00201181 0.00897638,-0.00494488l0.0346142 -0.0501811 0.0785669 0 0.0333346 0.049815c0.00201575,0.00293307 0.00549606,0.00494488 0.00897638,0.00494488l0.0410236 0.000366142c0.0124528,0 0.0227087,0.0102598 0.0227087,0.0227126l0 0.144504 0.000185039 0z"/>
   <path id="_287965464" class="fil0" d="M0.167583 0.081685c-0.0430354,0 -0.0778346,0.0349803 -0.0778346,0.0778386 0,0.0428543 0.0349803,0.0778386 0.0778346,0.0778386 0.0428622,0 0.0778425,-0.0349843 0.0778425,-0.0778386 0,-0.0428583 -0.0349803,-0.0778386 -0.0778425,-0.0778386zm0 0.133697c-0.0307677,0 -0.0558583,-0.0250906 -0.0558583,-0.0558583 0,-0.0307717 0.0250906,-0.0558622 0.0558583,-0.0558622 0.0307717,0 0.0558661,0.0250906 0.0558661,0.0558622 0,0.0307677 -0.0250945,0.0558583 -0.0558661,0.0558583z"/>
   <path id="_287965368" class="fil0" d="M0.276008 0.113921c0,0.00232677 -0.00188189,0.00420866 -0.00420866,0.00420866 -0.00232677,0 -0.0042126,-0.00188189 -0.0042126,-0.00420866 0,-0.00233071 0.00188583,-0.00421654 0.0042126,-0.00421654 0.00232677,0 0.00420866,0.00188583 0.00420866,0.00421654z"/>
   <path id="_287965320" class="fil0" d="M0.271799 0.0987165c-0.00842913,0 -0.0152047,0.00677559 -0.0152047,0.0152047 0,0.0084252 0.00677559,0.0152008 0.0152047,0.0152008 0.0084252,0 0.0152008,-0.00677559 0.0152008,-0.0152008 0,-0.00842913 -0.00677559,-0.0152047 -0.0152008,-0.0152047zm0 0.0219764c-0.00384646,0 -0.00677559,-0.00311024 -0.00677559,-0.00677165 0,-0.00366535 0.00311024,-0.00677953 0.00677559,-0.00677953 0.00366142,0 0.00677559,0.00311417 0.00677559,0.00677953 0,0.00366142 -0.00293307,0.00677165 -0.00677559,0.00677165z"/>
  </g>
 </g>
</svg>
