<?xml version="1.0" encoding="UTF-8"?>
<!DOCTYPE svg PUBLIC "-//W3C//DTD SVG 1.1//EN" "http://www.w3.org/Graphics/SVG/1.1/DTD/svg11.dtd">
<!-- Creator: CorelDRAW X5 -->
<svg xmlns="http://www.w3.org/2000/svg" xml:space="preserve" width="0.173091in" height="0.151008in" style="shape-rendering:geometricPrecision; text-rendering:geometricPrecision; image-rendering:optimizeQuality; fill-rule:evenodd; clip-rule:evenodd"
viewBox="0 0 0.173087 0.151004"
 xmlns:xlink="http://www.w3.org/1999/xlink">
 <defs>
  <style type="text/css">
   <![CDATA[
    .fil0 {fill:#0A63C5;fill-rule:nonzero}
   ]]>
  </style>
 </defs>
 <g id="Layer_x0020_1">
  <metadata id="CorelCorpID_0Corel-Layer"/>
  <g id="_297865544">
   <g>
    <path id="_297873632" class="fil0" d="M0.126363 0.125304l0 -0.00642505 0 0 0.000822816 1.96846e-005 0.000822816 6.29907e-005 0.000791321 0.00010236 0.000795258 0.000137792 0.000787384 0.000185035 0.000751951 0.000216531 0.000751951 0.000251963 0.00072833 0.000287395 0.000708645 0.00031889 0.000704708 0.00035826 0.000669276 0.000389755 0.000645655 0.000413376 0.000633844 0.000452746 0.000598412 0.00047243 0.000586601 0.000499989 0.000562979 0.000539358 0.000527547 0.000555105 0.000499989 0.00057479 0.000480304 0.000610222 0.000452746 0.000633844 0.000413376 0.000645655 0.000389755 0.000669276 0.00035826 0.000704708 0.00031889 0.000708645 0.000287395 0.00072833 0.000251963 0.000751951 0.000216531 0.000751951 0.000185035 0.000787384 0.000137792 0.000795258 0.00010236 0.000791321 6.29907e-005 0.000822816 1.96846e-005 0.000822816 -0.00642505 0 -1.18108e-005 -0.000499989 -3.93692e-005 -0.000484241 -6.29907e-005 -0.000492115 -8.26753e-005 -0.00047243 -0.000106297 -0.000456683 -0.000129918 -0.000460619 -0.000149603 -0.000444872 -0.000177161 -0.000436998 -0.000192909 -0.000433061 -0.000208657 -0.000405503 -0.000232278 -0.000401566 -0.0002559 -0.000401566 -0.000263774 -0.000374007 -0.000283458 -0.00035826 -0.000311017 -0.000354323 -0.000322827 -0.000342512 -0.000326764 -0.000311017 -0.000350386 -0.000303143 -0.00037007 -0.000291332 -0.000374007 -0.000263774 -0.000401566 -0.0002559 -0.000401566 -0.000232278 -0.000405503 -0.000208657 -0.000433061 -0.000192909 -0.000436998 -0.000177161 -0.000444872 -0.000149603 -0.000460619 -0.000129918 -0.000456683 -0.000106297 -0.00047243 -8.26753e-005 -0.000492115 -6.29907e-005 -0.000484241 -3.93692e-005 -0.000499989 -1.18108e-005 0 0zm-0.00963364 0.00963758l-0.00642505 0 0 0 1.96846e-005 -0.000822816 6.29907e-005 -0.000822816 0.00010236 -0.000791321 0.000137792 -0.000795258 0.000185035 -0.000787384 0.000216531 -0.000751951 0.000248026 -0.000744078 0.000287395 -0.000736204 0.000326764 -0.000716519 0.000350386 -0.000688961 0.000385818 -0.000669276 0.000417313 -0.000653528 0.000452746 -0.000633844 0.000480304 -0.000610222 0.000499989 -0.00057479 0.000527547 -0.000555105 0.000559042 -0.000535421 0.000586601 -0.000503926 0.000606285 -0.000476367 0.000622033 -0.000444872 0.000649592 -0.000417313 0.000673213 -0.000389755 0.000696835 -0.00035826 0.000712582 -0.00031889 0.00072833 -0.000287395 0.000755888 -0.0002559 0.000751951 -0.000212594 0.000783447 -0.000185035 0.000795258 -0.000137792 0.000791321 -0.00010236 0.000822816 -6.29907e-005 0.000822816 -1.96846e-005 0 0.00642505 -0.000499989 1.18108e-005 -0.000484241 3.93692e-005 -0.000492115 6.29907e-005 -0.00047243 8.26753e-005 -0.000452746 0.000106297 -0.000468493 0.000133855 -0.000440935 0.000145666 -0.000436998 0.000177161 -0.000429124 0.000192909 -0.000405503 0.000208657 -0.000405503 0.000232278 -0.000389755 0.000251963 -0.000385818 0.000271647 -0.00037007 0.000287395 -0.000342512 0.000299206 -0.000330701 0.000314953 -0.000322827 0.000342512 -0.000311017 0.000354323 -0.000283458 0.00035826 -0.000263774 0.000374007 -0.000251963 0.000393692 -0.000228341 0.000401566 -0.000216531 0.00042125 -0.000192909 0.000425187 -0.000169287 0.000429124 -0.00015354 0.000452746 -0.000129918 0.000460619 -0.000106297 0.000456683 -8.26753e-005 0.00047243 -6.29907e-005 0.000492115 -3.93692e-005 0.000484241 -1.18108e-005 0.000499989 0 0zm0.00963364 0.00963758l0 0.00642505 0 0 -0.000822816 -1.96846e-005 -0.000822816 -6.29907e-005 -0.000791321 -0.00010236 -0.000795258 -0.000137792 -0.000783447 -0.000185035 -0.000751951 -0.000212594 -0.000748014 -0.000251963 -0.000736204 -0.000287395 -0.000720456 -0.000326764 -0.000681087 -0.000350386 -0.000673213 -0.000385818 -0.000657465 -0.00042125 -0.000622033 -0.000444872 -0.000614159 -0.000480304 -0.000582664 -0.000507862 -0.000551169 -0.000527547 -0.000531484 -0.000555105 -0.000503926 -0.000582664 -0.000476367 -0.000606285 -0.000448809 -0.00062597 -0.00042125 -0.000657465 -0.000385818 -0.00067715 -0.000350386 -0.000681087 -0.000326764 -0.000716519 -0.000287395 -0.000740141 -0.000248026 -0.000740141 -0.000216531 -0.000759825 -0.000185035 -0.000783447 -0.000137792 -0.000795258 -0.00010236 -0.000791321 -6.29907e-005 -0.000822816 -1.96846e-005 -0.000822816 0.00642505 0 1.18108e-005 0.000499989 3.93692e-005 0.000484241 6.29907e-005 0.000492115 8.26753e-005 0.00047243 0.000106297 0.000460619 0.000129918 0.000460619 0.00015354 0.000448809 0.000169287 0.000433061 0.000192909 0.000417313 0.000216531 0.000429124 0.000228341 0.000401566 0.000248026 0.000381881 0.00026771 0.000381881 0.000287395 0.000362196 0.00030708 0.000354323 0.00031889 0.000334638 0.000338575 0.000322827 0.000346449 0.000303143 0.000362196 0.000283458 0.000385818 0.000271647 0.000381881 0.000248026 0.000405503 0.000228341 0.00042125 0.000216531 0.00042125 0.000192909 0.000429124 0.000169287 0.000448809 0.000149603 0.000468493 0.000133855 0.000452746 0.000106297 0.00047243 8.26753e-005 0.000492115 6.29907e-005 0.000484241 3.93692e-005 0.000499989 1.18108e-005 0 0zm0.00964151 -0.00963758l0.00642505 0 0 0 -1.96846e-005 0.000822816 -6.29907e-005 0.000822816 -0.00010236 0.000791321 -0.000137792 0.000795258 -0.000185035 0.000783447 -0.000216531 0.000759825 -0.000251963 0.000748014 -0.000287395 0.000732267 -0.00031889 0.000708645 -0.00035826 0.000696835 -0.000389755 0.00067715 -0.000417313 0.000649592 -0.000448809 0.00062597 -0.000476367 0.000606285 -0.000503926 0.000582664 -0.000531484 0.000555105 -0.000555105 0.000531484 -0.000582664 0.000503926 -0.000606285 0.000476367 -0.000633844 0.000452746 -0.000653528 0.000417313 -0.000669276 0.000385818 -0.000688961 0.000350386 -0.000716519 0.000326764 -0.000736204 0.000287395 -0.000744078 0.000248026 -0.000751951 0.000216531 -0.000787384 0.000185035 -0.000795258 0.000137792 -0.000791321 0.00010236 -0.000822816 6.29907e-005 -0.000822816 1.96846e-005 0 -0.00642505 0.000499989 -1.18108e-005 0.000484241 -3.93692e-005 0.000492115 -6.29907e-005 0.00047243 -8.26753e-005 0.000456683 -0.000106297 0.000460619 -0.000129918 0.000452746 -0.00015354 0.000429124 -0.000169287 0.000425187 -0.000192909 0.00042125 -0.000216531 0.000401566 -0.000228341 0.000393692 -0.000251963 0.000374007 -0.000263774 0.000362196 -0.000287395 0.000354323 -0.00030708 0.000334638 -0.00031889 0.00031889 -0.000334638 0.00030708 -0.000354323 0.000287395 -0.000362196 0.00026771 -0.000381881 0.000251963 -0.000389755 0.000232278 -0.000401566 0.000208657 -0.000413376 0.000192909 -0.000425187 0.000177161 -0.000440935 0.000149603 -0.000440935 0.000129918 -0.000460619 0.000106297 -0.000460619 8.26753e-005 -0.00047243 6.29907e-005 -0.000492115 3.93692e-005 -0.000484241 1.18108e-005 -0.000499989 0 0z"/>
   </g>
   <g>
    <path class="fil0" d="M0.0621009 0.125304l0 -0.00642505 0 0 0.000822816 1.96846e-005 0.000822816 6.29907e-005 0.000791321 0.00010236 0.000795258 0.000137792 0.000783447 0.000185035 0.000755888 0.000212594 0.000755888 0.0002559 0.00072833 0.000287395 0.000712582 0.00031889 0.000696835 0.00035826 0.000669276 0.000385818 0.000657465 0.00042125 0.000622033 0.000448809 0.000602349 0.00047243 0.000586601 0.000503926 0.000555105 0.000531484 0.000535421 0.000559042 0.000499989 0.000578727 0.000476367 0.000606285 0.000452746 0.000633844 0.000417313 0.000653528 0.000385818 0.000669276 0.000350386 0.000688961 0.000326764 0.000716519 0.000287395 0.000736204 0.000248026 0.000744078 0.000216531 0.000751951 0.000185035 0.000787384 0.000137792 0.000795258 0.00010236 0.000791321 6.29907e-005 0.000822816 1.96846e-005 0.000822816 -0.00642505 0 -1.18108e-005 -0.000499989 -3.93692e-005 -0.000484241 -6.29907e-005 -0.000492115 -8.26753e-005 -0.00047243 -0.000106297 -0.000456683 -0.000129918 -0.000460619 -0.00015354 -0.000452746 -0.000169287 -0.000429124 -0.000192909 -0.000425187 -0.000216531 -0.00042125 -0.000228341 -0.000401566 -0.000251963 -0.000393692 -0.000263774 -0.000374007 -0.000287395 -0.000362196 -0.000303143 -0.000350386 -0.000322827 -0.000338575 -0.000334638 -0.00031889 -0.000342512 -0.000299206 -0.000374007 -0.000291332 -0.000377944 -0.00026771 -0.000389755 -0.000248026 -0.00040944 -0.000236215 -0.000405503 -0.000208657 -0.000429124 -0.000192909 -0.000436998 -0.000177161 -0.000440935 -0.000145666 -0.000464556 -0.000133855 -0.000460619 -0.000106297 -0.00047243 -8.26753e-005 -0.000492115 -6.29907e-005 -0.000484241 -3.93692e-005 -0.000499989 -1.18108e-005 0 0zm-0.00963364 0.00963758l-0.00642505 0 0 0 1.96846e-005 -0.000822816 6.29907e-005 -0.000822816 0.00010236 -0.000791321 0.000137792 -0.000795258 0.000185035 -0.000787384 0.000216531 -0.000751951 0.000251963 -0.000751951 0.000287395 -0.00072833 0.00031889 -0.000708645 0.00035826 -0.000704708 0.000389755 -0.000669276 0.000413376 -0.000645655 0.000444872 -0.000629907 0.000480304 -0.000610222 0.000503926 -0.000578727 0.000527547 -0.000555105 0.000562979 -0.000539358 0.000586601 -0.000499989 0.000598412 -0.00047243 0.000633844 -0.000452746 0.000645655 -0.000413376 0.000669276 -0.000389755 0.000700771 -0.00035826 0.000708645 -0.00031889 0.000732267 -0.000287395 0.000748014 -0.000251963 0.000759825 -0.000216531 0.000783447 -0.000185035 0.000791321 -0.000137792 0.000795258 -0.00010236 0.000814942 -6.29907e-005 0.000826753 -1.96846e-005 0 0.00642505 -0.000496052 1.18108e-005 -0.000484241 3.93692e-005 -0.000496052 6.29907e-005 -0.000468493 8.26753e-005 -0.000460619 0.000106297 -0.000460619 0.000129918 -0.000440935 0.000149603 -0.000440935 0.000177161 -0.000425187 0.000192909 -0.00040944 0.000208657 -0.000401566 0.000232278 -0.000401566 0.0002559 -0.000374007 0.000263774 -0.00037007 0.000291332 -0.000350386 0.000303143 -0.000326764 0.000311017 -0.000322827 0.000342512 -0.00030708 0.000350386 -0.000275584 0.00035826 -0.000271647 0.000377944 -0.0002559 0.000401566 -0.000232278 0.000401566 -0.000208657 0.000405503 -0.000192909 0.000433061 -0.000177161 0.000436998 -0.000149603 0.000444872 -0.000129918 0.000460619 -0.000106297 0.000456683 -8.26753e-005 0.00047243 -6.29907e-005 0.000492115 -3.93692e-005 0.000484241 -1.18108e-005 0.000499989 0 0zm0.00963364 0.00963758l0 0.00642505 0 0 -0.000826753 -1.96846e-005 -0.000814942 -6.29907e-005 -0.000795258 -0.00010236 -0.000791321 -0.000137792 -0.000783447 -0.000185035 -0.000759825 -0.000216531 -0.000740141 -0.000248026 -0.000740141 -0.000287395 -0.000716519 -0.000326764 -0.000685024 -0.000350386 -0.000669276 -0.000385818 -0.000653528 -0.000417313 -0.000633844 -0.000452746 -0.000606285 -0.000476367 -0.000582664 -0.000503926 -0.000555105 -0.000531484 -0.000531484 -0.000555105 -0.000507862 -0.000590538 -0.000476367 -0.000602349 -0.000440935 -0.000622033 -0.000417313 -0.000649592 -0.000389755 -0.00067715 -0.00035826 -0.000696835 -0.00031889 -0.000708645 -0.000287395 -0.000732267 -0.000251963 -0.000748014 -0.000216531 -0.000759825 -0.000185035 -0.000783447 -0.000137792 -0.000795258 -0.00010236 -0.000791321 -6.29907e-005 -0.000822816 -1.96846e-005 -0.000822816 0.00642505 0 1.18108e-005 0.000499989 3.93692e-005 0.000484241 6.29907e-005 0.000492115 8.26753e-005 0.00047243 0.000106297 0.000460619 0.000129918 0.000460619 0.000149603 0.000440935 0.000177161 0.000440935 0.000192909 0.000425187 0.000208657 0.000413376 0.000232278 0.000401566 0.000251963 0.000389755 0.000275584 0.000385818 0.000279521 0.000366133 0.000303143 0.000346449 0.00031889 0.000334638 0.000334638 0.00031889 0.000354323 0.00030708 0.000362196 0.000287395 0.000374007 0.000263774 0.000393692 0.000251963 0.000401566 0.000228341 0.000425187 0.000216531 0.000417313 0.000192909 0.000433061 0.000169287 0.000448809 0.00015354 0.000460619 0.000129918 0.000460619 0.000106297 0.000468493 8.26753e-005 0.000496052 6.29907e-005 0.000484241 3.93692e-005 0.000496052 1.18108e-005 0 0zm0.00963758 -0.00963758l0.00642505 0 0 0 -1.96846e-005 0.000822816 -6.29907e-005 0.000822816 -0.00010236 0.000791321 -0.000137792 0.000795258 -0.000185035 0.000783447 -0.000216531 0.000759825 -0.000248026 0.000740141 -0.000287395 0.000740141 -0.000326764 0.000716519 -0.000350386 0.000681087 -0.000385818 0.00067715 -0.00042125 0.000657465 -0.000448809 0.00062597 -0.00047243 0.000598412 -0.000503926 0.000590538 -0.000539358 0.000559042 -0.000547232 0.00052361 -0.000582664 0.000507862 -0.000610222 0.000476367 -0.000622033 0.000448809 -0.000665339 0.000425187 -0.000669276 0.000381881 -0.000681087 0.000350386 -0.000720456 0.000326764 -0.000736204 0.000287395 -0.000748014 0.000251963 -0.000755888 0.000212594 -0.000783447 0.000185035 -0.000795258 0.000137792 -0.000791321 0.00010236 -0.000822816 6.29907e-005 -0.000822816 1.96846e-005 0 -0.00642505 0.000499989 -1.18108e-005 0.000484241 -3.93692e-005 0.000492115 -6.29907e-005 0.00047243 -8.26753e-005 0.000460619 -0.000106297 0.000464556 -0.000133855 0.000448809 -0.000149603 0.000429124 -0.000169287 0.00042125 -0.000192909 0.00042125 -0.000216531 0.00040944 -0.000232278 0.000381881 -0.000244089 0.000377944 -0.00026771 0.000366133 -0.000287395 0.000346449 -0.000303143 0.000342512 -0.000326764 0.00031889 -0.000330701 0.000299206 -0.000346449 0.000291332 -0.00037007 0.00026771 -0.000381881 0.000248026 -0.000381881 0.000228341 -0.000401566 0.000216531 -0.000429124 0.000192909 -0.000417313 0.000169287 -0.000433061 0.00015354 -0.000448809 0.000129918 -0.000460619 0.000106297 -0.000460619 8.26753e-005 -0.00047243 6.29907e-005 -0.000492115 3.93692e-005 -0.000484241 1.18108e-005 -0.000499989 0 0z"/>
   </g>
   <g>
    <path class="fil0" d="M0.163445 0.0289127l-0.133469 0 0 -0.00642505 0.133469 0 0 0 0 0.00642505zm0 0l0 -0.00642505 0.000165351 3.93692e-006 0.000161414 1.18108e-005 0.000161414 1.96846e-005 0.000157477 3.14953e-005 0.000157477 3.54323e-005 0.000149603 4.33061e-005 0.000149603 5.11799e-005 0.000145666 5.51169e-005 0.000141729 6.69276e-005 0.000141729 7.08645e-005 0.000133855 7.48014e-005 0.000129918 8.66122e-005 0.000125981 8.66122e-005 0.000122044 9.8423e-005 0.000114171 9.8423e-005 0.000114171 0.000106297 0.000106297 0.000114171 9.8423e-005 0.000114171 9.8423e-005 0.000122044 8.66122e-005 0.000125981 8.66122e-005 0.000129918 7.48014e-005 0.000133855 7.08645e-005 0.000141729 6.69276e-005 0.000141729 5.51169e-005 0.000145666 5.11799e-005 0.000149603 4.33061e-005 0.000149603 3.54323e-005 0.000157477 3.14953e-005 0.000157477 1.96846e-005 0.000161414 1.18108e-005 0.000161414 3.93692e-006 0.000165351 -3.93692e-006 0.000165351 -1.18108e-005 0.000161414 -1.96846e-005 0.000161414 -3.14953e-005 0.000157477 -3.54323e-005 0.000157477 -4.33061e-005 0.000149603 -5.11799e-005 0.000149603 -5.51169e-005 0.000145666 -6.69276e-005 0.000141729 -7.08645e-005 0.000141729 -7.48014e-005 0.000133855 -8.66122e-005 0.000129918 -8.66122e-005 0.000125981 -9.8423e-005 0.000122044 -9.8423e-005 0.000114171 -0.000106297 0.000114171 -0.000114171 0.000106297 -0.000114171 9.8423e-005 -0.000122044 9.8423e-005 -0.000125981 8.66122e-005 -0.000129918 8.66122e-005 -0.000133855 7.48014e-005 -0.000141729 7.08645e-005 -0.000141729 6.69276e-005 -0.000145666 5.51169e-005 -0.000149603 5.11799e-005 -0.000149603 4.33061e-005 -0.000157477 3.54323e-005 -0.000157477 3.14953e-005 -0.000161414 1.96846e-005 -0.000161414 1.18108e-005 -0.000165351 3.93692e-006zm0.00899192 0.00667701l-0.00599986 -0.00230703 3.93692e-006 -3.93692e-006 7.08645e-005 -0.000216531 5.90538e-005 -0.000192909 3.54323e-005 -0.000185035 3.54323e-005 -0.000216531 1.57477e-005 -0.000188972 3.93692e-006 -0.000181098 -7.87384e-006 -0.000208657 -1.57477e-005 -0.000181098 -3.14953e-005 -0.000181098 -4.33061e-005 -0.000188972 -5.11799e-005 -0.000177161 -6.69276e-005 -0.000181098 -7.48014e-005 -0.000185035 -7.08645e-005 -0.000149603 -0.000106297 -0.000177161 -0.00010236 -0.000165351 -0.00010236 -0.000137792 -0.000125981 -0.000157477 -0.000133855 -0.000141729 -0.000145666 -0.000141729 -0.000133855 -0.000118108 -0.000145666 -0.000106297 -0.000161414 -0.000110234 -0.000165351 -9.4486e-005 -0.000165351 -8.26753e-005 -0.000185035 -7.87384e-005 -0.000177161 -6.69276e-005 -0.000181098 -5.11799e-005 -0.000192909 -4.33061e-005 -0.00020472 -3.14953e-005 -0.00020472 -1.96846e-005 -0.000220467 -7.87384e-006 0 -0.00642505 0.000614159 1.57477e-005 0.000614159 5.90538e-005 0.000598412 9.4486e-005 0.000586601 0.000129918 0.000582664 0.000169287 0.000555105 0.000200783 0.000531484 0.000228341 0.000519673 0.000263774 0.000496052 0.000291332 0.000476367 0.000314953 0.000460619 0.000350386 0.000440935 0.000377944 0.000397629 0.000385818 0.000377944 0.00040944 0.000354323 0.000425187 0.000346449 0.000468493 0.000299206 0.00047243 0.000271647 0.000476367 0.000259837 0.000527547 0.000216531 0.000515736 0.000185035 0.000527547 0.000161414 0.000555105 0.000122044 0.000559042 9.4486e-005 0.00057479 5.51169e-005 0.000582664 2.36215e-005 0.000570853 -1.18108e-005 0.000598412 -5.51169e-005 0.000598412 -8.26753e-005 0.000578727 -0.000129918 0.000610222 -0.000169287 0.000594475 -0.00020472 0.000578727 3.93692e-006 -3.93692e-006zm-0.00599593 -0.00231097l0.00599199 0.00231491 -6.29907e-005 0.00015354 -7.08645e-005 0.000145666 -7.48014e-005 0.000141729 -8.66122e-005 0.000137792 -8.66122e-005 0.000133855 -9.8423e-005 0.000125981 -9.8423e-005 0.000122044 -0.000106297 0.000114171 -0.000110234 0.000110234 -0.000118108 0.00010236 -0.000122044 9.8423e-005 -0.000122044 9.05491e-005 -0.000129918 8.66122e-005 -0.000133855 7.87384e-005 -0.000133855 7.08645e-005 -0.000141729 6.69276e-005 -0.000141729 5.90538e-005 -0.000145666 5.11799e-005 -0.000145666 4.33061e-005 -0.000149603 3.93692e-005 -0.00015354 3.14953e-005 -0.00015354 2.36215e-005 -0.00015354 1.57477e-005 -0.000157477 7.87384e-006 -0.000157477 3.93692e-006 -0.000157477 -7.87384e-006 -0.000157477 -1.57477e-005 -0.000157477 -1.96846e-005 -0.000157477 -3.14953e-005 -0.000157477 -3.93692e-005 -0.00015354 -4.7243e-005 -0.000157477 -5.51169e-005 -0.00015354 -6.29907e-005 -0.000145666 -7.08645e-005 -0.000141729 -7.48014e-005 -0.000137792 -8.66122e-005 -0.000133855 -8.66122e-005 -0.000125981 -9.8423e-005 -0.000122044 -9.8423e-005 -0.000114171 -0.000106297 -0.000110234 -0.000110234 -0.00010236 -0.000118108 -9.8423e-005 -0.000122044 -9.05491e-005 -0.000122044 -8.66122e-005 -0.000129918 -7.87384e-005 -0.000133855 -7.08645e-005 -0.000133855 -6.69276e-005 -0.000141729 -5.90538e-005 -0.000141729 -5.11799e-005 -0.000145666 -4.33061e-005 -0.000145666 -3.93692e-005 -0.000149603 -3.14953e-005 -0.00015354 -2.36215e-005 -0.00015354 -1.57477e-005 -0.00015354 -7.87384e-006 -0.000157477 -3.93692e-006 -0.000157477 7.87384e-006 -0.000157477 1.57477e-005 -0.000157477 1.96846e-005 -0.000157477 3.14953e-005 -0.000157477 3.93692e-005 -0.000157477 4.7243e-005 -0.00015354 5.51169e-005 -0.000157477zm-0.0255978 0.0665654l0.0255939 -0.0665615 0.00599986 0.00230703 -0.0255939 0.0665615 0 0 -0.00599986 -0.00230703zm0 0l0.00599986 0.00230703 -6.29907e-005 0.00015354 -7.08645e-005 0.000145666 -7.48014e-005 0.000141729 -8.26753e-005 0.000137792 -9.05491e-005 0.000133855 -9.4486e-005 0.000125981 -0.00010236 0.000122044 -0.000106297 0.000114171 -0.000110234 0.000110234 -0.000114171 0.00010236 -0.000122044 9.8423e-005 -0.000125981 9.05491e-005 -0.000129918 8.66122e-005 -0.000129918 7.87384e-005 -0.000137792 7.48014e-005 -0.000137792 6.29907e-005 -0.000145666 5.90538e-005 -0.000141729 5.51169e-005 -0.000149603 4.33061e-005 -0.000149603 3.93692e-005 -0.00015354 3.14953e-005 -0.00015354 2.36215e-005 -0.00015354 1.57477e-005 -0.000157477 1.18108e-005 -0.00015354 0 -0.000157477 -7.87384e-006 -0.000161414 -1.18108e-005 -0.000157477 -2.36215e-005 -0.000157477 -2.75584e-005 -0.000157477 -3.93692e-005 -0.00015354 -4.7243e-005 -0.000157477 -5.51169e-005 -0.00015354 -6.29907e-005 -0.000145666 -7.08645e-005 -0.000141729 -7.48014e-005 -0.000137792 -8.26753e-005 -0.000133855 -9.05491e-005 -0.000125981 -9.4486e-005 -0.000122044 -0.00010236 -0.000114171 -0.000106297 -0.000110234 -0.000110234 -0.00010236 -0.000114171 -9.8423e-005 -0.000122044 -9.05491e-005 -0.000125981 -8.66122e-005 -0.000129918 -7.87384e-005 -0.000129918 -7.48014e-005 -0.000137792 -6.29907e-005 -0.000137792 -5.90538e-005 -0.000145666 -5.51169e-005 -0.000141729 -4.33061e-005 -0.000149603 -3.93692e-005 -0.000149603 -3.14953e-005 -0.00015354 -2.36215e-005 -0.00015354 -1.57477e-005 -0.00015354 -1.18108e-005 -0.000157477 0 -0.00015354 7.87384e-006 -0.000157477 1.18108e-005 -0.000161414 2.36215e-005 -0.000157477 2.75584e-005 -0.000157477 3.93692e-005 -0.000157477 4.7243e-005 -0.00015354 5.51169e-005 -0.000157477zm-0.00899586 0.0126099l0 -0.00642505 0 0 0.00037007 -7.87384e-006 0.000362196 -2.36215e-005 0.000385818 -3.54323e-005 0.000366133 -4.7243e-005 0.000342512 -5.90538e-005 0.000362196 -7.87384e-005 0.000342512 -8.66122e-005 0.000342512 -0.00010236 0.000350386 -0.000118108 0.000338575 -0.000125981 0.000330701 -0.000141729 0.000326764 -0.000149603 0.00031889 -0.000161414 0.000314953 -0.000177161 0.000303143 -0.000181098 0.000287395 -0.000192909 0.000291332 -0.000212594 0.000299206 -0.000228341 0.000275584 -0.000228341 0.000259837 -0.000232278 0.000251963 -0.000244089 0.000251963 -0.000263774 0.000244089 -0.000275584 0.000236215 -0.000283458 0.000216531 -0.000279521 0.000200783 -0.000287395 0.00020472 -0.000311017 0.000185035 -0.000311017 0.000177161 -0.000326764 0.000161414 -0.000322827 0.00015354 -0.000342512 0.000141729 -0.000346449 0.00599986 0.00230703 -0.000236215 0.00057479 -0.000248026 0.000555105 -0.000279521 0.000559042 -0.000295269 0.000531484 -0.000311017 0.00052361 -0.000330701 0.000507862 -0.000350386 0.000499989 -0.000374007 0.000484241 -0.000377944 0.000456683 -0.000393692 0.000440935 -0.00040944 0.000429124 -0.000433061 0.000425187 -0.000456683 0.000405503 -0.000456683 0.000377944 -0.000456683 0.000354323 -0.000480304 0.000346449 -0.000507862 0.000334638 -0.000515736 0.000314953 -0.000519673 0.000287395 -0.000531484 0.000271647 -0.000539358 0.000251963 -0.000551169 0.000228341 -0.000559042 0.000212594 -0.000562979 0.000188972 -0.000578727 0.000173224 -0.000594475 0.000149603 -0.000590538 0.000125981 -0.000610222 0.000106297 -0.000602349 7.87384e-005 -0.000598412 5.90538e-005 -0.000622033 3.93692e-005 -0.000622033 7.87384e-006 0 0zm0 -0.00642505l0 0.00642505 -0.000165351 -3.93692e-006 -0.000161414 -1.18108e-005 -0.000161414 -1.96846e-005 -0.000157477 -3.14953e-005 -0.000157477 -3.54323e-005 -0.000149603 -4.33061e-005 -0.000149603 -5.11799e-005 -0.000145666 -5.51169e-005 -0.000141729 -6.69276e-005 -0.000141729 -7.08645e-005 -0.000133855 -7.48014e-005 -0.000129918 -8.66122e-005 -0.000125981 -8.66122e-005 -0.000122044 -9.8423e-005 -0.000114171 -9.8423e-005 -0.000114171 -0.000106297 -0.000106297 -0.000114171 -9.8423e-005 -0.000114171 -9.8423e-005 -0.000122044 -8.66122e-005 -0.000125981 -8.66122e-005 -0.000129918 -7.48014e-005 -0.000133855 -7.08645e-005 -0.000141729 -6.69276e-005 -0.000141729 -5.51169e-005 -0.000145666 -5.11799e-005 -0.000149603 -4.33061e-005 -0.000149603 -3.54323e-005 -0.000157477 -3.14953e-005 -0.000157477 -1.96846e-005 -0.000161414 -1.18108e-005 -0.000161414 -3.93692e-006 -0.000165351 3.93692e-006 -0.000165351 1.18108e-005 -0.000161414 1.96846e-005 -0.000161414 3.14953e-005 -0.000157477 3.54323e-005 -0.000157477 4.33061e-005 -0.000149603 5.11799e-005 -0.000149603 5.51169e-005 -0.000145666 6.69276e-005 -0.000141729 7.08645e-005 -0.000141729 7.48014e-005 -0.000133855 8.66122e-005 -0.000129918 8.66122e-005 -0.000125981 9.8423e-005 -0.000122044 9.8423e-005 -0.000114171 0.000106297 -0.000114171 0.000114171 -0.000106297 0.000114171 -9.8423e-005 0.000122044 -9.8423e-005 0.000125981 -8.66122e-005 0.000129918 -8.66122e-005 0.000133855 -7.48014e-005 0.000141729 -7.08645e-005 0.000141729 -6.69276e-005 0.000145666 -5.51169e-005 0.000149603 -5.11799e-005 0.000149603 -4.33061e-005 0.000157477 -3.54323e-005 0.000157477 -3.14953e-005 0.000161414 -1.96846e-005 0.000161414 -1.18108e-005 0.000165351 -3.93692e-006zm-0.0751873 0l0.0751873 0 0 0.00642505 -0.0751873 0 0 0 0 -0.00642505zm0 0l0 0.00642505 -0.000165351 -3.93692e-006 -0.000161414 -1.18108e-005 -0.000161414 -1.96846e-005 -0.000157477 -3.14953e-005 -0.000157477 -3.54323e-005 -0.000149603 -4.33061e-005 -0.000149603 -5.11799e-005 -0.000145666 -5.51169e-005 -0.000141729 -6.69276e-005 -0.000141729 -7.08645e-005 -0.000133855 -7.48014e-005 -0.000129918 -8.66122e-005 -0.000125981 -8.66122e-005 -0.000122044 -9.8423e-005 -0.000114171 -9.8423e-005 -0.000114171 -0.000106297 -0.000106297 -0.000114171 -9.8423e-005 -0.000114171 -9.8423e-005 -0.000122044 -8.66122e-005 -0.000125981 -8.66122e-005 -0.000129918 -7.48014e-005 -0.000133855 -7.08645e-005 -0.000141729 -6.69276e-005 -0.000141729 -5.51169e-005 -0.000145666 -5.11799e-005 -0.000149603 -4.33061e-005 -0.000149603 -3.54323e-005 -0.000157477 -3.14953e-005 -0.000157477 -1.96846e-005 -0.000161414 -1.18108e-005 -0.000161414 -3.93692e-006 -0.000165351 3.93692e-006 -0.000165351 1.18108e-005 -0.000161414 1.96846e-005 -0.000161414 3.14953e-005 -0.000157477 3.54323e-005 -0.000157477 4.33061e-005 -0.000149603 5.11799e-005 -0.000149603 5.51169e-005 -0.000145666 6.69276e-005 -0.000141729 7.08645e-005 -0.000141729 7.48014e-005 -0.000133855 8.66122e-005 -0.000129918 8.66122e-005 -0.000125981 9.8423e-005 -0.000122044 9.8423e-005 -0.000114171 0.000106297 -0.000114171 0.000114171 -0.000106297 0.000114171 -9.8423e-005 0.000122044 -9.8423e-005 0.000125981 -8.66122e-005 0.000129918 -8.66122e-005 0.000133855 -7.48014e-005 0.000141729 -7.08645e-005 0.000141729 -6.69276e-005 0.000145666 -5.51169e-005 0.000149603 -5.11799e-005 0.000149603 -4.33061e-005 0.000157477 -3.54323e-005 0.000157477 -3.14953e-005 0.000161414 -1.96846e-005 0.000161414 -1.18108e-005 0.000165351 -3.93692e-006zm-0.0157752 -0.00660615l0.00630694 -0.00121257 0 0 9.4486e-005 0.000417313 0.000110234 0.00042125 0.000125981 0.000413376 0.000137792 0.000393692 0.00015354 0.000374007 0.000181098 0.000381881 0.000196846 0.000381881 0.000200783 0.000354323 0.000216531 0.000346449 0.000232278 0.000334638 0.000251963 0.000330701 0.0002559 0.000314953 0.000275584 0.000303143 0.000287395 0.000295269 0.000303143 0.000283458 0.000303143 0.000263774 0.00031889 0.000251963 0.000338575 0.000244089 0.000334638 0.000224404 0.000350386 0.000208657 0.000362196 0.000196846 0.000374007 0.000185035 0.00037007 0.000165351 0.000385818 0.000145666 0.000389755 0.000137792 0.000393692 0.000114171 0.000413376 0.00010236 0.000405503 7.87384e-005 0.00042125 6.69276e-005 0.000425187 4.7243e-005 0.000425187 3.14953e-005 0.000433061 7.87384e-006 0 0.00642505 -0.000716519 -1.57477e-005 -0.000716519 -4.7243e-005 -0.000700771 -7.87384e-005 -0.000696835 -0.000106297 -0.000688961 -0.000141729 -0.000665339 -0.000165351 -0.00067715 -0.000192909 -0.000649592 -0.000224404 -0.000645655 -0.000248026 -0.000629907 -0.000283458 -0.000610222 -0.000295269 -0.000598412 -0.000330701 -0.000586601 -0.000350386 -0.000570853 -0.000381881 -0.000543295 -0.000393692 -0.000539358 -0.000425187 -0.000515736 -0.000444872 -0.000492115 -0.000464556 -0.000476367 -0.000484241 -0.000456683 -0.000507862 -0.000436998 -0.000527547 -0.00040944 -0.000543295 -0.000389755 -0.000562979 -0.000374007 -0.000590538 -0.000342512 -0.000606285 -0.00030708 -0.000602349 -0.000291332 -0.00062597 -0.000271647 -0.000665339 -0.000240152 -0.000669276 -0.00020472 -0.000665339 -0.000181098 -0.000681087 -0.000149603 -0.000708645 0 0zm0.00630694 -0.00121257l-0.00630694 0.00121257 -2.75584e-005 -0.000161414 -1.96846e-005 -0.000165351 -7.87384e-006 -0.000161414 -3.93692e-006 -0.000157477 7.87384e-006 -0.000161414 1.18108e-005 -0.000157477 2.36215e-005 -0.000157477 2.75584e-005 -0.00015354 3.54323e-005 -0.000149603 4.33061e-005 -0.000149603 5.11799e-005 -0.000145666 5.90538e-005 -0.000145666 6.29907e-005 -0.000141729 7.08645e-005 -0.000137792 7.87384e-005 -0.000129918 8.26753e-005 -0.000129918 9.05491e-005 -0.000125981 9.4486e-005 -0.000122044 0.00010236 -0.000118108 0.000106297 -0.000110234 0.000110234 -0.000106297 0.000118108 -0.00010236 0.000122044 -9.4486e-005 0.000125981 -9.05491e-005 0.000133855 -8.26753e-005 0.000137792 -7.87384e-005 0.000141729 -7.08645e-005 0.000145666 -6.69276e-005 0.000149603 -5.51169e-005 0.00015354 -5.11799e-005 0.000157477 -4.33061e-005 0.000161414 -3.54323e-005 0.000161414 -2.75584e-005 0.000165351 -1.96846e-005 0.000161414 -7.87384e-006 0.000157477 -3.93692e-006 0.000161414 7.87384e-006 0.000157477 1.18108e-005 0.000157477 2.36215e-005 0.00015354 2.75584e-005 0.000149603 3.54323e-005 0.000149603 4.33061e-005 0.000145666 5.11799e-005 0.000145666 5.90538e-005 0.000141729 6.29907e-005 0.000137792 7.08645e-005 0.000129918 7.87384e-005 0.000129918 8.26753e-005 0.000125981 9.05491e-005 0.000122044 9.4486e-005 0.000118108 0.00010236 0.000110234 0.000106297 0.000106297 0.000110234 0.00010236 0.000118108 9.4486e-005 0.000122044 9.05491e-005 0.000125981 8.26753e-005 0.000133855 7.87384e-005 0.000137792 7.08645e-005 0.000141729 6.69276e-005 0.000145666 5.51169e-005 0.000149603 5.11799e-005 0.00015354 4.33061e-005 0.000157477 3.54323e-005 0.000161414zm-0.0140627 -0.0731164l0.0140627 0.0731164 -0.00630694 0.00121257 -0.0140627 -0.0731164 0.00315347 -0.00381881 0.00315347 0.00260624zm0 0l-0.00630694 0.00121257 -2.75584e-005 -0.000161414 -1.96846e-005 -0.000165351 -7.87384e-006 -0.000161414 -3.93692e-006 -0.000157477 7.87384e-006 -0.000161414 1.18108e-005 -0.000157477 2.36215e-005 -0.000157477 2.75584e-005 -0.00015354 3.54323e-005 -0.000149603 4.33061e-005 -0.000149603 5.11799e-005 -0.000145666 5.90538e-005 -0.000145666 6.29907e-005 -0.000141729 7.08645e-005 -0.000137792 7.87384e-005 -0.000129918 8.26753e-005 -0.000129918 9.05491e-005 -0.000125981 9.4486e-005 -0.000122044 0.00010236 -0.000118108 0.000106297 -0.000110234 0.000110234 -0.000106297 0.000118108 -0.00010236 0.000122044 -9.4486e-005 0.000125981 -9.05491e-005 0.000133855 -8.26753e-005 0.000137792 -7.87384e-005 0.000141729 -7.08645e-005 0.000145666 -6.69276e-005 0.000149603 -5.51169e-005 0.00015354 -5.11799e-005 0.000157477 -4.33061e-005 0.000161414 -3.54323e-005 0.000161414 -2.75584e-005 0.000165351 -1.96846e-005 0.000161414 -7.87384e-006 0.000157477 -3.93692e-006 0.000161414 7.87384e-006 0.000157477 1.18108e-005 0.000157477 2.36215e-005 0.00015354 2.75584e-005 0.000149603 3.54323e-005 0.000149603 4.33061e-005 0.000145666 5.11799e-005 0.000145666 5.90538e-005 0.000141729 6.29907e-005 0.000137792 7.08645e-005 0.000129918 7.87384e-005 0.000129918 8.26753e-005 0.000125981 9.05491e-005 0.000122044 9.4486e-005 0.000118108 0.00010236 0.000110234 0.000106297 0.000106297 0.000110234 0.00010236 0.000118108 9.4486e-005 0.000122044 9.05491e-005 0.000125981 8.26753e-005 0.000133855 7.87384e-005 0.000137792 7.08645e-005 0.000141729 6.69276e-005 0.000145666 5.51169e-005 0.000149603 5.11799e-005 0.00015354 4.33061e-005 0.000157477 3.54323e-005 0.000161414z"/>
   </g>
   <g>
    <path class="fil0" d="M0.0267395 0.0263459l0.00629907 -0.00125981 2.75584e-005 0.000161414 1.96846e-005 0.000161414 1.18108e-005 0.000161414 3.93692e-006 0.000161414 -3.93692e-006 0.000161414 -1.57477e-005 0.000157477 -1.96846e-005 0.00015354 -2.75584e-005 0.000157477 -3.54323e-005 0.000149603 -4.33061e-005 0.000149603 -4.7243e-005 0.000149603 -5.90538e-005 0.000141729 -6.29907e-005 0.000141729 -6.69276e-005 0.000137792 -7.87384e-005 0.000133855 -8.26753e-005 0.000129918 -8.66122e-005 0.000125981 -9.4486e-005 0.000122044 -0.00010236 0.000118108 -0.00010236 0.000114171 -0.000114171 0.000106297 -0.000114171 0.00010236 -0.000122044 9.8423e-005 -0.000129918 9.05491e-005 -0.000129918 8.26753e-005 -0.000137792 8.26753e-005 -0.000137792 7.08645e-005 -0.000145666 6.69276e-005 -0.000149603 5.51169e-005 -0.00015354 5.51169e-005 -0.000157477 4.33061e-005 -0.000161414 3.54323e-005 -0.000161414 2.75584e-005 -0.000161414 1.96846e-005 -0.000161414 1.18108e-005 -0.000161414 3.93692e-006 -0.000161414 -3.93692e-006 -0.000157477 -1.57477e-005 -0.00015354 -1.96846e-005 -0.000157477 -2.75584e-005 -0.000149603 -3.54323e-005 -0.000149603 -4.33061e-005 -0.000149603 -4.7243e-005 -0.000141729 -5.90538e-005 -0.000141729 -6.29907e-005 -0.000137792 -6.69276e-005 -0.000133855 -7.87384e-005 -0.000129918 -8.26753e-005 -0.000125981 -8.66122e-005 -0.000122044 -9.4486e-005 -0.000118108 -0.00010236 -0.000114171 -0.00010236 -0.000106297 -0.000114171 -0.00010236 -0.000114171 -9.8423e-005 -0.000122044 -9.05491e-005 -0.000129918 -8.26753e-005 -0.000129918 -8.26753e-005 -0.000137792 -7.08645e-005 -0.000137792 -6.69276e-005 -0.000145666 -5.51169e-005 -0.000149603 -5.51169e-005 -0.00015354 -4.33061e-005 -0.000157477 -3.54323e-005 -0.000161414zm0.00386212 -0.0134367l0.00243695 0.0121769 -0.00629907 0.00125981 -0.00243695 -0.0121769 0.00629907 -0.00126375 0 3.93692e-006zm0 0l-0.00629907 0.00125981 -2.75584e-005 -0.000161414 -1.96846e-005 -0.000161414 -1.18108e-005 -0.000161414 -3.93692e-006 -0.000161414 3.93692e-006 -0.000161414 1.57477e-005 -0.000157477 1.96846e-005 -0.00015354 2.75584e-005 -0.000157477 3.54323e-005 -0.000149603 4.33061e-005 -0.000149603 4.7243e-005 -0.000149603 5.90538e-005 -0.000141729 6.29907e-005 -0.000141729 6.69276e-005 -0.000137792 7.87384e-005 -0.000133855 8.26753e-005 -0.000129918 8.66122e-005 -0.000125981 9.4486e-005 -0.000122044 0.00010236 -0.000118108 0.00010236 -0.000114171 0.000114171 -0.000106297 0.000114171 -0.00010236 0.000122044 -9.8423e-005 0.000129918 -9.05491e-005 0.000129918 -8.26753e-005 0.000137792 -8.26753e-005 0.000137792 -7.08645e-005 0.000145666 -6.69276e-005 0.000149603 -5.51169e-005 0.00015354 -5.51169e-005 0.000157477 -4.33061e-005 0.000161414 -3.54323e-005 0.000161414 -2.75584e-005 0.000161414 -1.96846e-005 0.000161414 -1.18108e-005 0.000161414 -3.93692e-006 0.000161414 3.93692e-006 0.000157477 1.57477e-005 0.00015354 1.96846e-005 0.000157477 2.75584e-005 0.000149603 3.54323e-005 0.000149603 4.33061e-005 0.000149603 4.7243e-005 0.000141729 5.90538e-005 0.000141729 6.29907e-005 0.000137792 6.69276e-005 0.000133855 7.87384e-005 0.000129918 8.26753e-005 0.000125981 8.66122e-005 0.000122044 9.4486e-005 0.000118108 0.00010236 0.000114171 0.00010236 0.000106297 0.000114171 0.00010236 0.000114171 9.8423e-005 0.000122044 9.05491e-005 0.000129918 8.26753e-005 0.000129918 8.26753e-005 0.000137792 7.08645e-005 0.000137792 6.69276e-005 0.000145666 5.51169e-005 0.000149603 5.51169e-005 0.00015354 4.33061e-005 0.000157477 3.54323e-005 0.000161414zm-0.0157516 -0.0064841l0 -0.00642505 0 0 0.000716519 1.57477e-005 0.000700771 4.7243e-005 0.000696835 7.48014e-005 0.000700771 0.000110234 0.000673213 0.000133855 0.000681087 0.000165351 0.000661402 0.000196846 0.000645655 0.000216531 0.000641718 0.000248026 0.000622033 0.000271647 0.000622033 0.000303143 0.000590538 0.000322827 0.00057479 0.000346449 0.000570853 0.00037007 0.000559042 0.000401566 0.000527547 0.000417313 0.000511799 0.000436998 0.000492115 0.000460619 0.000476367 0.000480304 0.000460619 0.000503926 0.000433061 0.000527547 0.000413376 0.000535421 0.000393692 0.000562979 0.000366133 0.000578727 0.000342512 0.000590538 0.00031889 0.000606285 0.000295269 0.000629907 0.00026771 0.000645655 0.000240152 0.000649592 0.000216531 0.000673213 0.000185035 0.000688961 0.00015354 0.000692898 -0.00629907 0.00126769 -9.8423e-005 -0.000425187 -0.000106297 -0.000405503 -0.000129918 -0.000397629 -0.000145666 -0.000405503 -0.000157477 -0.000377944 -0.000177161 -0.00037007 -0.000192909 -0.00037007 -0.000208657 -0.000362196 -0.000216531 -0.000342512 -0.000236215 -0.000334638 -0.000248026 -0.000330701 -0.000259837 -0.00030708 -0.000271647 -0.000299206 -0.000287395 -0.000291332 -0.000303143 -0.000279521 -0.00030708 -0.000263774 -0.000322827 -0.000251963 -0.000322827 -0.000236215 -0.000334638 -0.000220467 -0.000362196 -0.000212594 -0.000362196 -0.000196846 -0.000354323 -0.000177161 -0.000377944 -0.000161414 -0.000381881 -0.00015354 -0.000393692 -0.000129918 -0.000393692 -0.000118108 -0.000397629 -9.4486e-005 -0.00042125 -8.66122e-005 -0.000401566 -6.29907e-005 -0.00042125 -4.33061e-005 -0.000433061 -3.14953e-005 -0.000425187 -7.87384e-006 0 0zm0 -0.00642505l0 0.00642505 -0.000165351 -3.93692e-006 -0.000161414 -1.18108e-005 -0.000161414 -1.96846e-005 -0.000157477 -3.14953e-005 -0.000157477 -3.54323e-005 -0.000149603 -4.33061e-005 -0.000149603 -5.11799e-005 -0.000145666 -5.51169e-005 -0.000141729 -6.69276e-005 -0.000141729 -7.08645e-005 -0.000133855 -7.48014e-005 -0.000129918 -8.66122e-005 -0.000125981 -8.66122e-005 -0.000122044 -9.8423e-005 -0.000114171 -9.8423e-005 -0.000114171 -0.000106297 -0.000106297 -0.000114171 -9.8423e-005 -0.000114171 -9.8423e-005 -0.000122044 -8.66122e-005 -0.000125981 -8.66122e-005 -0.000129918 -7.48014e-005 -0.000133855 -7.08645e-005 -0.000141729 -6.69276e-005 -0.000141729 -5.51169e-005 -0.000145666 -5.11799e-005 -0.000149603 -4.33061e-005 -0.000149603 -3.54323e-005 -0.000157477 -3.14953e-005 -0.000157477 -1.96846e-005 -0.000161414 -1.18108e-005 -0.000161414 -3.93692e-006 -0.000165351 3.93692e-006 -0.000165351 1.18108e-005 -0.000161414 1.96846e-005 -0.000161414 3.14953e-005 -0.000157477 3.54323e-005 -0.000157477 4.33061e-005 -0.000149603 5.11799e-005 -0.000149603 5.51169e-005 -0.000145666 6.69276e-005 -0.000141729 7.08645e-005 -0.000141729 7.48014e-005 -0.000133855 8.66122e-005 -0.000129918 8.66122e-005 -0.000125981 9.8423e-005 -0.000122044 9.8423e-005 -0.000114171 0.000106297 -0.000114171 0.000114171 -0.000106297 0.000114171 -9.8423e-005 0.000122044 -9.8423e-005 0.000125981 -8.66122e-005 0.000129918 -8.66122e-005 0.000133855 -7.48014e-005 0.000141729 -7.08645e-005 0.000141729 -6.69276e-005 0.000145666 -5.51169e-005 0.000149603 -5.11799e-005 0.000149603 -4.33061e-005 0.000157477 -3.54323e-005 0.000157477 -3.14953e-005 0.000161414 -1.96846e-005 0.000161414 -1.18108e-005 0.000165351 -3.93692e-006zm-0.0116375 0l0.0116375 0 0 0.00642505 -0.0116375 0 0 -0.00642505zm0 0l0 0.00642505 -0.000165351 -3.93692e-006 -0.000161414 -1.18108e-005 -0.000161414 -1.96846e-005 -0.000157477 -3.14953e-005 -0.000157477 -3.54323e-005 -0.000149603 -4.33061e-005 -0.000149603 -5.11799e-005 -0.000145666 -5.51169e-005 -0.000141729 -6.69276e-005 -0.000141729 -7.08645e-005 -0.000133855 -7.48014e-005 -0.000129918 -8.66122e-005 -0.000125981 -8.66122e-005 -0.000122044 -9.8423e-005 -0.000114171 -9.8423e-005 -0.000114171 -0.000106297 -0.000106297 -0.000114171 -9.8423e-005 -0.000114171 -9.8423e-005 -0.000122044 -8.66122e-005 -0.000125981 -8.66122e-005 -0.000129918 -7.48014e-005 -0.000133855 -7.08645e-005 -0.000141729 -6.69276e-005 -0.000141729 -5.51169e-005 -0.000145666 -5.11799e-005 -0.000149603 -4.33061e-005 -0.000149603 -3.54323e-005 -0.000157477 -3.14953e-005 -0.000157477 -1.96846e-005 -0.000161414 -1.18108e-005 -0.000161414 -3.93692e-006 -0.000165351 3.93692e-006 -0.000165351 1.18108e-005 -0.000161414 1.96846e-005 -0.000161414 3.14953e-005 -0.000157477 3.54323e-005 -0.000157477 4.33061e-005 -0.000149603 5.11799e-005 -0.000149603 5.51169e-005 -0.000145666 6.69276e-005 -0.000141729 7.08645e-005 -0.000141729 7.48014e-005 -0.000133855 8.66122e-005 -0.000129918 8.66122e-005 -0.000125981 9.8423e-005 -0.000122044 9.8423e-005 -0.000114171 0.000106297 -0.000114171 0.000114171 -0.000106297 0.000114171 -9.8423e-005 0.000122044 -9.8423e-005 0.000125981 -8.66122e-005 0.000129918 -8.66122e-005 0.000133855 -7.48014e-005 0.000141729 -7.08645e-005 0.000141729 -6.69276e-005 0.000145666 -5.51169e-005 0.000149603 -5.11799e-005 0.000149603 -4.33061e-005 0.000157477 -3.54323e-005 0.000157477 -3.14953e-005 0.000161414 -1.96846e-005 0.000161414 -1.18108e-005 0.000165351 -3.93692e-006z"/>
   </g>
   <g>
    <path class="fil0" d="M0.127816 0.0417668l0 0.00642505 -0.000165351 -3.93692e-006 -0.000161414 -1.18108e-005 -0.000161414 -1.96846e-005 -0.000157477 -3.14953e-005 -0.000157477 -3.54323e-005 -0.000149603 -4.33061e-005 -0.000149603 -5.11799e-005 -0.000145666 -5.51169e-005 -0.000141729 -6.69276e-005 -0.000141729 -7.08645e-005 -0.000133855 -7.48014e-005 -0.000129918 -8.66122e-005 -0.000125981 -8.66122e-005 -0.000122044 -9.8423e-005 -0.000114171 -9.8423e-005 -0.000114171 -0.000106297 -0.000106297 -0.000114171 -9.8423e-005 -0.000114171 -9.8423e-005 -0.000122044 -8.66122e-005 -0.000125981 -8.66122e-005 -0.000129918 -7.48014e-005 -0.000133855 -7.08645e-005 -0.000141729 -6.69276e-005 -0.000141729 -5.51169e-005 -0.000145666 -5.11799e-005 -0.000149603 -4.33061e-005 -0.000149603 -3.54323e-005 -0.000157477 -3.14953e-005 -0.000157477 -1.96846e-005 -0.000161414 -1.18108e-005 -0.000161414 -3.93692e-006 -0.000165351 3.93692e-006 -0.000165351 1.18108e-005 -0.000161414 1.96846e-005 -0.000161414 3.14953e-005 -0.000157477 3.54323e-005 -0.000157477 4.33061e-005 -0.000149603 5.11799e-005 -0.000149603 5.51169e-005 -0.000145666 6.69276e-005 -0.000141729 7.08645e-005 -0.000141729 7.48014e-005 -0.000133855 8.66122e-005 -0.000129918 8.66122e-005 -0.000125981 9.8423e-005 -0.000122044 9.8423e-005 -0.000114171 0.000106297 -0.000114171 0.000114171 -0.000106297 0.000114171 -9.8423e-005 0.000122044 -9.8423e-005 0.000125981 -8.66122e-005 0.000129918 -8.66122e-005 0.000133855 -7.48014e-005 0.000141729 -7.08645e-005 0.000141729 -6.69276e-005 0.000145666 -5.51169e-005 0.000149603 -5.11799e-005 0.000149603 -4.33061e-005 0.000157477 -3.54323e-005 0.000157477 -3.14953e-005 0.000161414 -1.96846e-005 0.000161414 -1.18108e-005 0.000165351 -3.93692e-006zm0.00482272 0.00642505l-0.00482272 0 0 -0.00642505 0.00482272 0 0 0.00642505zm0 0l0 -0.00642505 0.000165351 3.93692e-006 0.000161414 1.18108e-005 0.000161414 1.96846e-005 0.000157477 3.14953e-005 0.000157477 3.54323e-005 0.000149603 4.33061e-005 0.000149603 5.11799e-005 0.000145666 5.51169e-005 0.000141729 6.69276e-005 0.000141729 7.08645e-005 0.000133855 7.48014e-005 0.000129918 8.66122e-005 0.000125981 8.66122e-005 0.000122044 9.8423e-005 0.000114171 9.8423e-005 0.000114171 0.000106297 0.000106297 0.000114171 9.8423e-005 0.000114171 9.8423e-005 0.000122044 8.66122e-005 0.000125981 8.66122e-005 0.000129918 7.48014e-005 0.000133855 7.08645e-005 0.000141729 6.69276e-005 0.000141729 5.51169e-005 0.000145666 5.11799e-005 0.000149603 4.33061e-005 0.000149603 3.54323e-005 0.000157477 3.14953e-005 0.000157477 1.96846e-005 0.000161414 1.18108e-005 0.000161414 3.93692e-006 0.000165351 -3.93692e-006 0.000165351 -1.18108e-005 0.000161414 -1.96846e-005 0.000161414 -3.14953e-005 0.000157477 -3.54323e-005 0.000157477 -4.33061e-005 0.000149603 -5.11799e-005 0.000149603 -5.51169e-005 0.000145666 -6.69276e-005 0.000141729 -7.08645e-005 0.000141729 -7.48014e-005 0.000133855 -8.66122e-005 0.000129918 -8.66122e-005 0.000125981 -9.8423e-005 0.000122044 -9.8423e-005 0.000114171 -0.000106297 0.000114171 -0.000114171 0.000106297 -0.000114171 9.8423e-005 -0.000122044 9.8423e-005 -0.000125981 8.66122e-005 -0.000129918 8.66122e-005 -0.000133855 7.48014e-005 -0.000141729 7.08645e-005 -0.000141729 6.69276e-005 -0.000145666 5.51169e-005 -0.000149603 5.11799e-005 -0.000149603 4.33061e-005 -0.000157477 3.54323e-005 -0.000157477 3.14953e-005 -0.000161414 1.96846e-005 -0.000161414 1.18108e-005 -0.000165351 3.93692e-006z"/>
   </g>
   <g>
    <path class="fil0" d="M0.0347945 0.0417668l0 0.00642505 -0.000165351 -3.93692e-006 -0.000161414 -1.18108e-005 -0.000161414 -1.96846e-005 -0.000157477 -3.14953e-005 -0.000157477 -3.54323e-005 -0.000149603 -4.33061e-005 -0.000149603 -5.11799e-005 -0.000145666 -5.51169e-005 -0.000141729 -6.69276e-005 -0.000141729 -7.08645e-005 -0.000133855 -7.48014e-005 -0.000129918 -8.66122e-005 -0.000125981 -8.66122e-005 -0.000122044 -9.8423e-005 -0.000114171 -9.8423e-005 -0.000114171 -0.000106297 -0.000106297 -0.000114171 -9.8423e-005 -0.000114171 -9.8423e-005 -0.000122044 -8.66122e-005 -0.000125981 -8.66122e-005 -0.000129918 -7.48014e-005 -0.000133855 -7.08645e-005 -0.000141729 -6.69276e-005 -0.000141729 -5.51169e-005 -0.000145666 -5.11799e-005 -0.000149603 -4.33061e-005 -0.000149603 -3.54323e-005 -0.000157477 -3.14953e-005 -0.000157477 -1.96846e-005 -0.000161414 -1.18108e-005 -0.000161414 -3.93692e-006 -0.000165351 3.93692e-006 -0.000165351 1.18108e-005 -0.000161414 1.96846e-005 -0.000161414 3.14953e-005 -0.000157477 3.54323e-005 -0.000157477 4.33061e-005 -0.000149603 5.11799e-005 -0.000149603 5.51169e-005 -0.000145666 6.69276e-005 -0.000141729 7.08645e-005 -0.000141729 7.48014e-005 -0.000133855 8.66122e-005 -0.000129918 8.66122e-005 -0.000125981 9.8423e-005 -0.000122044 9.8423e-005 -0.000114171 0.000106297 -0.000114171 0.000114171 -0.000106297 0.000114171 -9.8423e-005 0.000122044 -9.8423e-005 0.000125981 -8.66122e-005 0.000129918 -8.66122e-005 0.000133855 -7.48014e-005 0.000141729 -7.08645e-005 0.000141729 -6.69276e-005 0.000145666 -5.51169e-005 0.000149603 -5.11799e-005 0.000149603 -4.33061e-005 0.000157477 -3.54323e-005 0.000157477 -3.14953e-005 0.000161414 -1.96846e-005 0.000161414 -1.18108e-005 0.000165351 -3.93692e-006zm0.0785651 0.00642505l-0.0785651 0 0 -0.00642505 0.0785651 0 0 0.00642505zm0 0l0 -0.00642505 0.000165351 3.93692e-006 0.000161414 1.18108e-005 0.000161414 1.96846e-005 0.000157477 3.14953e-005 0.000157477 3.54323e-005 0.000149603 4.33061e-005 0.000149603 5.11799e-005 0.000145666 5.51169e-005 0.000141729 6.69276e-005 0.000141729 7.08645e-005 0.000133855 7.48014e-005 0.000129918 8.66122e-005 0.000125981 8.66122e-005 0.000122044 9.8423e-005 0.000114171 9.8423e-005 0.000114171 0.000106297 0.000106297 0.000114171 9.8423e-005 0.000114171 9.8423e-005 0.000122044 8.66122e-005 0.000125981 8.66122e-005 0.000129918 7.48014e-005 0.000133855 7.08645e-005 0.000141729 6.69276e-005 0.000141729 5.51169e-005 0.000145666 5.11799e-005 0.000149603 4.33061e-005 0.000149603 3.54323e-005 0.000157477 3.14953e-005 0.000157477 1.96846e-005 0.000161414 1.18108e-005 0.000161414 3.93692e-006 0.000165351 -3.93692e-006 0.000165351 -1.18108e-005 0.000161414 -1.96846e-005 0.000161414 -3.14953e-005 0.000157477 -3.54323e-005 0.000157477 -4.33061e-005 0.000149603 -5.11799e-005 0.000149603 -5.51169e-005 0.000145666 -6.69276e-005 0.000141729 -7.08645e-005 0.000141729 -7.48014e-005 0.000133855 -8.66122e-005 0.000129918 -8.66122e-005 0.000125981 -9.8423e-005 0.000122044 -9.8423e-005 0.000114171 -0.000106297 0.000114171 -0.000114171 0.000106297 -0.000114171 9.8423e-005 -0.000122044 9.8423e-005 -0.000125981 8.66122e-005 -0.000129918 8.66122e-005 -0.000133855 7.48014e-005 -0.000141729 7.08645e-005 -0.000141729 6.69276e-005 -0.000145666 5.51169e-005 -0.000149603 5.11799e-005 -0.000149603 4.33061e-005 -0.000157477 3.54323e-005 -0.000157477 3.14953e-005 -0.000161414 1.96846e-005 -0.000161414 1.18108e-005 -0.000165351 3.93692e-006z"/>
   </g>
  </g>
 </g>
</svg>
