<?xml version="1.0" encoding="UTF-8"?>
<!DOCTYPE svg PUBLIC "-//W3C//DTD SVG 1.1//EN" "http://www.w3.org/Graphics/SVG/1.1/DTD/svg11.dtd">
<!-- Creator: CorelDRAW X5 -->
<svg xmlns="http://www.w3.org/2000/svg" xml:space="preserve" width="0.177307in" height="0.165969in" style="shape-rendering:geometricPrecision; text-rendering:geometricPrecision; image-rendering:optimizeQuality; fill-rule:evenodd; clip-rule:evenodd"
viewBox="0 0 0.177307 0.165969"
 xmlns:xlink="http://www.w3.org/1999/xlink">
 <defs>
  <style type="text/css">
   <![CDATA[
    .fil0 {fill:#FEFEFE;fill-rule:nonzero}
   ]]>
  </style>
 </defs>
 <g id="Layer_x0020_1">
  <metadata id="CorelCorpID_0Corel-Layer"/>
  <g id="_272964296">
   <g>
    <path id="_272964344" class="fil0" d="M0.122319 0.16063l0 -0.0376732 0.0106772 0 0 0.0376732 -0.00850787 0.00429921 -0.00216929 -0.00429921zm0 0l0.0106772 0 -7.87402e-006 0.000275591 -1.9685e-005 0.000267717 -3.54331e-005 0.000267717 -4.72441e-005 0.00026378 -5.90551e-005 0.000259843 -7.08661e-005 0.000251969 -8.26772e-005 0.000248031 -9.84252e-005 0.000240157 -0.000106299 0.00023622 -0.00011811 0.000232283 -0.000129921 0.000224409 -0.000137795 0.000216535 -0.000149606 0.000208661 -0.00015748 0.000200787 -0.000169291 0.000192913 -0.000173228 0.000188976 -0.000188976 0.000173228 -0.000192913 0.000169291 -0.000200787 0.00015748 -0.000208661 0.000149606 -0.000216535 0.000137795 -0.000224409 0.000129921 -0.000232283 0.00011811 -0.00023622 0.000106299 -0.000240157 9.84252e-005 -0.000248031 8.26772e-005 -0.000251969 7.08661e-005 -0.000259843 5.90551e-005 -0.00026378 4.72441e-005 -0.000267717 3.54331e-005 -0.000267717 1.9685e-005 -0.000275591 7.87402e-006 -0.000275591 -7.87402e-006 -0.000267717 -1.9685e-005 -0.000267717 -3.54331e-005 -0.00026378 -4.72441e-005 -0.000259843 -5.90551e-005 -0.000251969 -7.08661e-005 -0.000248031 -8.26772e-005 -0.000240157 -9.84252e-005 -0.00023622 -0.000106299 -0.000232283 -0.00011811 -0.000224409 -0.000129921 -0.000216535 -0.000137795 -0.000208661 -0.000149606 -0.000200787 -0.00015748 -0.000192913 -0.000169291 -0.000185039 -0.000173228 -0.000177165 -0.000188976 -0.000169291 -0.000192913 -0.00015748 -0.000200787 -0.000149606 -0.000208661 -0.000137795 -0.000216535 -0.000129921 -0.000224409 -0.00011811 -0.000232283 -0.000106299 -0.00023622 -9.84252e-005 -0.000240157 -8.26772e-005 -0.000248031 -7.08661e-005 -0.000251969 -5.90551e-005 -0.000259843 -4.72441e-005 -0.00026378 -3.54331e-005 -0.000267717 -1.9685e-005 -0.000267717 -7.87402e-006 -0.000275591zm-0.0426063 -0.0419724l0.0511142 0.0376732 -0.00633858 0.00859843 -0.0511142 -0.0376732 0.00316929 -0.0096378 0.00316929 0.00103937zm0 0l-0.00633858 0.00859843 -0.000216535 -0.000169291 -0.000204724 -0.000177165 -0.00019685 -0.000185039 -0.000185039 -0.000192913 -0.000169291 -0.000200787 -0.000161417 -0.000208661 -0.000153543 -0.000216535 -0.000137795 -0.000220472 -0.000125984 -0.000224409 -0.000114173 -0.000232283 -0.000106299 -0.00023622 -9.05512e-005 -0.000240157 -7.87402e-005 -0.000244094 -7.08661e-005 -0.000248031 -5.51181e-005 -0.000251969 -4.33071e-005 -0.000251969 -3.14961e-005 -0.000251969 -1.9685e-005 -0.000255906 -7.87402e-006 -0.000259843 3.93701e-006 -0.000255906 1.5748e-005 -0.000255906 2.75591e-005 -0.000255906 4.33071e-005 -0.000255906 5.51181e-005 -0.000255906 6.69291e-005 -0.000251969 7.87402e-005 -0.000248031 9.05512e-005 -0.000248031 0.000106299 -0.000244094 0.00011811 -0.00023622 0.000129921 -0.00023622 0.000145669 -0.000232283 0.00015748 -0.000224409 0.000169291 -0.000216535 0.000177165 -0.000204724 0.000185039 -0.00019685 0.000192913 -0.000185039 0.000200787 -0.000169291 0.000208661 -0.000161417 0.000216535 -0.000153543 0.000220472 -0.000137795 0.000224409 -0.000125984 0.000232283 -0.000114173 0.00023622 -0.000106299 0.000240157 -9.05512e-005 0.000244094 -7.87402e-005 0.000248031 -7.08661e-005 0.000251969 -5.51181e-005 0.000251969 -4.33071e-005 0.000251969 -3.14961e-005 0.000255906 -1.9685e-005 0.000259843 -7.87402e-006 0.000255906 3.93701e-006 0.000255906 1.5748e-005 0.000255906 2.75591e-005 0.000255906 4.33071e-005 0.000255906 5.51181e-005 0.000251969 6.69291e-005 0.000248031 7.87402e-005 0.000248031 9.05512e-005 0.000244094 0.000106299 0.00023622 0.00011811 0.00023622 0.000129921 0.000232283 0.000145669 0.000224409 0.00015748zm-0.0642126 -0.00103937l0.0610433 0 0 0.0106772 -0.0610433 0 0 0 0 -0.0106772zm-0.0155 -0.0048189l0.0106772 0 0 0 7.87402e-006 0.000255906 1.5748e-005 0.000228346 3.14961e-005 0.000232283 4.33071e-005 0.000240157 5.51181e-005 0.00023622 6.69291e-005 0.000240157 7.08661e-005 0.000212598 8.26772e-005 0.00019685 0.000102362 0.000224409 0.000110236 0.000212598 0.00011811 0.000208661 0.000114173 0.000181102 0.000145669 0.00019685 0.000137795 0.000185039 0.000153543 0.000169291 0.000177165 0.000188976 0.000153543 0.000149606 0.000177165 0.000149606 0.000192913 0.000149606 0.000185039 0.000133858 0.000192913 0.000122047 0.000224409 0.000129921 0.00019685 0.000102362 0.000208661 9.44882e-005 0.000232283 9.44882e-005 0.000192913 6.69291e-005 0.000220472 5.90551e-005 0.000255906 5.90551e-005 0.000240157 4.33071e-005 0.000232283 3.14961e-005 0.000228346 1.5748e-005 0.000255906 7.87402e-006 0 0.0106772 -0.000783465 -1.5748e-005 -0.00080315 -6.29921e-005 -0.000783465 -0.000102362 -0.000751969 -0.000137795 -0.000728346 -0.000169291 -0.000740157 -0.000208661 -0.000751969 -0.000255906 -0.000688976 -0.000275591 -0.000688976 -0.000307087 -0.000677165 -0.000354331 -0.000625984 -0.000358268 -0.000633858 -0.000405512 -0.000610236 -0.000433071 -0.00057874 -0.000456693 -0.000562992 -0.000488189 -0.000555118 -0.000527559 -0.000492126 -0.000519685 -0.000492126 -0.000562992 -0.00046063 -0.000586614 -0.000429134 -0.000598425 -0.000413386 -0.000645669 -0.000370079 -0.000641732 -0.000338583 -0.000661417 -0.000307087 -0.000673228 -0.000287402 -0.000724409 -0.000244094 -0.000732283 -0.000208661 -0.000720472 -0.000173228 -0.000748031 -0.000137795 -0.000751969 -0.000102362 -0.000783465 -6.29921e-005 -0.00080315 -1.5748e-005 -0.000783465 0 0zm0.0106772 -0.0973031l0 0.0973031 -0.0106772 0 0 -0.0973031 0 0 0.0106772 0zm0.00482283 -0.0154961l0 0.0106772 0 0 -0.000255906 7.87402e-006 -0.000228346 1.5748e-005 -0.000232283 3.14961e-005 -0.000240157 4.33071e-005 -0.000255906 5.90551e-005 -0.000220472 5.90551e-005 -0.000192913 6.69291e-005 -0.000232283 9.44882e-005 -0.000208661 9.44882e-005 -0.00019685 0.000102362 -0.000224409 0.000129921 -0.000192913 0.000122047 -0.000185039 0.000133858 -0.000192913 0.000149606 -0.000177165 0.000149606 -0.000153543 0.000149606 -0.000177165 0.000188976 -0.000153543 0.000169291 -0.000137795 0.000185039 -0.000145669 0.00019685 -0.000114173 0.000181102 -0.00011811 0.000208661 -0.000110236 0.000212598 -0.000102362 0.000224409 -8.26772e-005 0.00019685 -7.08661e-005 0.000212598 -6.69291e-005 0.000240157 -5.51181e-005 0.00023622 -4.33071e-005 0.000240157 -3.14961e-005 0.000232283 -1.5748e-005 0.000228346 -7.87402e-006 0.000255906 -0.0106772 0 1.5748e-005 -0.000783465 6.29921e-005 -0.00080315 0.000102362 -0.000783465 0.000137795 -0.000751969 0.000173228 -0.000748031 0.000208661 -0.000720472 0.000244094 -0.000732283 0.000287402 -0.000724409 0.000307087 -0.000673228 0.000338583 -0.000661417 0.000370079 -0.000641732 0.000413386 -0.000645669 0.000429134 -0.000598425 0.00046063 -0.000586614 0.000492126 -0.000562992 0.000492126 -0.000519685 0.000555118 -0.000527559 0.000562992 -0.000488189 0.00057874 -0.000456693 0.000610236 -0.000433071 0.000633858 -0.000405512 0.000625984 -0.000358268 0.000677165 -0.000354331 0.000688976 -0.000307087 0.000688976 -0.000275591 0.000751969 -0.000255906 0.000740157 -0.000208661 0.000728346 -0.000169291 0.000751969 -0.000137795 0.000783465 -0.000102362 0.00080315 -6.29921e-005 0.000783465 -1.5748e-005 0 0zm0.146307 0.0106772l-0.146307 0 0 -0.0106772 0.146307 0 0 0 0 0.0106772zm0.0155 0.0048189l-0.0106772 0 0 0 -7.87402e-006 -0.000255906 -1.5748e-005 -0.000228346 -3.14961e-005 -0.000232283 -4.33071e-005 -0.000240157 -5.51181e-005 -0.00023622 -6.69291e-005 -0.000240157 -7.08661e-005 -0.000212598 -8.26772e-005 -0.00019685 -0.000102362 -0.000224409 -0.000110236 -0.000212598 -0.00011811 -0.000208661 -0.000114173 -0.000181102 -0.000145669 -0.00019685 -0.000137795 -0.000185039 -0.000153543 -0.000169291 -0.000177165 -0.000188976 -0.000153543 -0.000149606 -0.000177165 -0.000149606 -0.000192913 -0.000149606 -0.000185039 -0.000133858 -0.000192913 -0.000122047 -0.000224409 -0.000129921 -0.00019685 -0.000102362 -0.000208661 -9.44882e-005 -0.000232283 -9.44882e-005 -0.000192913 -6.69291e-005 -0.000220472 -5.90551e-005 -0.000255906 -5.90551e-005 -0.000240157 -4.33071e-005 -0.000232283 -3.14961e-005 -0.000228346 -1.5748e-005 -0.000255906 -7.87402e-006 0 -0.0106772 0.000783465 1.5748e-005 0.00080315 6.29921e-005 0.000783465 0.000102362 0.000751969 0.000137795 0.000728346 0.000169291 0.000740157 0.000208661 0.000751969 0.000255906 0.000688976 0.000275591 0.000688976 0.000307087 0.000677165 0.000354331 0.000625984 0.000358268 0.000633858 0.000405512 0.000610236 0.000433071 0.00057874 0.000456693 0.000562992 0.000488189 0.000555118 0.000527559 0.000492126 0.000519685 0.000492126 0.000562992 0.00046063 0.000586614 0.000429134 0.000598425 0.000413386 0.000645669 0.000370079 0.000641732 0.000338583 0.000661417 0.000307087 0.000673228 0.000287402 0.000724409 0.000244094 0.000732283 0.000208661 0.000720472 0.000173228 0.000748031 0.000137795 0.000751969 0.000102362 0.000783465 6.29921e-005 0.00080315 1.5748e-005 0.000783465 0 0zm-0.0106772 0.0973031l0 -0.0973031 0.0106772 0 0 0.0973031 0 0 -0.0106772 0zm-0.00482283 0.0154961l0 -0.0106772 0 0 0.000255906 -7.87402e-006 0.000228346 -1.5748e-005 0.000232283 -3.14961e-005 0.000240157 -4.33071e-005 0.000255906 -5.90551e-005 0.000220472 -5.90551e-005 0.000192913 -6.69291e-005 0.000232283 -9.44882e-005 0.000208661 -9.44882e-005 0.00019685 -0.000102362 0.000224409 -0.000129921 0.000192913 -0.000122047 0.000185039 -0.000133858 0.000192913 -0.000149606 0.000177165 -0.000149606 0.000153543 -0.000149606 0.000177165 -0.000188976 0.000153543 -0.000169291 0.000137795 -0.000185039 0.000145669 -0.00019685 0.000114173 -0.000181102 0.00011811 -0.000208661 0.000110236 -0.000212598 0.000102362 -0.000224409 8.26772e-005 -0.00019685 7.08661e-005 -0.000212598 6.69291e-005 -0.000240157 5.51181e-005 -0.00023622 4.33071e-005 -0.000240157 3.14961e-005 -0.000232283 1.5748e-005 -0.000228346 7.87402e-006 -0.000255906 0.0106772 0 -1.5748e-005 0.000783465 -6.29921e-005 0.00080315 -0.000102362 0.000783465 -0.000137795 0.000751969 -0.000173228 0.000748031 -0.000208661 0.000720472 -0.000244094 0.000732283 -0.000287402 0.000724409 -0.000307087 0.000673228 -0.000338583 0.000661417 -0.000370079 0.000641732 -0.000413386 0.000645669 -0.000429134 0.000598425 -0.00046063 0.000586614 -0.000492126 0.000562992 -0.000492126 0.000519685 -0.000555118 0.000527559 -0.000562992 0.000488189 -0.00057874 0.000456693 -0.000610236 0.000433071 -0.000633858 0.000405512 -0.000625984 0.000358268 -0.000677165 0.000354331 -0.000688976 0.000307087 -0.000688976 0.000275591 -0.000751969 0.000255906 -0.000740157 0.000208661 -0.000728346 0.000169291 -0.000751969 0.000137795 -0.000783465 0.000102362 -0.00080315 6.29921e-005 -0.000783465 1.5748e-005 0 0zm-0.0341496 -0.0106772l0.0341496 0 0 0.0106772 -0.0341496 0 -0.00533858 -0.00533858 0.00533858 -0.00533858zm0 0l0 0.0106772 -0.000275591 -7.87402e-006 -0.000267717 -1.9685e-005 -0.000267717 -3.54331e-005 -0.00026378 -4.72441e-005 -0.000259843 -5.90551e-005 -0.000251969 -7.08661e-005 -0.000248031 -8.26772e-005 -0.000240157 -9.84252e-005 -0.00023622 -0.000106299 -0.000232283 -0.00011811 -0.000224409 -0.000129921 -0.000216535 -0.000137795 -0.000208661 -0.000149606 -0.000200787 -0.00015748 -0.000192913 -0.000169291 -0.000185039 -0.000173228 -0.000177165 -0.000188976 -0.000169291 -0.000192913 -0.00015748 -0.000200787 -0.000149606 -0.000208661 -0.000137795 -0.000216535 -0.000129921 -0.000224409 -0.00011811 -0.000232283 -0.000106299 -0.00023622 -9.84252e-005 -0.000240157 -8.26772e-005 -0.000248031 -7.08661e-005 -0.000251969 -5.90551e-005 -0.000259843 -4.72441e-005 -0.00026378 -3.54331e-005 -0.000267717 -1.9685e-005 -0.000267717 -7.87402e-006 -0.000275591 7.87402e-006 -0.000275591 1.9685e-005 -0.000267717 3.54331e-005 -0.000267717 4.72441e-005 -0.00026378 5.90551e-005 -0.000259843 7.08661e-005 -0.000251969 8.26772e-005 -0.000248031 9.84252e-005 -0.000240157 0.000106299 -0.00023622 0.00011811 -0.000232283 0.000129921 -0.000224409 0.000137795 -0.000216535 0.000149606 -0.000208661 0.00015748 -0.000200787 0.000169291 -0.000192913 0.000177165 -0.000185039 0.000185039 -0.000177165 0.000192913 -0.000169291 0.000200787 -0.00015748 0.000208661 -0.000149606 0.000216535 -0.000137795 0.000224409 -0.000129921 0.000232283 -0.00011811 0.00023622 -0.000106299 0.000240157 -9.84252e-005 0.000248031 -8.26772e-005 0.000251969 -7.08661e-005 0.000259843 -5.90551e-005 0.00026378 -4.72441e-005 0.000267717 -3.54331e-005 0.000267717 -1.9685e-005 0.000275591 -7.87402e-006z"/>
   </g>
   <polygon class="fil0" points="0.042874,0.0478425 0.134827,0.0478425 0.134827,0.0582126 0.042874,0.0582126 "/>
   <polygon class="fil0" points="0.042874,0.0733504 0.0978661,0.0733504 0.0978661,0.0837205 0.042874,0.0837205 "/>
  </g>
 </g>
</svg>
