<?xml version="1.0" encoding="UTF-8"?>
<!DOCTYPE svg PUBLIC "-//W3C//DTD SVG 1.1//EN" "http://www.w3.org/Graphics/SVG/1.1/DTD/svg11.dtd">
<!-- Creator: CorelDRAW X5 -->
<svg xmlns="http://www.w3.org/2000/svg" xml:space="preserve" width="0.166669in" height="0.137854in" style="shape-rendering:geometricPrecision; text-rendering:geometricPrecision; image-rendering:optimizeQuality; fill-rule:evenodd; clip-rule:evenodd"
viewBox="0 0 0.166669 0.137854"
 xmlns:xlink="http://www.w3.org/1999/xlink">
 <defs>
  <style type="text/css">
   <![CDATA[
    .fil0 {fill:#0A63C5}
   ]]>
  </style>
 </defs>
 <g id="Layer_x0020_1">
  <metadata id="CorelCorpID_0Corel-Layer"/>
  <g id="_270586632">
   <g>
    <path id="_270587352" class="fil0" d="M0.120087 0.0539882c0.000527559,0.000814961 0.00141339,0.00125984 0.00231496,0.00125984 0.000515748,0 0.0010315,-0.000141732 0.00149606,-0.000440945 0.00127559,-0.000826772 0.00164173,-0.0025315 0.000814961,-0.00381102 -8.26772e-005,-0.000129921 -0.00856693,-0.0135906 -0.00137008,-0.0227717 0.00398031,-0.00507087 0.00467717,-0.0114606 0.00201181,-0.0184764 -0.00190157,-0.00501181 -0.00487795,-0.0086063 -0.00500394,-0.00875591 -0.000976378,-0.00116929 -0.00271654,-0.00132283 -0.00388189,-0.000346457 -0.00116929,0.000976378 -0.00132283,0.0027126 -0.000350394,0.00387795 0.000133858,0.000165354 0.00957874,0.0117717 0.00288583,0.0202992 -0.00962992,0.0122835 0.000637795,0.0284843 0.00108268,0.0291654z"/>
    <path id="_269440480" class="fil0" d="M0.138583 0.0539882c0.000527559,0.000814961 0.00141339,0.00125984 0.0023189,0.00125984 0.000511811,0 0.0010315,-0.000141732 0.00149213,-0.000440945 0.00127953,-0.000826772 0.00164567,-0.0025315 0.000818898,-0.00381102 -8.26772e-005,-0.000129921 -0.00857087,-0.0135906 -0.00137008,-0.0227717 0.00398031,-0.00507087 0.00467323,-0.0114606 0.00201181,-0.0184764 -0.00190157,-0.00501181 -0.00488189,-0.0086063 -0.00500787,-0.00875591 -0.000972441,-0.00116929 -0.0027126,-0.00132283 -0.00388189,-0.000346457 -0.00116535,0.000976378 -0.00132283,0.0027126 -0.000350394,0.00387795 9.84252e-005,0.00011811 0.00959449,0.011752 0.00288976,0.0202992 -0.00963386,0.0122835 0.000637795,0.0284843 0.00107874,0.0291654z"/>
    <path id="_272964800" class="fil0" d="M0.0228543 0.0552677c0.000527559,0.000814961 0.00141339,0.00125984 0.00231496,0.00125984 0.000515748,0 0.0010315,-0.000145669 0.00149606,-0.000440945 0.00127559,-0.000826772 0.00164173,-0.00253543 0.000814961,-0.00381102 -8.26772e-005,-0.000133858 -0.00857087,-0.0135945 -0.00137008,-0.0227717 0.00398031,-0.0050748 0.00467717,-0.0114646 0.00201181,-0.0184803 -0.00190157,-0.00501181 -0.00488189,-0.00860236 -0.00500394,-0.00875197 -0.000976378,-0.00116929 -0.00271654,-0.00132283 -0.00388583,-0.000346457 -0.00116535,0.000972441 -0.0013189,0.00270866 -0.000346457,0.00387795 9.44882e-005,0.000114173 0.00959055,0.011752 0.00288976,0.0202992 -0.0096378,0.0122795 0.000633858,0.0284803 0.00107874,0.0291654z"/>
    <path id="_272967560" class="fil0" d="M0.0413504 0.0552677c0.000527559,0.000814961 0.00141339,0.00125984 0.0023189,0.00125984 0.000511811,0 0.0010315,-0.000145669 0.00149213,-0.000440945 0.00127953,-0.000826772 0.00164567,-0.00253543 0.000818898,-0.00381102 -8.26772e-005,-0.000133858 -0.00857087,-0.0135945 -0.00137008,-0.0227717 0.00398031,-0.0050748 0.00467323,-0.0114646 0.00201181,-0.0184803 -0.00190157,-0.00501181 -0.00487795,-0.00860236 -0.00500394,-0.00875197 -0.000976378,-0.00116929 -0.00271654,-0.00132283 -0.00388189,-0.000346457 -0.00116929,0.000972441 -0.00132283,0.00270866 -0.000350394,0.00387795 9.84252e-005,0.000114173 0.00959055,0.011752 0.00288976,0.0202992 -0.0096378,0.0122795 0.000633858,0.0284803 0.0010748,0.0291654z"/>
    <path id="_272966912" class="fil0" d="M0.15752 0.116106l-0.00584646 0c-0.00137402,-0.0343858 -0.0282992,-0.0623031 -0.0622638,-0.065252l0 -0.00280709c0.00344882,-0.00205906 0.00559055,-0.00575984 0.00559055,-0.00987008 0,-0.0063622 -0.00517717,-0.0115394 -0.0115394,-0.0115394 -4.33071e-005,0 -0.000208661,0 -0.000251969,0 -0.0063622,0 -0.0115394,0.00517717 -0.0115394,0.0115394 0,0.00411024 0.00214173,0.00781102 0.00559055,0.00987008l0 0.00280709c-0.0339646,0.00294882 -0.0608898,0.0308661 -0.0622638,0.065252l-0.00584252 0c-0.00504724,0 -0.00915354,0.00410236 -0.00915354,0.00914567l0 0.00344882c0,0.00504724 0.0041063,0.00915354 0.00914961,0.00915354l0.14837 0c0.00504331,0 0.00914961,-0.0041063 0.00914961,-0.00915354l0 -0.00344882c-3.93701e-006,-0.00504331 -0.0041063,-0.00914567 -0.00914961,-0.00914567zm-0.0803386 -0.0779291c0,-0.00332283 0.00270472,-0.00602756 0.00602756,-0.00602756 4.33071e-005,0 0.000208661,0 0.000248031,0 0.00332677,0 0.0060315,0.00270472 0.0060315,0.00602756 0,0.00248425 -0.00150787,0.00468504 -0.00384252,0.00559843 -0.00105512,0.000413386 -0.00174803,0.00143307 -0.00174803,0.00256693l0 0.00425591 -0.00112992 0 0 -0.00425591c0,-0.00113386 -0.000692913,-0.00214961 -0.00174803,-0.00256693 -0.00233071,-0.000913386 -0.00383858,-0.00311417 -0.00383858,-0.00559843zm0.0839724 0.0905236c0,0.00200787 -0.00162992,0.00364173 -0.0036378,0.00364173l-0.148366 0c-0.00200394,0 -0.0036378,-0.00163386 -0.0036378,-0.00364173l0 -0.00344882c0,-0.00200394 0.00163386,-0.00363386 0.0036378,-0.00363386l0.0045315 0c2.3622e-005,0 5.11811e-005,3.93701e-006 7.48031e-005,3.93701e-006l0.0989764 0c0.00152362,0 0.00275591,-0.00123622 0.00275591,-0.00275591 0,-0.00152362 -0.00123228,-0.00275591 -0.00275591,-0.00275591l-0.0922165 0c0.00144488,-0.033248 0.028874,-0.0598661 0.062437,-0.06l0.000759843 0c0.0335669,0.000133858 0.0609961,0.026752 0.062437,0.06l-0.0155906 0c-0.00152362,0 -0.00275591,0.00123228 -0.00275591,0.00275591 0,0.00151969 0.00123228,0.00275591 0.00275591,0.00275591l0.0212835 -3.93701e-006 0.00567323 0c0.00200787,0 0.0036378,0.00162992 0.0036378,0.00363386l0 0.00344882 0 0z"/>
   </g>
  </g>
 </g>
</svg>
