<?xml version="1.0" encoding="utf-8"?>
<!-- Generator: Adobe Illustrator 16.0.0, SVG Export Plug-In . SVG Version: 6.00 Build 0)  -->
<!DOCTYPE svg PUBLIC "-//W3C//DTD SVG 1.1//EN" "http://www.w3.org/Graphics/SVG/1.1/DTD/svg11.dtd">
<svg version="1.1" id="Capa_1" xmlns="http://www.w3.org/2000/svg" xmlns:xlink="http://www.w3.org/1999/xlink" x="0px" y="0px"
	 width="500px" height="500px" viewBox="0 0 500 500" enable-background="new 0 0 500 500" xml:space="preserve">
<g>
	<path fill="#0A63C5" d="M496.209,169.374L212.958,34.061c-3.292-1.592-7.271-0.216-8.822,3.062l-61.646,129.026h33.588
		l45.244-94.804L466.896,188.65l-76.795,160.727l-43.233-20.639v84.97l26.587,12.693c3.318,1.605,7.244,0.162,8.822-3.13
		l117.062-245.116C500.931,174.891,499.527,170.938,496.209,169.374z"/>
	<path fill="#0A63C5" d="M320.563,181.73H6.637c-3.628,0-6.637,2.954-6.637,6.583v271.664c0,3.643,3.008,6.623,6.637,6.623H320.55
		c3.655,0,6.637-2.98,6.637-6.623V188.313C327.2,184.684,324.219,181.73,320.563,181.73z M302.434,389.926h-19.896
		c-11.588-29.717-25.846-71.318-47.497-65.761c-25.374,6.476-38.04,65.761-38.04,65.761s-12.99-66.895-48.792-102.709
		c-35.814-35.814-70.509,102.709-70.509,102.709H30.297V211.771h272.136V389.926z"/>
	<circle fill="#0A63C5" cx="74.219" cy="250" r="22.203"/>
	<path fill="#0A63C5" d="M223.183,265.675c4.978,0,9.645-0.526,13.8-1.349c4.842,2.05,10.751,3.305,17.105,3.305
		c16.389,0,29.636-8,29.636-17.874c0-9.848-13.247-17.847-29.636-17.847c-6.138,0-11.831,1.12-16.552,3.076
		c-1.956-1.902-4.559-3.076-7.459-3.076h-4.29c-5.504,0-9.834,4.168-10.455,9.47c-13.247,1.389-23.107,6.191-23.107,11.911
		C192.225,260.131,206.078,265.675,223.183,265.675z"/>
</g>
</svg>
