<?xml version="1.0" encoding="UTF-8"?>
<!DOCTYPE svg PUBLIC "-//W3C//DTD SVG 1.1//EN" "http://www.w3.org/Graphics/SVG/1.1/DTD/svg11.dtd">
<!-- Creator: CorelDRAW X5 -->
<svg xmlns="http://www.w3.org/2000/svg" xml:space="preserve" width="0.166669in" height="0.131913in" style="shape-rendering:geometricPrecision; text-rendering:geometricPrecision; image-rendering:optimizeQuality; fill-rule:evenodd; clip-rule:evenodd"
viewBox="0 0 0.174752 0.13831"
 xmlns:xlink="http://www.w3.org/1999/xlink">
 <defs>
  <style type="text/css">
   <![CDATA[
    .fil0 {fill:#0A63C5}
   ]]>
  </style>
 </defs>
 <g id="Layer_x0020_1">
  <metadata id="CorelCorpID_0Corel-Layer"/>
  <path class="fil0" d="M0.174752 0.0469758c0,0.0049659 -0.00081733,0.00986988 -0.0023942,0.014584 -0.00742615,0.0335848 -0.0716072,0.0742119 -0.0743399,0.0759415 -0.000854481,0.000528375 -0.00181216,0.000804946 -0.00278635,0.000804946 -0.000974191,0 -0.00194425,-0.000243548 -0.00279874,-0.000804946 -0.000734771,-0.00047884 -0.0188151,-0.0118884 -0.0371514,-0.0275746 -0.00219606,-0.00189472 -0.00242722,-0.00515991 -0.000582038,-0.00734359 0.00188646,-0.00216716 0.00514753,-0.00243135 0.00734359,-0.000590294 0.0136676,0.0116779 0.0274796,0.0211144 0.0332133,0.0249203 0.0192774,-0.0125695 0.0618323,-0.0445445 0.06705,-0.0681274 0.00136222,-0.00416508 0.00197728,-0.00795452 0.00197728,-0.0118018 0,-0.0133869 -0.00728992,-0.0257294 -0.0190256,-0.0321937 -0.0149885,-0.00831778 -0.0350503,-0.00448293 -0.0460182,0.00873883 -0.00196902,0.00238594 -0.00602265,0.00238594 -0.00802882,0 -0.0110009,-0.01323 -0.0310503,-0.017036 -0.046014,-0.00875534 -0.011777,0.00648085 -0.0190669,0.0188151 -0.0190669,0.0321896 0,0.00382246 0.000648085,0.00762429 0.00185344,0.0113023 0.000771923,0.00343857 0.00225385,0.00680283 0.00413619,0.0102909l0.0304063 0 0.0104395 -0.0239957c0.000895761,-0.00205571 0.0030299,-0.00334775 0.00523009,-0.00311659 0.00223734,0.000194013 0.00410316,0.00180391 0.00460264,0.00399171l0.00768621 0.0324992 0.00994418 -0.0163053c0.00093704,-0.00154797 0.00262124,-0.0024974 0.00444165,-0.0024974l0.0188688 0c0.00287304,0 0.00520945,0.00232815 0.00520945,0.00521358 0,0.00286891 -0.00233641,0.00520945 -0.00520945,0.00520945l-0.0159462 0 -0.0149761 0.0246025c-0.00095768,0.00156861 -0.00264188,0.00250565 -0.00442927,0.00250565 -0.000284827,0 -0.000561398,-2.06396e-005 -0.00081733,-6.19189e-005 -0.00209699,-0.000334362 -0.00374816,-0.00188234 -0.00425177,-0.00393392l-0.00702574 -0.0296055 -0.00555207 0.0127801c-0.000829714,0.00191949 -0.00270792,0.00312897 -0.00478014,0.00312897l-0.0607507 0c-0.00284827,0 -0.00520532,-0.00233228 -0.00520532,-0.00520945 0,-0.00286891 0.00235705,-0.00520532 0.00520532,-0.00520532l0.0152775 0c-0.00108565,-0.00258821 -0.00196077,-0.00509799 -0.00250565,-0.00752522 -0.00145303,-0.00421462 -0.00223734,-0.00912272 -0.00223734,-0.014068 0,-0.0171804 0.00934151,-0.0329987 0.0244373,-0.0413164 0.0174859,-0.00967174 0.040623,-0.00662946 0.0550748,0.00694731 0.0144106,-0.0135768 0.0375311,-0.016619 0.0550418,-0.00694731 0.0150793,0.00830952 0.0244539,0.024136 0.0244539,0.0413288z"/>
 </g>
</svg>
