<?xml version="1.0" encoding="UTF-8"?>
<!DOCTYPE svg PUBLIC "-//W3C//DTD SVG 1.1//EN" "http://www.w3.org/Graphics/SVG/1.1/DTD/svg11.dtd">
<!-- Creator: CorelDRAW X5 -->
<svg xmlns="http://www.w3.org/2000/svg" xml:space="preserve" width="0.333331in" height="0.333331in" style="shape-rendering:geometricPrecision; text-rendering:geometricPrecision; image-rendering:optimizeQuality; fill-rule:evenodd; clip-rule:evenodd"
viewBox="0 0 0.333331 0.333331"
 xmlns:xlink="http://www.w3.org/1999/xlink">
 <defs>
  <style type="text/css">
   <![CDATA[
    .fil0 {fill:#0A63C5}
   ]]>
  </style>
 </defs>
 <g id="Layer_x0020_1">
  <metadata id="CorelCorpID_0Corel-Layer"/>
  <g id="_287075088">
   <path id="_287075280" class="fil0" d="M0.166661 0c-0.0918976,0 -0.166661,0.0747677 -0.166661,0.166665 0,0.0918976 0.0747638,0.166665 0.166661,0.166665 0.0919055,0 0.166669,-0.0747677 0.166669,-0.166665 0,-0.0918976 -0.0747638,-0.166665 -0.166669,-0.166665zm0 0.311472c-0.0798425,0 -0.144803,-0.0649606 -0.144803,-0.144807 0,-0.0798465 0.0649606,-0.144807 0.144803,-0.144807 0.0798465,0 0.144811,0.0649606 0.144811,0.144807 0,0.0798465 -0.0649646,0.144807 -0.144811,0.144807z"/>
   <path id="_287075184" class="fil0" d="M0.166661 0.0761496c-0.029315,0 -0.0531575,0.0238504 -0.0531575,0.0531614 0,0.00603543 0.0048937,0.0109291 0.0109291,0.0109291 0.00603937,0 0.0109291,-0.0048937 0.0109291,-0.0109291 0,-0.0172598 0.0140433,-0.0313031 0.0312992,-0.0313031 0.0172638,0 0.0313071,0.0140433 0.0313071,0.0313031 0,0.0172598 -0.0140433,0.0313031 -0.0313071,0.0313031 -0.00603543,0 -0.0109252,0.00489764 -0.0109252,0.0109291l0 0.0380709c0,0.00603543 0.00488976,0.0109291 0.0109252,0.0109291 0.00603543,0 0.0109331,-0.0048937 0.0109331,-0.0109291l0 -0.0282795c0.0240827,-0.00505512 0.0422323,-0.0264567 0.0422323,-0.0520236 0,-0.029311 -0.0238465,-0.0531614 -0.0531654,-0.0531614z"/>
   <path id="_287075136" class="fil0" d="M0.166669 0.228114c-0.00757087,0 -0.0137205,0.00614173 -0.0137205,0.0137165 0,0.00757874 0.00614961,0.0137205 0.0137205,0.0137205 0.0075748,0 0.0137126,-0.00614173 0.0137126,-0.0137205 0,-0.0075748 -0.0061378,-0.0137165 -0.0137126,-0.0137165z"/>
  </g>
 </g>
</svg>
