<?xml version="1.0" encoding="utf-8"?>
<!-- Generator: Adobe Illustrator 16.0.0, SVG Export Plug-In . SVG Version: 6.00 Build 0)  -->
<!DOCTYPE svg PUBLIC "-//W3C//DTD SVG 1.1//EN" "http://www.w3.org/Graphics/SVG/1.1/DTD/svg11.dtd">
<svg version="1.1" id="Layer_1" xmlns="http://www.w3.org/2000/svg" xmlns:xlink="http://www.w3.org/1999/xlink" x="0px" y="0px"
	 width="500px" height="500px" viewBox="0 0 500 500" enable-background="new 0 0 500 500" xml:space="preserve">
<g>
	<path fill="#0A63C5" d="M251,105.5c-63.5,0-114.5,51.5-114.5,114.5S251,405.5,251,405.5s114.5-122,114.5-185.5
		S314.5,105.5,251,105.5z M251,390.5c-10.5-11.5-30-34-49.5-60.5c-36-48.5-55-86.5-55-110.5c0-57.5,47-104.5,104.5-104.5
		s104.5,47.5,104.5,105c0,23.5-19,62-55,110.5C281,356.5,261.5,379,251,390.5z"/>
	<path fill="#0A63C5" d="M251,160.5c-30,0-54,24-54,54s24,54,54,54s54-24,54-54C305,185,281,160.5,251,160.5z M282,246
		c-8,8-19,13-31,13s-23-5-31-13s-13-19-13-31s5-23,13-31s19-13,31-13s23,5,31,13s13,19,13,31S290,238,282,246z"/>
</g>
</svg>
