<?xml version="1.0" encoding="UTF-8"?>
<!DOCTYPE svg PUBLIC "-//W3C//DTD SVG 1.1//EN" "http://www.w3.org/Graphics/SVG/1.1/DTD/svg11.dtd">
<!-- Creator: CorelDRAW X5 -->
<svg xmlns="http://www.w3.org/2000/svg" xml:space="preserve" width="0.333335in" height="0.297134in" style="shape-rendering:geometricPrecision; text-rendering:geometricPrecision; image-rendering:optimizeQuality; fill-rule:evenodd; clip-rule:evenodd"
viewBox="0 0 0.333339 0.297137"
 xmlns:xlink="http://www.w3.org/1999/xlink">
 <defs>
  <style type="text/css">
   <![CDATA[
    .fil0 {fill:#0A63C5}
   ]]>
  </style>
 </defs>
 <g id="Layer_x0020_1">
  <metadata id="CorelCorpID_0Corel-Layer"/>
  <g id="_287074824">
   <path id="_287075016" class="fil0" d="M0.320606 0.0435556l-0.204148 -0.0432052c-0.0086379,-0.00183073 -0.017201,0.00374414 -0.0190278,0.012382l-0.003878 0.0249216 0.235558 0.049851 0.003878 -0.0249255c0.00182679,-0.00863396 -0.00374414,-0.0171971 -0.012382,-0.0190238z"/>
   <path id="_287074920" class="fil0" d="M0.234759 0.0927885c-0.00238585,-0.00858672 -0.0113584,-0.0136616 -0.0199451,-0.0112797l-0.0387524 0.010756 -0.0913672 -0.0193349 -0.0100474 0.0474769 -0.0627803 0.0174254c-0.00858278,0.00238192 -0.0136576,0.0113545 -0.0112797,0.0199412l0.0353823 0.127494c0.00238192,0.00858672 0.0113584,0.0136616 0.0199412,0.0112797l0.202947 -0.0563196c0.00858672,-0.00238585 0.0136616,-0.0113584 0.0112797,-0.0199451l-0.00607094 -0.0218861 0.0227601 0.00481108c0.0086379,0.00183073 0.0171971,-0.0037402 0.0190238,-0.0123781l0.0144017 -0.068052 -0.0819852 -0.0173467 -0.00350792 -0.0126419zm0.0234333 0.0648l0.00502368 -0.0237208c0.000751977,-0.00355122 0.0042717,-0.00584259 0.00782686,-0.00509455l0.0237208 0.00502368c0.00355516,0.000751977 0.00584259,0.0042717 0.00509455,0.00782686l-0.00501974 0.0237208c-0.000751977,0.00355122 -0.00427564,0.00584653 -0.00782686,0.00509455l-0.0237208 -0.00501974c-0.0035591,-0.000755914 -0.00585046,-0.00427958 -0.00509849,-0.0078308zm-0.242794 -0.00703552l0.0561621 -0.0155789 0.132517 -0.036776 0.01426 -0.00395674c0.000259846,-7.4804e-005 0.000523628,-0.0001063 0.0007756,-0.0001063 0.00114175,0 0.00251184,0.000751977 0.00290948,0.002189l0.00167325 0.00602763 0.00524809 0.0189018 -0.208711 0.057918 -0.0069174 -0.0249294c-0.000437013,-0.00156301 0.000519691,-0.00325201 0.0020827,-0.00368902zm0.242015 0.0732568c0.000263783,0.000968515 -1.57482e-005,0.00176774 -0.000299216,0.00227168 -0.000279531,0.000500006 -0.000818907,0.00115356 -0.00178742,0.00141734l-0.202943 0.0563196c-0.000255909,7.0867e-005 -0.000519691,0.000110238 -0.0007756,0.000110238 -0.00114175,0 -0.0025079,-0.000755914 -0.00290948,-0.00219294l-0.020638 -0.074367 0.208711 -0.0579219 0.0127285 0.0458667 0.00791348 0.0284964z"/>
   <path id="_287074872" class="fil0" d="M0.0851742 0.2289c-0.000972452,-0.00350004 -0.00462998,-0.00557093 -0.00813002,-0.00459848l-0.0237011 0.00657882c-0.00350004,0.000968515 -0.00557093,0.00462998 -0.00459848,0.00813002l0.00657882 0.0236971c0.000972452,0.00350398 0.00462998,0.00557093 0.00813002,0.00459848l0.0237011 -0.00657882c0.00350398,-0.000968515 0.00557093,-0.00462604 0.00459848,-0.00813002l-0.00657882 -0.0236971z"/>
  </g>
 </g>
</svg>
