<?xml version="1.0" encoding="UTF-8"?>
<!DOCTYPE svg PUBLIC "-//W3C//DTD SVG 1.1//EN" "http://www.w3.org/Graphics/SVG/1.1/DTD/svg11.dtd">
<!-- Creator: CorelDRAW X5 -->
<svg xmlns="http://www.w3.org/2000/svg" xml:space="preserve" width="0.333378in" height="0.333378in" style="shape-rendering:geometricPrecision; text-rendering:geometricPrecision; image-rendering:optimizeQuality; fill-rule:evenodd; clip-rule:evenodd"
viewBox="0 0 0.333378 0.333378"
 xmlns:xlink="http://www.w3.org/1999/xlink">
 <defs>
  <style type="text/css">
   <![CDATA[
    .fil0 {fill:#0A63C5}
   ]]>
  </style>
 </defs>
 <g id="Layer_x0020_1">
  <metadata id="CorelCorpID_0Corel-Layer"/>
  <g id="_287072304">
   <path id="_287072424" class="fil0" d="M0.0784016 0.141563c-0.000877953,-0.00181496 -0.0023189,-0.00328346 -0.00407874,-0.00440157 -0.00187008,-0.00114567 -0.00402756,-0.00194488 -0.0065315,-0.0023937 -0.0025315,-0.000456693 -0.00544094,-0.000669291 -0.00885433,-0.00069685l-0.0156496 0c-0.00162205,2.75591e-005 -0.00322835,0.00128346 -0.00359449,0.00285433l-0.0105354 0.0458819c-0.000374016,0.00154724 0.000637795,0.00285433 0.00226772,0.00285433l0.00748819 0c0.00162992,0 0.00325591,-0.00125591 0.00360236,-0.00285433l0.00258661 -0.0111417c0.00034252,-0.00155118 0.00194882,-0.00282677 0.00357087,-0.00282677l0.00216535 0c0.00916535,-2.75591e-005 0.0162559,-0.00189764 0.0213465,-0.00565354 0.00514567,-0.00375984 0.00766142,-0.00872047 0.00766142,-0.0148504 0,-0.00269685 -0.000433071,-0.00496063 -0.00144488,-0.00677165zm-0.0161614 0.0149843c-0.00226378,0.00167717 -0.00540945,0.00250394 -0.00948425,0.00250394l-0.0018189 0c-0.00162205,0 -0.0026378,-0.00127559 -0.00229134,-0.00285433l0.00226378 -0.00975197c0.000322835,-0.00154724 0.00194882,-0.00285433 0.00357874,-0.00285433l0.00244882 0c0.00288189,0 0.00506693,0.000480315 0.0065315,0.00146063 0.00144094,0.000937008 0.00215748,0.00246063 0.00215748,0.00445669 2.75591e-005,0.00303937 -0.0011378,0.00538583 -0.00338583,0.00703937zm0.103047 -0.00597244l-0.0298583 0.0505197c-0.000964567,0.0015748 -0.00309055,0.00282677 -0.00468898,0.00282677l-0.0077874 2.75591e-005c-0.00159843,0 -0.0021378,-0.00127953 -0.00114961,-0.00285433l0.00664173 -0.0115669c0,0 0.000535433,-0.000669291 5.11811e-005,-0.00445276 -0.00101181,-0.00682283 -0.00610236,-0.0358307 -0.00610236,-0.0358307 -0.000377953,-0.00157874 0.000614173,-0.00288189 0.00223622,-0.00288189l0.00671654 0c0.00205512,0 0.00370866,0.00135827 0.00408268,0.00293701l0.00333071 0.020126 0.00125591 2.75591e-005c0.00103937,-0.00187008 0.0117795,-0.0202913 0.0117795,-0.0202913 0.00101575,-0.00154724 0.00309843,-0.00285433 0.00472441,-0.00285433 0,0 0.00719685,2.75591e-005 0.00898031,0 0.00266929,-5.11811e-005 -0.000212598,0.00426772 -0.000212598,0.00426772zm0.0492441 -0.00882677c-0.000933071,-0.00183465 -0.0023189,-0.00330315 -0.0041063,-0.00444882 -0.00183858,-0.00111811 -0.004,-0.0019252 -0.0065315,-0.00237402 -0.00248031,-0.000452756 -0.00544094,-0.000692913 -0.00882677,-0.000692913l-0.0156772 0c-0.00162205,2.3622e-005 -0.00319291,0.00130709 -0.00357087,0.00284646l-0.0105315 0.0459173c-0.000374016,0.00154724 0.000669291,0.00285039 0.00226772,0.00285039l0.00749606 -2.75591e-005c0.00159449,2.75591e-005 0.00324803,-0.00127559 0.00359449,-0.00282283l0.00255906 -0.0111457c0.000377953,-0.00154331 0.00197244,-0.00285433 0.00359843,-0.00285433l0.00213386 0c0.00917323,0 0.0162953,-0.00188976 0.0214409,-0.00562598 0.00503543,-0.0037874 0.00759449,-0.00874409 0.00759449,-0.014878 -2.75591e-005,-0.00268898 -0.000484252,-0.00495276 -0.00144094,-0.00674409zm-0.0161535 0.0150079c-0.00226772,0.00163386 -0.00541339,0.00246063 -0.0094685,0.00246063l-0.0018622 0c-0.00160236,0 -0.00266929,-0.00131102 -0.00229134,-0.00285433l0.00226378 -0.00973228c0.00034252,-0.00155118 0.00197244,-0.00285433 0.00359843,-0.00285433l0.00242126 0c0.00288189,0 0.00504331,0.000476378 0.0065315,0.00144094 0.00144094,0.00096063 0.00216535,0.00247638 0.00219291,0.00447638 0,0.00303937 -0.00114567,0.00538583 -0.00338583,0.00706299zm-0.0838268 -0.00863386c-0.00282677,-0.00160236 -0.00730315,-0.00237402 -0.0133858,-0.00237402 -0.00303543,0 -0.00604724,0.000212598 -0.00909055,0.00069685 -0.00224016,0.00034252 -0.00244882,0.000397638 -0.00383465,0.000716535 -0.00285433,0.000614173 -0.00330315,0.0034685 -0.00330315,0.0034685l-0.000909449 0.00375984c-0.000503937,0.0023937 0.00088189,0.00231496 0.00144094,0.00210236 0.00124803,-0.000370079 0.00194488,-0.000744094 0.00447638,-0.00130315 0.00244882,-0.000562992 0.00501181,-0.000964567 0.00703937,-0.000937008 0.00298819,0 0.00527953,0.000295276 0.00682283,0.000964567 0.00149606,0.000633858 0.00224016,0.00175984 0.00224016,0.00338189l-0.000129921 0.00106693 -0.00106693 0.000669291c-0.00426378,0.00026378 -0.00733465,0.000661417 -0.0110709,0.00120079 -0.00364961,0.000503937 -0.00684252,0.00141339 -0.00948425,0.0026063 -0.00285433,0.00125591 -0.00499213,0.00296457 -0.00645276,0.00509449 -0.00143701,0.00216142 -0.00216142,0.00477559 -0.00216142,0.00783858 0,0.00290945 0.00103543,0.00527559 0.00306299,0.00712205 0.00202756,0.00180709 0.00469685,0.00268898 0.00789764,0.00268898 0.00201969,0 0.00359449,-0.00015748 0.00468898,-0.000425197l0.00364961 -0.00125591 0.00306693 -0.00170472 0.00283071 -0.0018622 2.3622e-005 5.11811e-005 -0.000267717 0.00119685 -2.75591e-005 5.11811e-005c-0.000287402,0.0014685 0.000586614,0.00266929 0.002,0.00279921l2.75591e-005 5.51181e-005 0.00698819 0 7.48031e-005 -5.51181e-005c0.00149606,-0.000181102 0.00290945,-0.00138189 0.00322835,-0.00279921l0.0054685 -0.0236732 0.000291339 -0.00192126 0.000129921 -0.00180709c2.75591e-005,-0.00333858 -0.00143307,-0.00581496 -0.00426378,-0.00741339zm-0.0120748 0.0266063l-0.00117323 0.00154724 -0.00296063 0.00151969c-0.00138583,0.000559055 -0.00269291,0.000850394 -0.00392126,0.000850394 -0.00183465,0 -0.00327559,-0.00026378 -0.00426378,-0.000822835l-0.00144094 -0.00280315c0,-0.00151969 0.000350394,-0.0027126 0.00109055,-0.00364961l0.00317717 -0.00215748c0.00135827,-0.000456693 0.00304331,-0.000850394 0.00496063,-0.00112598 0.00170472,-0.000208661 0.00509055,-0.000606299 0.00554331,-0.000606299l0.000507874 0.000901575c-0.000106299,0.000511811 -0.00106693,0.0045315 -0.00151969,0.00634646zm0.187189 -0.0432165l0.00250394 0 0 0.00103543 -0.00250394 0 0 0.00424803 0.000185039 0.00057874 0.000401575 0.000401575 0.000744094 0.000110236 0.000641732 -8.26772e-005 0.000476378 -0.00015748 5.51181e-005 0 0 0.00112205 -0.000744094 0.000129921 -0.000724409 5.51181e-005 -0.00170472 -0.00061811 -0.000586614 -0.00191732 0 -0.00387008 -0.000826772 0 0 -0.00103543 0.000826772 0 0 -0.00208268 0.00125591 0 0 0.00208268zm-0.0389528 0.0166378c-0.00285039,-0.0015748 -0.00731102,-0.00237402 -0.0133819,-0.00237402 -0.00301969,0 -0.00605512,0.000212598 -0.00906299,0.000716535 -0.00226772,0.000322835 -0.00248425,0.000401575 -0.00387402,0.00069685 -0.00285039,0.000614173 -0.00327559,0.0034685 -0.00327559,0.0034685l-0.000933071 0.00375984c-0.000503937,0.0023937 0.000854331,0.0022874 0.00149213,0.00210236 0.00122441,-0.000377953 0.00192126,-0.000716535 0.0044252,-0.00130315 0.00242913,-0.000562992 0.00501575,-0.000964567 0.00706299,-0.000964567 0.00296457,0 0.00525591,0.000350394 0.00679921,0.000992126 0.00151969,0.000633858 0.00226378,0.00177953 0.00226378,0.00338583l-0.000125984 0.00106299 -0.00106693 0.000669291c-0.00429528,0.00026378 -0.00738583,0.000661417 -0.011063,0.00119291 -0.00362992,0.000511811 -0.00685433,0.0013937 -0.00952362,0.00261417 -0.00285039,0.00125591 -0.00498031,0.00296063 -0.00644882,0.00509449 -0.00144094,0.00216142 -0.00216535,0.00477559 -0.00216535,0.00781102 0,0.00290945 0.00104724,0.00530315 0.0030748,0.00714961 0.00204724,0.00177953 0.00468504,0.00268898 0.00788976,0.00268898 0.00202756,0 0.00359449,-0.000129921 0.00471654,-0.000425197l0.00362205 -0.00122835 0.00310236 -0.00170472 0.00279528 -0.0018937 5.51181e-005 5.51181e-005 -0.000267717 0.00119291 -2.75591e-005 2.75591e-005 2.75591e-005 3.14961e-005c-0.000346457,0.00146457 0.000535433,0.00266535 0.00199606,0.00279528l0 2.75591e-005 0.00696063 0 0.000106299 -2.75591e-005c0.00146063,-0.000181102 0.00288189,-0.00138583 0.00319685,-0.00282677l0.00546457 -0.0236181 0.000295276 -0.00194882 0.000165354 -0.00180709c0,-0.00333858 -0.00144094,-0.00581496 -0.00429528,-0.00741339zm-0.0120512 0.0266063l-0.00122835 0.00157087 -0.00290157 0.00151969c-0.0013937,0.000535433 -0.00272441,0.000826772 -0.0039252,0.000826772 -0.00188976,0 -0.00330315,-0.000267717 -0.00426378,-0.000799213l-0.00146063 -0.00279921c0,-0.00154724 0.000366142,-0.00274409 0.00109055,-0.00367717 0.000716535,-0.00088189 0.00180709,-0.00162598 0.00319291,-0.00216142 0.00133858,-0.000452756 0.00301969,-0.000826772 0.00493701,-0.00109449 0.00170472,-0.00023622 0.00509055,-0.000614173 0.00551969,-0.000633858l0.000531496 0.000929134c-7.87402e-005,0.000503937 -0.00104331,0.00450394 -0.00149213,0.0063189zm0.0401811 -0.0372992l-0.0100276 0.0454803 -0.000377953 0.000562992c-0.000586614,0.00125591 -0.00183465,0.00229134 -0.00322047,0.00229134l-0.00696063 0 -0.000129921 -0.00015748c-0.00133858,-0.000188976 -0.00219291,-0.00125591 -0.00187008,-0.00266535l-2.75591e-005 -3.14961e-005 0.000295276 -0.00129921 0.00940945 -0.0426614 0.000318898 -0.00149213 0.000377953 -0.000586614c0.000614173,-0.00124803 0.0018622,-0.00226772 0.00322047,-0.00226772l0.00672441 0c0.00162205,-2.75591e-005 0.00258661,0.00125591 0.00226772,0.00282677zm0.0248976 -0.00541339l0.000559055 0.00202756 0 0.00474409 -0.00122047 0 0 -0.00415748 -8.66142e-005 -0.000905512 -0.000133858 -0.000688976 -0.000448819 -0.000433071 -0.000799213 -0.00015748 -0.00104724 0.000267717 -0.00100787 0.000661417 0 0.000350394 2.75591e-005 0.000401575 0 0.00466142 -0.00122835 0 0 -0.00418504 -5.51181e-005 -0.000877953 -0.000185039 -0.000720472 -0.000401575 -0.000401575 -0.000826772 -0.00015748 -0.00100787 0.000240157 -0.00101969 0.000641732 0 0.00543307 -0.00122047 0 0 -0.00727559 0.00122047 0 0 0.000795276 0.00114567 -0.000740157 0.00122835 -0.000267717 0.00125591 0.000322835 0.000771654 0.000850394 0.00135827 -0.000905512 0.00131102 -0.000267717 0.00181102 0.000744094z"/>
   <path id="_287072376" class="fil0" d="M0.166689 0c-0.0920709,0 -0.166689,0.0746181 -0.166689,0.166689 0,0.0920709 0.0746181,0.166689 0.166689,0.166689 0.0920709,0 0.166689,-0.0746181 0.166689,-0.166689 0,-0.0920709 -0.0746181,-0.166689 -0.166689,-0.166689zm0 0.317217c-0.0833425,0 -0.150528,-0.067626 -0.150528,-0.150528 0,-0.0829016 0.067185,-0.150528 0.150528,-0.150528 0.0833425,0 0.150528,0.067626 0.150528,0.150528 0,0.0829016 -0.067626,0.150528 -0.150528,0.150528z"/>
  </g>
 </g>
</svg>
