<?xml version="1.0" encoding="utf-8"?>
<!-- Generator: Adobe Illustrator 16.0.0, SVG Export Plug-In . SVG Version: 6.00 Build 0)  -->
<!DOCTYPE svg PUBLIC "-//W3C//DTD SVG 1.1//EN" "http://www.w3.org/Graphics/SVG/1.1/DTD/svg11.dtd">
<svg version="1.1" id="Layer_1" xmlns="http://www.w3.org/2000/svg" xmlns:xlink="http://www.w3.org/1999/xlink" x="0px" y="0px"
	 width="50px" height="50px" viewBox="0 0 50 50" enable-background="new 0 0 50 50" xml:space="preserve">
<path fill-rule="evenodd" clip-rule="evenodd" fill="#0A63C5" d="M17.857,24.675c0.007-3.831,3.024-6.827,6.851-6.802
	c3.725,0.023,6.713,3.07,6.711,6.842c-0.001,3.782-2.958,6.75-6.751,6.779C20.828,31.523,17.85,28.542,17.857,24.675z
	 M29.663,24.775c0.013-2.88-2.18-5.14-4.998-5.15c-2.815-0.011-5.118,2.258-5.142,5.066c-0.023,2.725,2.398,5.158,5.119,5.147
	C27.354,29.826,29.651,27.509,29.663,24.775z"/>
<g>
	<g>
		<path fill-rule="evenodd" clip-rule="evenodd" fill="#0A63C5" d="M23.56,1.052c0.96,0,1.92,0,2.879,0
			c0.368,0.107,0.729,0.278,1.103,0.313c9.741,0.916,18.219,8.237,20.521,17.768c0.354,1.462,0.594,2.951,0.886,4.428
			c0,0.96,0,1.92,0,2.879c-0.107,0.368-0.278,0.729-0.313,1.103c-0.915,9.741-8.237,18.219-17.768,20.521
			c-1.461,0.354-2.95,0.594-4.428,0.886c-0.959,0-1.919,0-2.879,0c-0.367-0.107-0.729-0.278-1.102-0.313
			C12.717,47.72,4.239,40.397,1.937,30.867c-0.353-1.461-0.593-2.95-0.885-4.428c0-0.959,0-1.919,0-2.879
			c0.107-0.367,0.278-0.729,0.313-1.103C2.281,12.717,9.603,4.239,19.133,1.938C20.595,1.585,22.083,1.345,23.56,1.052z
			 M8.004,38.464c1.364-2.356,3.561-3.643,5.983-4.589c5.48-2.14,11.13-2.829,16.896-1.522c4.254,0.964,8.502,2.086,11.139,6.077
			c3.703-3.531,6.509-12.271,3.807-20.315C42.873,9.313,34.471,3.115,25.267,3.066C15.725,3.018,7.319,9.024,4.222,17.982
			C1.458,25.979,4.195,34.778,8.004,38.464z M40.572,40.376c-0.493-1.975-1.782-3.083-3.355-3.816
			c-1.607-0.75-3.271-1.428-4.973-1.919c-6.264-1.814-12.413-1.279-18.323,1.378c-1.45,0.651-2.713,1.824-3.89,2.939
			c-0.764,0.723-0.631,1.558,0.319,2.367c5.321,4.531,11.408,6.398,18.306,5.282C33.29,45.856,37.287,43.751,40.572,40.376z"/>
		<path fill-rule="evenodd" clip-rule="evenodd" fill="#0A63C5" d="M25,0.794C11.631,0.794,0.794,11.632,0.794,25
			c0,13.369,10.837,24.206,24.206,24.206c13.37,0,24.207-10.837,24.207-24.206C49.206,11.632,38.369,0.794,25,0.794z M25,47.21
			C12.733,47.21,2.79,37.267,2.79,25S12.733,2.79,25,2.79c12.267,0,22.21,9.943,22.21,22.21S37.267,47.21,25,47.21z"/>
	</g>
</g>
</svg>
