<?xml version="1.0" encoding="UTF-8"?>
<!DOCTYPE svg PUBLIC "-//W3C//DTD SVG 1.1//EN" "http://www.w3.org/Graphics/SVG/1.1/DTD/svg11.dtd">
<!-- Creator: CorelDRAW X5 -->
<svg xmlns="http://www.w3.org/2000/svg" xml:space="preserve" width="0.333346in" height="0.326642in" style="shape-rendering:geometricPrecision; text-rendering:geometricPrecision; image-rendering:optimizeQuality; fill-rule:evenodd; clip-rule:evenodd"
viewBox="0 0 0.333346 0.326642"
 xmlns:xlink="http://www.w3.org/1999/xlink">
 <defs>
  <style type="text/css">
   <![CDATA[
    .fil0 {fill:#0A63C5}
   ]]>
  </style>
 </defs>
 <g id="Layer_x0020_1">
  <metadata id="CorelCorpID_0Corel-Layer"/>
  <path class="fil0" d="M0.184902 0.326638l-0.0350315 0c-0.0052874,0 -0.0071063,3.14961e-005 -0.0250669,-0.0444961l-0.0138937 -0.00562598c-0.0377913,0.0171339 -0.0422835,0.0171339 -0.0437677,0.0171339l-0.0028937 0 -0.00247244 -0.00210236 -0.0248346 -0.0242953c-0.00377559,-0.00377953 -0.00508661,-0.00508661 0.0143504,-0.0490157l-0.00565748 -0.0133898c-0.0456339,-0.0163661 -0.0456339,-0.0182402 -0.0456339,-0.0236417l0 -0.0343583c0,-0.00536614 0,-0.00707087 0.0454961,-0.0246575l0.00564961 -0.0134134c-0.0205709,-0.043248 -0.0191535,-0.0446181 -0.0150866,-0.0484213l0.0267126 -0.0262008 0.00332283 -8.66142e-005c0.00400787,0 0.0189803,0.00545669 0.0445,0.0162283l0.0138346 -0.00562992c0.0166575,-0.0446654 0.0187047,-0.0446654 0.0239567,-0.0446654l0.0350394 0c0.00523228,0 0.00707874,0 0.025063,0.0445276l0.0138937 0.00559449c0.0377402,-0.0171339 0.0422559,-0.0171339 0.0437913,-0.0171339l0.00286614 0 0.00247638 0.00210236 0.0248346 0.0242402c0.00377953,0.00380315 0.00506299,0.00511417 -0.014374,0.0490709l0.0056811 0.0134764c0.045689,0.0162795 0.045689,0.0181535 0.045689,0.0235551l0 0.0343268c0,0.00525197 0,0.00709843 -0.0455512,0.024689l-0.00562598 0.0134449c0.0204646,0.0430472 0.0190945,0.0444094 0.0152913,0.0482795l-0.0269134 0.0263425 -0.00335433 7.87402e-005c-0.004,0 -0.0189213,-0.00545669 -0.0444134,-0.016252l-0.0139213 0.00562992c-0.0167087,0.0446654 -0.0185866,0.0446654 -0.0239567,0.0446654zm-0.0313976 -0.0141772l0.0276457 0c0.00315748,-0.00645276 0.0100315,-0.0236142 0.0155157,-0.0383661l0.00111417 -0.00295276 0.0251496 -0.0101417 0.00272835 0.0011378c0.0149685,0.0063937 0.0327047,0.0134921 0.0396063,0.0156496l0.0194409 -0.0189764c-0.00247638,-0.00684646 -0.00994882,-0.0235866 -0.0167126,-0.0376811l-0.00136614 -0.00286614 0.0104291 -0.0248661 0.00281496 -0.00108268c0.0151772,-0.00584646 0.0327087,-0.0130433 0.0392677,-0.016311l0 -0.0266811c-0.00661811,-0.00312992 -0.024122,-0.00977559 -0.039185,-0.0151181l-0.00295276 -0.00105118 -0.0104843 -0.0248898 0.00125197 -0.00281496c0.00644488,-0.0145472 0.0136417,-0.0317087 0.015937,-0.0386181l-0.0194961 -0.0190394c-0.00627953,0.00218898 -0.0238661,0.00974803 -0.0387283,0.0165157l-0.00275591 0.00127165 -0.0251496 -0.0101417 -0.00113386 -0.00281496c-0.00593701,-0.0148307 -0.0133268,-0.0320512 -0.0166811,-0.0384173l-0.027622 0c-0.00317717,0.00645276 -0.0100039,0.0235866 -0.0154882,0.0383583l-0.0010748 0.00290551 -0.0250906 0.0101969 -0.00273622 -0.00116535c-0.0150276,-0.0063622 -0.0327835,-0.0134409 -0.0396969,-0.015626l-0.0193976 0.0190079c0.00243701,0.0068189 0.00994094,0.0235551 0.0166496,0.0376535l0.00138976 0.00286614 -0.0104606 0.0248661 -0.00280709 0.00108268c-0.0151457,0.0058189 -0.0326575,0.0130157 -0.0392165,0.0162835l0 0.0267087c0.00661811,0.00314961 0.0240984,0.00979921 0.0391575,0.0151772l0.0029252 0.0010748 0.0104882 0.0247795 -0.00125197 0.00281496c-0.00645276,0.0145157 -0.0136102,0.031685 -0.0159173,0.038563l0.0194961 0.0190945c0.00627953,-0.00219291 0.0238386,-0.00974803 0.0387008,-0.0165157l0.0027874 -0.00127165 0.0251181 0.0102008 0.00111417 0.00278346c0.00599213,0.0148622 0.0133543,0.0320512 0.0166772,0.0384173zm0.0131535 -0.0919882c-0.0321063,0 -0.0582835,-0.025626 -0.0582835,-0.0571417 0,-0.0315118 0.0261457,-0.0571457 0.0582835,-0.0571457 0.0321102,0 0.0582283,0.0256339 0.0582283,0.0571457 0,0.0315157 -0.0261181,0.0571417 -0.0582283,0.0571417zm0 -0.100102c-0.0243268,0 -0.0440669,0.0192638 -0.0440669,0.0429606 0,0.0236732 0.0197402,0.0429646 0.0440669,0.0429646 0.0242992,0 0.0440472,-0.0192913 0.0440472,-0.0429646 0,-0.0236969 -0.019748,-0.0429606 -0.0440472,-0.0429606z"/>
 </g>
</svg>
