<?xml version="1.0" encoding="UTF-8"?>
<!DOCTYPE svg PUBLIC "-//W3C//DTD SVG 1.1//EN" "http://www.w3.org/Graphics/SVG/1.1/DTD/svg11.dtd">
<!-- Creator: CorelDRAW X5 -->
<svg xmlns="http://www.w3.org/2000/svg" xml:space="preserve" width="0.166669in" height="0.13352in" style="shape-rendering:geometricPrecision; text-rendering:geometricPrecision; image-rendering:optimizeQuality; fill-rule:evenodd; clip-rule:evenodd"
viewBox="0 0 0.166669 0.13352"
 xmlns:xlink="http://www.w3.org/1999/xlink">
 <defs>
  <style type="text/css">
   <![CDATA[
    .fil0 {fill:#0A63C5}
   ]]>
  </style>
 </defs>
 <g id="Layer_x0020_1">
  <metadata id="CorelCorpID_0Corel-Layer"/>
  <g id="_204625256">
   <path id="_204625616" class="fil0" d="M0.163902 0.0658583l-0.0174724 -0.0139252 -0.00159843 -0.00409449 0.00351969 -0.00222047 0.0122795 0c0.000984252,0 0.00178346,-0.000799213 0.00178346,-0.0017874l0 -0.00776772c0,-0.000988189 -0.000799213,-0.0017874 -0.00178346,-0.0017874l-0.0127992 0c-0.000984252,0 -0.00178346,0.000799213 -0.00178346,0.0017874l0 0.00678346 -0.00253937 0.00160236 -0.00834252 -0.0213661c-0.00144882,-0.00370866 -0.00495276,-0.00610236 -0.00893307,-0.00610236l-0.0173307 0 -0.00416535 -0.0132953c-0.000688976,-0.00220472 -0.00251969,-0.00368504 -0.00455906,-0.00368504l-0.033689 0c-0.00203543,0 -0.00387008,0.00148031 -0.00455906,0.00368504l-0.00416142 0.0132953 -0.0173307 0c-0.00397638,0 -0.00748425,0.00239764 -0.00893307,0.00610236l-0.00834252 0.0213661 -0.00253937 -0.00160236 0 -0.00678346c0,-0.000984252 -0.000799213,-0.00178346 -0.00178346,-0.00178346l-0.0127992 -3.93701e-006c-0.000984252,0 -0.00178346,0.000799213 -0.00178346,0.0017874l0 0.00776772c0,0.000988189 0.000799213,0.0017874 0.00178346,0.0017874l0.0122795 0 0.00351969 0.00222047 -0.00159843 0.00409449 -0.0174724 0.0139252c-0.0021378,0.00170472 -0.00314567,0.00443307 -0.00263386,0.00711811l0.00509449 0.026752c-0.00265748,0.000917323 -0.00458661,0.00345276 -0.00458661,0.00639764l0 0.00572441c0,0.0037126 0.00301969,0.00674803 0.00673228,0.00676378l0.00724409 3.54331e-005 0 0.00893307c0,0.00327559 0.00266142,0.00593701 0.00593307,0.00593701l0.0171417 0c0.00327165,0 0.00593307,-0.00266142 0.00593307,-0.00593307l0 -0.00890157 0.0794173 0 0 0.00890157c0,0.00327165 0.00266142,0.00593307 0.00593307,0.00593307l0.0171417 0c0.00327165,0 0.00593307,-0.00266142 0.00593307,-0.00593307l0 -0.00893307 0.00724409 -3.54331e-005c0.0037126,-1.9685e-005 0.00673228,-0.00305512 0.00673228,-0.00676772l0 -0.00572441c0,-0.00294488 -0.00192913,-0.00548031 -0.00459055,-0.00639764l0.00509843 -0.026752c0.000511811,-0.00268504 -0.000496063,-0.00541339 -0.00263386,-0.00711811zm-0.0142835 -0.0280079l0.00922441 0 0 0.00419685 -0.00922441 0 0 -0.00419685zm-0.132567 0.00419685l-0.00922441 0 0 -0.00419685 0.00922441 0 0 0.00419685zm0.125378 0.00946063l-0.0623543 0 0.021811 -0.0240748 0.0311417 0 0.00940157 0.0240748zm-0.0453622 -0.0240748l-0.021815 0.0240748 -0.00843307 0 0.021815 -0.0240748 0.00843307 0zm-0.0317244 -0.0226811c0.000216535,-0.00069685 0.000688976,-0.0011811 0.00114961,-0.0011811l0.033689 0c0.000456693,0 0.000929134,0.000484252 0.00114961,0.0011811l0.00382677 0.0122283 -0.0436457 0 0.00383071 -0.0122283zm-0.0249055 0.0158031l0.0857953 0c0.00230315,0 0.00435433,0.00127953 0.00537008,0.00330709l-0.0965354 0c0.00101575,-0.00202756 0.00306693,-0.00330709 0.00537008,-0.00330709zm-0.00679528 0.00687795l0.0501693 0 -0.021811 0.0240748 -0.0377598 0 0.00940157 -0.0240748zm0.00641339 0.100154c0,0.00130315 -0.00105906,0.0023622 -0.0023622,0.0023622l-0.0171417 0c-0.00130315,0 -0.0023622,-0.00105906 -0.0023622,-0.0023622l0 -0.00891732 0.0026063 1.5748e-005 0.0192598 0 0 0.00890157zm0.108425 0c0,0.00130315 -0.00105906,0.0023622 -0.0023622,0.0023622l-0.0171378 0c-0.00130315,0 -0.0023622,-0.00105906 -0.0023622,-0.0023622l-3.93701e-006 -0.00890157 0.002 0 0.0172717 0 0.00259449 -1.5748e-005 0 0.00891732 0 0zm0.0139764 -0.0214606l0 0.00572441c0,0.00175197 -0.0014252,0.00318504 -0.00317717,0.00319291l-0.0134016 6.69291e-005 -0.125075 0 -0.0134094 -6.69291e-005c-0.00175197,-7.87402e-006 -0.00317717,-0.00144094 -0.00317717,-0.00319291l0 -0.00572441c0,-0.00143307 0.000968504,-0.00265748 0.00228346,-0.00305512 0.00133465,0.00194488 0.00356693,0.00319291 0.00604331,0.00319291l0.141583 0c0.00248031,0 0.0047126,-0.00124803 0.00604724,-0.00319291 0.00131496,0.000397638 0.00228346,0.00162205 0.00228346,0.00305512zm0.000570866 -0.0338189l-0.00520472 0.0273307c-0.000338583,0.00176772 -0.00188976,0.00305512 -0.00369291,0.00305512l-0.141587 0c-0.00180315,0 -0.00335827,-0.0012874 -0.00369291,-0.00305512l-0.00520866 -0.0273307c-0.00026378,-0.00137795 0.000255906,-0.00277953 0.00135433,-0.00365354l0.0170276 -0.0135709 0.122622 -3.93701e-006 0.0170276 0.0135748c0.00109843,0.000874016 0.00161811,0.00227559 0.00135433,0.00365354z"/>
   <path id="_204627344" class="fil0" d="M0.149925 0.0730118l-0.133181 0c-0.00208268,0 -0.00403543,0.000925197 -0.00535433,0.00253937 -0.0013189,0.00161417 -0.00183858,0.0037126 -0.00142126,0.00575197l0.00222441 0.0109488c0.000653543,0.00320866 0.00350394,0.00553543 0.00677559,0.00553543l0.128728 -3.93701e-006c0.00327559,0 0.00612205,-0.00232677 0.00677559,-0.00553543l0.00222441 -0.0109449c0.000417323,-0.00204331 -0.000102362,-0.0041378 -0.00142126,-0.00575197 -0.00131496,-0.00161417 -0.00326772,-0.00253937 -0.00535039,-0.00253937zm-0.032185 0.00357087l0 0.0176299 -0.068811 0 0 -0.0176299 0.068811 0zm-0.102043 0.0149528l-0.00222835 -0.0109449c-0.000200787,-0.000988189 5.11811e-005,-0.002 0.000688976,-0.00277953 0.000633858,-0.000779528 0.00157874,-0.00122835 0.00258661,-0.00122835l0.0286142 0 0 0.0176299 -0.0263898 0c-0.00157874,0 -0.00295669,-0.00112598 -0.00327165,-0.00267717zm0.1375 -0.0109449l-0.00222441 0.0109488c-0.000314961,0.00154724 -0.00169291,0.00267323 -0.00327559,0.00267323l-0.0263819 0 0 -0.0176299 0.0286102 3.93701e-006c0.00100787,0 0.00194882,0.000444882 0.00258661,0.00122441 0.000637795,0.000779528 0.000889764,0.00179134 0.000685039,0.00277953z"/>
   <rect id="_204627536" class="fil0" x="0.0726181" y="0.00694291" width="0.00414961" height="0.00414764"/>
   <rect id="_204627656" class="fil0" x="0.0767697" y="0.0110906" width="0.00414764" height="0.00414961"/>
   <rect id="_204627728" class="fil0" x="0.0809173" y="0.00694291" width="0.00414961" height="0.00414764"/>
   <rect id="_204628160" class="fil0" x="0.0850689" y="0.0110906" width="0.00414764" height="0.00414961"/>
   <rect id="_204628280" class="fil0" x="0.0892165" y="0.00694291" width="0.00414961" height="0.00414764"/>
  </g>
 </g>
</svg>
