<?xml version="1.0" encoding="UTF-8"?>
<!DOCTYPE svg PUBLIC "-//W3C//DTD SVG 1.1//EN" "http://www.w3.org/Graphics/SVG/1.1/DTD/svg11.dtd">
<!-- Creator: CorelDRAW X5 -->
<svg xmlns="http://www.w3.org/2000/svg" xml:space="preserve" width="0.173606in" height="0.148488in" style="shape-rendering:geometricPrecision; text-rendering:geometricPrecision; image-rendering:optimizeQuality; fill-rule:evenodd; clip-rule:evenodd"
viewBox="0 0 0.173606 0.148488"
 xmlns:xlink="http://www.w3.org/1999/xlink">
 <defs>
  <style type="text/css">
   <![CDATA[
    .fil1 {fill:#0A63C5}
    .fil0 {fill:#0A63C5;fill-rule:nonzero}
   ]]>
  </style>
 </defs>
 <g id="Layer_x0020_1">
  <metadata id="CorelCorpID_0Corel-Layer"/>
  <g id="_299042648">
   <g>
    <path id="_299042840" class="fil0" d="M0.134394 0.00166142l0.0136693 0.0223465 -0.00592126 0.00362205 -0.0136693 -0.0223465 0.00114961 -0.00477165 0.00477165 0.00114961zm0 0l-0.00592126 0.00362205 -9.05512e-005 -0.000153543 -7.87402e-005 -0.00015748 -7.08661e-005 -0.000161417 -6.29921e-005 -0.000161417 -5.51181e-005 -0.000161417 -4.72441e-005 -0.000165354 -3.54331e-005 -0.000165354 -3.14961e-005 -0.000169291 -1.9685e-005 -0.000165354 -1.1811e-005 -0.000169291 -7.87402e-006 -0.000165354 3.93701e-006 -0.000169291 1.1811e-005 -0.000165354 1.9685e-005 -0.000165354 2.75591e-005 -0.000165354 3.54331e-005 -0.000161417 4.33071e-005 -0.000161417 5.11811e-005 -0.000161417 5.90551e-005 -0.000153543 6.29921e-005 -0.000153543 7.48031e-005 -0.000153543 7.87402e-005 -0.000145669 8.66142e-005 -0.000141732 9.84252e-005 -0.000141732 9.84252e-005 -0.000133858 0.000110236 -0.000129921 0.00011811 -0.000125984 0.000122047 -0.000122047 0.000129921 -0.000114173 0.000137795 -0.000110236 0.000141732 -0.000102362 0.000149606 -9.84252e-005 0.000153543 -9.05512e-005 0.00015748 -7.87402e-005 0.000161417 -7.08661e-005 0.000161417 -6.29921e-005 0.000161417 -5.51181e-005 0.000165354 -4.72441e-005 0.000165354 -3.54331e-005 0.000169291 -3.14961e-005 0.000165354 -1.9685e-005 0.000169291 -1.1811e-005 0.000165354 -7.87402e-006 0.000169291 3.93701e-006 0.000165354 1.1811e-005 0.000165354 1.9685e-005 0.000165354 2.75591e-005 0.000161417 3.54331e-005 0.000161417 4.33071e-005 0.000161417 5.11811e-005 0.000153543 5.90551e-005 0.000153543 6.29921e-005 0.000153543 7.48031e-005 0.000145669 7.87402e-005 0.000141732 8.66142e-005 0.000141732 9.84252e-005 0.000133858 9.84252e-005 0.000129921 0.000110236 0.000125984 0.00011811 0.000122047 0.000122047 0.000114173 0.000129921 0.000110236 0.000137795 0.000102362 0.000141732 9.84252e-005 0.000149606zm-0.132732 0.0771181l0.127961 -0.0782677 0.00362205 0.00592126 -0.127961 0.0782677 -0.00477165 -0.00114961 0.00114961 -0.00477165zm0 0l0.00362205 0.00592126 -0.000153543 9.05512e-005 -0.00015748 7.87402e-005 -0.000161417 7.08661e-005 -0.000161417 6.29921e-005 -0.000161417 5.51181e-005 -0.000165354 4.72441e-005 -0.000165354 3.54331e-005 -0.000169291 3.14961e-005 -0.000165354 1.9685e-005 -0.000169291 1.1811e-005 -0.000165354 7.87402e-006 -0.000169291 -3.93701e-006 -0.000165354 -1.1811e-005 -0.000165354 -1.9685e-005 -0.000165354 -2.75591e-005 -0.000161417 -3.54331e-005 -0.000161417 -4.33071e-005 -0.000161417 -5.11811e-005 -0.000153543 -5.90551e-005 -0.000153543 -6.29921e-005 -0.000153543 -7.48031e-005 -0.000145669 -7.87402e-005 -0.000141732 -8.66142e-005 -0.000141732 -9.84252e-005 -0.000133858 -9.84252e-005 -0.000129921 -0.000110236 -0.000125984 -0.00011811 -0.000122047 -0.000122047 -0.000114173 -0.000129921 -0.000110236 -0.000137795 -0.000102362 -0.000141732 -9.84252e-005 -0.000149606 -9.05512e-005 -0.000153543 -7.87402e-005 -0.00015748 -7.08661e-005 -0.000161417 -6.29921e-005 -0.000161417 -5.51181e-005 -0.000161417 -4.72441e-005 -0.000165354 -3.54331e-005 -0.000165354 -3.14961e-005 -0.000169291 -1.9685e-005 -0.000165354 -1.1811e-005 -0.000169291 -7.87402e-006 -0.000165354 3.93701e-006 -0.000169291 1.1811e-005 -0.000165354 1.9685e-005 -0.000165354 2.75591e-005 -0.000165354 3.54331e-005 -0.000161417 4.33071e-005 -0.000161417 5.11811e-005 -0.000161417 5.90551e-005 -0.000153543 6.29921e-005 -0.000153543 7.48031e-005 -0.000153543 7.87402e-005 -0.000145669 8.66142e-005 -0.000141732 9.84252e-005 -0.000141732 9.84252e-005 -0.000133858 0.000110236 -0.000129921 0.00011811 -0.000125984 0.000122047 -0.000122047 0.000129921 -0.000114173 0.000137795 -0.000110236 0.000141732 -0.000102362 0.000149606 -9.84252e-005zm0.0125157 0.0271181l-0.0136654 -0.0223465 0.00592126 -0.00362205 0.0136654 0.0223465 -0.00114961 0.00477165 -0.00477165 -0.00114961zm0 0l0.00592126 -0.00362205 9.05512e-005 0.000153543 7.87402e-005 0.00015748 7.08661e-005 0.000161417 6.29921e-005 0.000161417 5.51181e-005 0.000161417 4.72441e-005 0.000165354 3.54331e-005 0.000165354 3.14961e-005 0.000169291 1.9685e-005 0.000165354 1.1811e-005 0.000169291 7.87402e-006 0.000165354 -3.93701e-006 0.000169291 -1.1811e-005 0.000165354 -1.9685e-005 0.000165354 -2.75591e-005 0.000165354 -3.54331e-005 0.000161417 -4.33071e-005 0.000161417 -5.11811e-005 0.000161417 -5.90551e-005 0.000153543 -6.29921e-005 0.000153543 -7.48031e-005 0.000153543 -7.87402e-005 0.000145669 -8.66142e-005 0.000141732 -9.84252e-005 0.000141732 -9.84252e-005 0.000133858 -0.000110236 0.000129921 -0.00011811 0.000125984 -0.000122047 0.000122047 -0.000129921 0.000114173 -0.000137795 0.000110236 -0.000141732 0.000102362 -0.000149606 9.84252e-005 -0.000153543 9.05512e-005 -0.00015748 7.87402e-005 -0.000161417 7.08661e-005 -0.000161417 6.29921e-005 -0.000161417 5.51181e-005 -0.000165354 4.72441e-005 -0.000165354 3.54331e-005 -0.000169291 3.14961e-005 -0.000165354 1.9685e-005 -0.000169291 1.1811e-005 -0.000165354 7.87402e-006 -0.000169291 -3.93701e-006 -0.000165354 -1.1811e-005 -0.000165354 -1.9685e-005 -0.000165354 -2.75591e-005 -0.000161417 -3.54331e-005 -0.000161417 -4.33071e-005 -0.000161417 -5.11811e-005 -0.000153543 -5.90551e-005 -0.000153543 -6.29921e-005 -0.000153543 -7.48031e-005 -0.000145669 -7.87402e-005 -0.000141732 -8.66142e-005 -0.000141732 -9.84252e-005 -0.000133858 -9.84252e-005 -0.000129921 -0.000110236 -0.000125984 -0.00011811 -0.000122047 -0.000122047 -0.000114173 -0.000129921 -0.000110236 -0.000137795 -0.000102362 -0.000141732 -9.84252e-005 -0.000149606zm0.0208937 -1.1811e-005l-0.00592913 0.00362205 3.93701e-006 0 -0.000208661 -0.000322835 -0.000220472 -0.00030315 -0.00023622 -0.000295276 -0.000248031 -0.000279528 -0.000255906 -0.00026378 -0.00026378 -0.000240157 -0.000283465 -0.00023622 -0.000291339 -0.000216535 -0.00030315 -0.000208661 -0.000295276 -0.000181102 -0.000311024 -0.000169291 -0.000326772 -0.00015748 -0.000334646 -0.000145669 -0.000338583 -0.000125984 -0.000330709 -0.000102362 -0.00034252 -9.44882e-005 -0.000354331 -7.48031e-005 -0.000346457 -5.90551e-005 -0.000350394 -3.93701e-005 -0.000366142 -2.3622e-005 -0.000366142 -7.87402e-006 -0.000354331 7.87402e-006 -0.000346457 2.3622e-005 -0.000358268 4.72441e-005 -0.000358268 6.29921e-005 -0.000346457 7.87402e-005 -0.000358268 9.84252e-005 -0.00034252 0.000114173 -0.00034252 0.000133858 -0.000346457 0.00015748 -0.000334646 0.000169291 -0.000334646 0.000192913 -0.00362205 -0.00592126 0.000633858 -0.000366142 0.000649606 -0.000334646 0.000653543 -0.000291339 0.000673228 -0.000267717 0.000681102 -0.000224409 0.000681102 -0.000192913 0.000692913 -0.00015748 0.000688976 -0.00011811 0.000688976 -8.66142e-005 0.000708661 -5.51181e-005 0.000692913 -1.5748e-005 0.000681102 1.5748e-005 0.000681102 4.72441e-005 0.000688976 7.87402e-005 0.000685039 0.000114173 0.000669291 0.000145669 0.000665354 0.000173228 0.000661417 0.000212598 0.000645669 0.000244094 0.000625984 0.00026378 0.00061811 0.000299213 0.00061811 0.000334646 0.000602362 0.000370079 0.000570866 0.000389764 0.000559055 0.00042126 0.000535433 0.000448819 0.000531496 0.000484252 0.0005 0.000515748 0.000476378 0.000531496 0.000448819 0.000562992 0.000433071 0.000594488 0.000397638 0.000622047 3.93701e-006 0zm-0.0059252 0.00362205l0.00592126 -0.00362205 9.05512e-005 0.000153543 7.87402e-005 0.00015748 7.08661e-005 0.000161417 6.29921e-005 0.000161417 5.51181e-005 0.000161417 4.72441e-005 0.000165354 3.54331e-005 0.000165354 3.14961e-005 0.000169291 1.9685e-005 0.000165354 1.1811e-005 0.000169291 7.87402e-006 0.000165354 -3.93701e-006 0.000169291 -1.1811e-005 0.000165354 -1.9685e-005 0.000165354 -2.75591e-005 0.000165354 -3.54331e-005 0.000161417 -4.33071e-005 0.000161417 -5.11811e-005 0.000161417 -5.90551e-005 0.000153543 -6.29921e-005 0.000153543 -7.48031e-005 0.000153543 -7.87402e-005 0.000145669 -8.66142e-005 0.000141732 -9.84252e-005 0.000141732 -9.84252e-005 0.000133858 -0.000110236 0.000129921 -0.00011811 0.000125984 -0.000122047 0.000122047 -0.000129921 0.000114173 -0.000137795 0.000110236 -0.000141732 0.000102362 -0.000149606 9.84252e-005 -0.000153543 9.05512e-005 -0.00015748 7.87402e-005 -0.000161417 7.08661e-005 -0.000161417 6.29921e-005 -0.000161417 5.51181e-005 -0.000165354 4.72441e-005 -0.000165354 3.54331e-005 -0.000169291 3.14961e-005 -0.000165354 1.9685e-005 -0.000169291 1.1811e-005 -0.000165354 7.87402e-006 -0.000169291 -3.93701e-006 -0.000165354 -1.1811e-005 -0.000165354 -1.9685e-005 -0.000165354 -2.75591e-005 -0.000161417 -3.54331e-005 -0.000161417 -4.33071e-005 -0.000161417 -5.11811e-005 -0.000153543 -5.90551e-005 -0.000153543 -6.29921e-005 -0.000153543 -7.48031e-005 -0.000145669 -7.87402e-005 -0.000141732 -8.66142e-005 -0.000141732 -9.84252e-005 -0.000133858 -9.84252e-005 -0.000129921 -0.000110236 -0.000125984 -0.00011811 -0.000122047 -0.000122047 -0.000114173 -0.000129921 -0.000110236 -0.000137795 -0.000102362 -0.000141732 -9.84252e-005 -0.000149606zm0.0023189 0.0113504l-0.00592126 0.00362205 0.00114961 -0.00477165 0.000318898 -0.000208661 0.000307087 -0.000220472 0.000299213 -0.000240157 0.000275591 -0.000240157 0.000251969 -0.000251969 0.000251969 -0.000275591 0.000232283 -0.000275591 0.000216535 -0.000291339 0.000208661 -0.00030315 0.000185039 -0.000299213 0.000169291 -0.000311024 0.000153543 -0.000318898 0.000137795 -0.000322835 0.000129921 -0.000350394 0.000110236 -0.000338583 9.05512e-005 -0.000338583 7.08661e-005 -0.000338583 5.90551e-005 -0.000358268 4.33071e-005 -0.000362205 2.3622e-005 -0.000354331 7.87402e-006 -0.000354331 -1.1811e-005 -0.000358268 -2.3622e-005 -0.000358268 -4.72441e-005 -0.000358268 -6.29921e-005 -0.000362205 -7.87402e-005 -0.000346457 -9.84252e-005 -0.000358268 -0.00011811 -0.000358268 -0.000125984 -0.000326772 -0.00015748 -0.00034252 -0.000177165 -0.000350394 -0.000192913 -0.000326772 0.00592913 -0.00362205 0.000366142 0.000641732 0.000326772 0.000641732 0.000299213 0.00065748 0.000267717 0.000688976 0.000220472 0.000673228 0.000192913 0.000673228 0.00015748 0.000700787 0.00011811 0.000685039 8.66142e-005 0.000688976 5.51181e-005 0.00069685 1.9685e-005 0.00069685 -1.5748e-005 0.000692913 -4.72441e-005 0.000692913 -8.26772e-005 0.000677165 -0.000106299 0.000673228 -0.000149606 0.000677165 -0.000177165 0.000677165 -0.000212598 0.000653543 -0.000232283 0.000633858 -0.000271654 0.000637795 -0.00030315 0.000625984 -0.000334646 0.000610236 -0.000366142 0.000598425 -0.000389764 0.000570866 -0.00042126 0.000559055 -0.000452756 0.000543307 -0.000472441 0.000511811 -0.000519685 0.000511811 -0.000543307 0.000476378 -0.000551181 0.000444882 -0.000598425 0.000433071 -0.00061811 0.000397638 0.00114961 -0.00477165zm-0.00477165 -0.00114961l0.00362205 0.00592126 -0.000153543 9.05512e-005 -0.00015748 7.87402e-005 -0.000161417 7.08661e-005 -0.000161417 6.29921e-005 -0.000161417 5.51181e-005 -0.000165354 4.72441e-005 -0.000165354 3.54331e-005 -0.000169291 3.14961e-005 -0.000165354 1.9685e-005 -0.000169291 1.1811e-005 -0.000165354 7.87402e-006 -0.000169291 -3.93701e-006 -0.000165354 -1.1811e-005 -0.000165354 -1.9685e-005 -0.000165354 -2.75591e-005 -0.000161417 -3.54331e-005 -0.000161417 -4.33071e-005 -0.000161417 -5.11811e-005 -0.000153543 -5.90551e-005 -0.000153543 -6.29921e-005 -0.000153543 -7.48031e-005 -0.000145669 -7.87402e-005 -0.000141732 -8.66142e-005 -0.000141732 -9.84252e-005 -0.000133858 -9.84252e-005 -0.000129921 -0.000110236 -0.000125984 -0.00011811 -0.000122047 -0.000122047 -0.000114173 -0.000129921 -0.000110236 -0.000137795 -0.000102362 -0.000141732 -9.84252e-005 -0.000149606 -9.05512e-005 -0.000153543 -7.87402e-005 -0.00015748 -7.08661e-005 -0.000161417 -6.29921e-005 -0.000161417 -5.51181e-005 -0.000161417 -4.72441e-005 -0.000165354 -3.54331e-005 -0.000165354 -3.14961e-005 -0.000169291 -1.9685e-005 -0.000165354 -1.1811e-005 -0.000169291 -7.87402e-006 -0.000165354 3.93701e-006 -0.000169291 1.1811e-005 -0.000165354 1.9685e-005 -0.000165354 2.75591e-005 -0.000165354 3.54331e-005 -0.000161417 4.33071e-005 -0.000161417 5.11811e-005 -0.000161417 5.90551e-005 -0.000153543 6.29921e-005 -0.000153543 7.48031e-005 -0.000153543 7.87402e-005 -0.000145669 8.66142e-005 -0.000141732 9.84252e-005 -0.000141732 9.84252e-005 -0.000133858 0.000110236 -0.000129921 0.00011811 -0.000125984 0.000122047 -0.000122047 0.000129921 -0.000114173 0.000137795 -0.000110236 0.000141732 -0.000102362 0.000149606 -9.84252e-005zm0.0125197 0.0271181l-0.0136693 -0.0223465 0.00592126 -0.00362205 0.0136693 0.0223465 -0.00114961 0.00477165 -0.00477165 -0.00114961zm0 0l0.00592126 -0.00362205 9.05512e-005 0.000153543 7.87402e-005 0.00015748 7.08661e-005 0.000161417 6.29921e-005 0.000161417 5.51181e-005 0.000161417 4.72441e-005 0.000165354 3.54331e-005 0.000165354 3.14961e-005 0.000169291 1.9685e-005 0.000165354 1.1811e-005 0.000169291 7.87402e-006 0.000165354 -3.93701e-006 0.000169291 -1.1811e-005 0.000165354 -1.9685e-005 0.000165354 -2.75591e-005 0.000165354 -3.54331e-005 0.000161417 -4.33071e-005 0.000161417 -5.11811e-005 0.000161417 -5.90551e-005 0.000153543 -6.29921e-005 0.000153543 -7.48031e-005 0.000153543 -7.87402e-005 0.000145669 -8.66142e-005 0.000141732 -9.84252e-005 0.000141732 -9.84252e-005 0.000133858 -0.000110236 0.000129921 -0.00011811 0.000125984 -0.000122047 0.000122047 -0.000129921 0.000114173 -0.000137795 0.000110236 -0.000141732 0.000102362 -0.000149606 9.84252e-005 -0.000153543 9.05512e-005 -0.00015748 7.87402e-005 -0.000161417 7.08661e-005 -0.000161417 6.29921e-005 -0.000161417 5.51181e-005 -0.000165354 4.72441e-005 -0.000165354 3.54331e-005 -0.000169291 3.14961e-005 -0.000165354 1.9685e-005 -0.000169291 1.1811e-005 -0.000165354 7.87402e-006 -0.000169291 -3.93701e-006 -0.000165354 -1.1811e-005 -0.000165354 -1.9685e-005 -0.000165354 -2.75591e-005 -0.000161417 -3.54331e-005 -0.000161417 -4.33071e-005 -0.000161417 -5.11811e-005 -0.000153543 -5.90551e-005 -0.000153543 -6.29921e-005 -0.000153543 -7.48031e-005 -0.000145669 -7.87402e-005 -0.000141732 -8.66142e-005 -0.000141732 -9.84252e-005 -0.000133858 -9.84252e-005 -0.000129921 -0.000110236 -0.000125984 -0.00011811 -0.000122047 -0.000122047 -0.000114173 -0.000129921 -0.000110236 -0.000137795 -0.000102362 -0.000141732 -9.84252e-005 -0.000149606zm0.132732 -0.0771181l-0.127961 0.0782677 -0.00362205 -0.00592126 0.127961 -0.0782677 0.00477165 0.00114961 -0.00114961 0.00477165zm0 0l-0.00362205 -0.00592126 0.000153543 -9.05512e-005 0.00015748 -7.87402e-005 0.000161417 -7.08661e-005 0.000161417 -6.29921e-005 0.000161417 -5.51181e-005 0.000165354 -4.72441e-005 0.000165354 -3.54331e-005 0.000169291 -3.14961e-005 0.000165354 -1.9685e-005 0.000169291 -1.1811e-005 0.000165354 -7.87402e-006 0.000169291 3.93701e-006 0.000165354 1.1811e-005 0.000165354 1.9685e-005 0.000165354 2.75591e-005 0.000161417 3.54331e-005 0.000161417 4.33071e-005 0.000161417 5.11811e-005 0.000153543 5.90551e-005 0.000153543 6.29921e-005 0.000153543 7.48031e-005 0.000145669 7.87402e-005 0.000141732 8.66142e-005 0.000141732 9.84252e-005 0.000133858 9.84252e-005 0.000129921 0.000110236 0.000125984 0.00011811 0.000122047 0.000122047 0.000114173 0.000129921 0.000110236 0.000137795 0.000102362 0.000141732 9.84252e-005 0.000149606 9.05512e-005 0.000153543 7.87402e-005 0.00015748 7.08661e-005 0.000161417 6.29921e-005 0.000161417 5.51181e-005 0.000161417 4.72441e-005 0.000165354 3.54331e-005 0.000165354 3.14961e-005 0.000169291 1.9685e-005 0.000165354 1.1811e-005 0.000169291 7.87402e-006 0.000165354 -3.93701e-006 0.000169291 -1.1811e-005 0.000165354 -1.9685e-005 0.000165354 -2.75591e-005 0.000165354 -3.54331e-005 0.000161417 -4.33071e-005 0.000161417 -5.11811e-005 0.000161417 -5.90551e-005 0.000153543 -6.29921e-005 0.000153543 -7.48031e-005 0.000153543 -7.87402e-005 0.000145669 -8.66142e-005 0.000141732 -9.84252e-005 0.000141732 -9.84252e-005 0.000133858 -0.000110236 0.000129921 -0.00011811 0.000125984 -0.000122047 0.000122047 -0.000129921 0.000114173 -0.000137795 0.000110236 -0.000141732 0.000102362 -0.000149606 9.84252e-005zm-0.0125157 -0.0271181l0.0136654 0.0223465 -0.00592126 0.00362205 -0.0136654 -0.0223465 0.00114961 -0.00477165 0.00477165 0.00114961zm0 0l-0.00592126 0.00362205 -9.05512e-005 -0.000153543 -7.87402e-005 -0.00015748 -7.08661e-005 -0.000161417 -6.29921e-005 -0.000161417 -5.51181e-005 -0.000161417 -4.72441e-005 -0.000165354 -3.54331e-005 -0.000165354 -3.14961e-005 -0.000169291 -1.9685e-005 -0.000165354 -1.1811e-005 -0.000169291 -7.87402e-006 -0.000165354 3.93701e-006 -0.000169291 1.1811e-005 -0.000165354 1.9685e-005 -0.000165354 2.75591e-005 -0.000165354 3.54331e-005 -0.000161417 4.33071e-005 -0.000161417 5.11811e-005 -0.000161417 5.90551e-005 -0.000153543 6.29921e-005 -0.000153543 7.48031e-005 -0.000153543 7.87402e-005 -0.000145669 8.66142e-005 -0.000141732 9.84252e-005 -0.000141732 9.84252e-005 -0.000133858 0.000110236 -0.000129921 0.00011811 -0.000125984 0.000122047 -0.000122047 0.000129921 -0.000114173 0.000137795 -0.000110236 0.000141732 -0.000102362 0.000149606 -9.84252e-005 0.000153543 -9.05512e-005 0.00015748 -7.87402e-005 0.000161417 -7.08661e-005 0.000161417 -6.29921e-005 0.000161417 -5.51181e-005 0.000165354 -4.72441e-005 0.000165354 -3.54331e-005 0.000169291 -3.14961e-005 0.000165354 -1.9685e-005 0.000169291 -1.1811e-005 0.000165354 -7.87402e-006 0.000169291 3.93701e-006 0.000165354 1.1811e-005 0.000165354 1.9685e-005 0.000165354 2.75591e-005 0.000161417 3.54331e-005 0.000161417 4.33071e-005 0.000161417 5.11811e-005 0.000153543 5.90551e-005 0.000153543 6.29921e-005 0.000153543 7.48031e-005 0.000145669 7.87402e-005 0.000141732 8.66142e-005 0.000141732 9.84252e-005 0.000133858 9.84252e-005 0.000129921 0.000110236 0.000125984 0.00011811 0.000122047 0.000122047 0.000114173 0.000129921 0.000110236 0.000137795 0.000102362 0.000141732 9.84252e-005 0.000149606zm-0.0208937 1.1811e-005l0.00592913 -0.00362205 -3.93701e-006 0 0.000208661 0.000322835 0.000220472 0.00030315 0.00023622 0.000295276 0.000244094 0.000275591 0.00026378 0.000267717 0.00026378 0.000244094 0.000279528 0.000232283 0.000287402 0.000216535 0.000291339 0.000200787 0.000307087 0.000185039 0.000326772 0.000177165 0.000314961 0.00015748 0.000322835 0.000133858 0.000334646 0.000125984 0.000354331 0.000110236 0.000346457 9.44882e-005 0.000330709 7.08661e-005 0.000358268 5.90551e-005 0.000362205 4.33071e-005 0.000350394 2.3622e-005 0.000358268 7.87402e-006 0.000354331 -1.1811e-005 0.000374016 -2.75591e-005 0.000354331 -3.93701e-005 0.000346457 -6.29921e-005 0.000346457 -7.87402e-005 0.000358268 -9.84252e-005 0.00034252 -0.000114173 0.00034252 -0.000133858 0.000346457 -0.00015748 0.000334646 -0.000169291 0.000334646 -0.000192913 0.00362205 0.00592126 -0.000633858 0.000366142 -0.000649606 0.000334646 -0.000653543 0.000291339 -0.000673228 0.000267717 -0.000681102 0.000224409 -0.000681102 0.000192913 -0.000692913 0.00015748 -0.000700787 0.00011811 -0.000692913 8.66142e-005 -0.000681102 5.11811e-005 -0.000692913 1.9685e-005 -0.00069685 -1.5748e-005 -0.000688976 -4.72441e-005 -0.000677165 -8.26772e-005 -0.000673228 -0.000106299 -0.000692913 -0.000149606 -0.000661417 -0.000181102 -0.000645669 -0.000204724 -0.000641732 -0.00023622 -0.000645669 -0.000275591 -0.000629921 -0.000307087 -0.000594488 -0.000326772 -0.000590551 -0.000358268 -0.000590551 -0.000397638 -0.000555118 -0.00042126 -0.000547244 -0.000452756 -0.000523622 -0.000488189 -0.000492126 -0.000503937 -0.000480315 -0.000535433 -0.000448819 -0.000562992 -0.000433071 -0.000594488 -0.000397638 -0.000622047 -3.93701e-006 0zm0.0059252 -0.00362205l-0.00592126 0.00362205 -9.05512e-005 -0.000153543 -7.87402e-005 -0.00015748 -7.08661e-005 -0.000161417 -6.29921e-005 -0.000161417 -5.51181e-005 -0.000161417 -4.72441e-005 -0.000165354 -3.54331e-005 -0.000165354 -3.14961e-005 -0.000169291 -1.9685e-005 -0.000165354 -1.1811e-005 -0.000169291 -7.87402e-006 -0.000165354 3.93701e-006 -0.000169291 1.1811e-005 -0.000165354 1.9685e-005 -0.000165354 2.75591e-005 -0.000165354 3.54331e-005 -0.000161417 4.33071e-005 -0.000161417 5.11811e-005 -0.000161417 5.90551e-005 -0.000153543 6.29921e-005 -0.000153543 7.48031e-005 -0.000153543 7.87402e-005 -0.000145669 8.66142e-005 -0.000141732 9.84252e-005 -0.000141732 9.84252e-005 -0.000133858 0.000110236 -0.000129921 0.00011811 -0.000125984 0.000122047 -0.000122047 0.000129921 -0.000114173 0.000137795 -0.000110236 0.000141732 -0.000102362 0.000149606 -9.84252e-005 0.000153543 -9.05512e-005 0.00015748 -7.87402e-005 0.000161417 -7.08661e-005 0.000161417 -6.29921e-005 0.000161417 -5.51181e-005 0.000165354 -4.72441e-005 0.000165354 -3.54331e-005 0.000169291 -3.14961e-005 0.000165354 -1.9685e-005 0.000169291 -1.1811e-005 0.000165354 -7.87402e-006 0.000169291 3.93701e-006 0.000165354 1.1811e-005 0.000165354 1.9685e-005 0.000165354 2.75591e-005 0.000161417 3.54331e-005 0.000161417 4.33071e-005 0.000161417 5.11811e-005 0.000153543 5.90551e-005 0.000153543 6.29921e-005 0.000153543 7.48031e-005 0.000145669 7.87402e-005 0.000141732 8.66142e-005 0.000141732 9.84252e-005 0.000133858 9.84252e-005 0.000129921 0.000110236 0.000125984 0.00011811 0.000122047 0.000122047 0.000114173 0.000129921 0.000110236 0.000137795 0.000102362 0.000141732 9.84252e-005 0.000149606zm-0.0023189 -0.0113504l0.00592126 -0.00362205 -0.00114961 0.00477165 -0.000318898 0.000208661 -0.000307087 0.000220472 -0.000299213 0.000240157 -0.000275591 0.000240157 -0.000251969 0.000251969 -0.000251969 0.000275591 -0.000232283 0.000275591 -0.000216535 0.000291339 -0.000208661 0.00030315 -0.000185039 0.000299213 -0.000169291 0.000311024 -0.000153543 0.000318898 -0.000137795 0.000322835 -0.000129921 0.000350394 -0.000110236 0.000338583 -9.05512e-005 0.000338583 -7.08661e-005 0.000338583 -5.90551e-005 0.000358268 -4.33071e-005 0.000362205 -2.3622e-005 0.000354331 -7.87402e-006 0.000354331 1.1811e-005 0.000358268 2.3622e-005 0.000358268 4.72441e-005 0.000358268 6.29921e-005 0.000362205 7.87402e-005 0.000346457 9.84252e-005 0.000358268 0.00011811 0.000358268 0.000125984 0.000326772 0.00015748 0.00034252 0.000177165 0.000350394 0.000192913 0.000326772 -0.00592913 0.00362205 -0.000366142 -0.000641732 -0.000326772 -0.000641732 -0.000299213 -0.00065748 -0.000267717 -0.000688976 -0.000220472 -0.000673228 -0.000192913 -0.000673228 -0.00015748 -0.000700787 -0.00011811 -0.000685039 -8.66142e-005 -0.000688976 -5.51181e-005 -0.00069685 -1.9685e-005 -0.00069685 1.5748e-005 -0.000692913 4.72441e-005 -0.000692913 8.26772e-005 -0.000677165 0.000106299 -0.000673228 0.000149606 -0.000677165 0.000177165 -0.000677165 0.000212598 -0.000653543 0.000232283 -0.000633858 0.000271654 -0.000637795 0.00030315 -0.000625984 0.000334646 -0.000610236 0.000366142 -0.000598425 0.000389764 -0.000570866 0.00042126 -0.000559055 0.000452756 -0.000543307 0.000472441 -0.000511811 0.000519685 -0.000511811 0.000543307 -0.000476378 0.000551181 -0.000444882 0.000598425 -0.000433071 0.00061811 -0.000397638 -0.00114961 0.00477165zm0.00477165 0.00114961l-0.00362205 -0.00592126 0.000153543 -9.05512e-005 0.00015748 -7.87402e-005 0.000161417 -7.08661e-005 0.000161417 -6.29921e-005 0.000161417 -5.51181e-005 0.000165354 -4.72441e-005 0.000165354 -3.54331e-005 0.000169291 -3.14961e-005 0.000165354 -1.9685e-005 0.000169291 -1.1811e-005 0.000165354 -7.87402e-006 0.000169291 3.93701e-006 0.000165354 1.1811e-005 0.000165354 1.9685e-005 0.000165354 2.75591e-005 0.000161417 3.54331e-005 0.000161417 4.33071e-005 0.000161417 5.11811e-005 0.000153543 5.90551e-005 0.000153543 6.29921e-005 0.000153543 7.48031e-005 0.000145669 7.87402e-005 0.000141732 8.66142e-005 0.000141732 9.84252e-005 0.000133858 9.84252e-005 0.000129921 0.000110236 0.000125984 0.00011811 0.000122047 0.000122047 0.000114173 0.000129921 0.000110236 0.000137795 0.000102362 0.000141732 9.84252e-005 0.000149606 9.05512e-005 0.000153543 7.87402e-005 0.00015748 7.08661e-005 0.000161417 6.29921e-005 0.000161417 5.51181e-005 0.000161417 4.72441e-005 0.000165354 3.54331e-005 0.000165354 3.14961e-005 0.000169291 1.9685e-005 0.000165354 1.1811e-005 0.000169291 7.87402e-006 0.000165354 -3.93701e-006 0.000169291 -1.1811e-005 0.000165354 -1.9685e-005 0.000165354 -2.75591e-005 0.000165354 -3.54331e-005 0.000161417 -4.33071e-005 0.000161417 -5.11811e-005 0.000161417 -5.90551e-005 0.000153543 -6.29921e-005 0.000153543 -7.48031e-005 0.000153543 -7.87402e-005 0.000145669 -8.66142e-005 0.000141732 -9.84252e-005 0.000141732 -9.84252e-005 0.000133858 -0.000110236 0.000129921 -0.00011811 0.000125984 -0.000122047 0.000122047 -0.000129921 0.000114173 -0.000137795 0.000110236 -0.000141732 0.000102362 -0.000149606 9.84252e-005z"/>
   </g>
   <polygon class="fil1" points="0.0701693,0.101063 0.0761772,0.0902677 0.0885197,0.0898268 0.0801102,0.0807756 0.0835039,0.0688937 0.0722953,0.0740945 0.0620472,0.0671969 0.0635354,0.0794606 0.0538071,0.0870787 0.0659291,0.0894567 "/>
   <g>
    <path class="fil0" d="M0.101638 0.0258937l-0.00474016 0.00289764 -7.08661e-005 -0.000122047 -6.29921e-005 -0.000125984 -5.90551e-005 -0.000129921 -5.11811e-005 -0.000129921 -4.33071e-005 -0.000129921 -3.54331e-005 -0.000129921 -3.14961e-005 -0.000133858 -2.3622e-005 -0.000133858 -1.5748e-005 -0.000133858 -1.1811e-005 -0.000133858 0 -0.000133858 0 -0.000133858 1.1811e-005 -0.000133858 1.5748e-005 -0.000133858 1.9685e-005 -0.000129921 2.75591e-005 -0.000129921 3.54331e-005 -0.000129921 3.93701e-005 -0.000125984 4.72441e-005 -0.000125984 5.51181e-005 -0.000122047 5.51181e-005 -0.000122047 6.69291e-005 -0.00011811 7.08661e-005 -0.000114173 7.48031e-005 -0.000110236 8.26772e-005 -0.000110236 8.66142e-005 -0.000106299 9.05512e-005 -9.84252e-005 9.84252e-005 -9.84252e-005 0.000106299 -9.05512e-005 0.000106299 -8.66142e-005 0.00011811 -8.26772e-005 0.00011811 -7.87402e-005 0.000122047 -7.08661e-005 0.000125984 -6.29921e-005 0.000129921 -5.90551e-005 0.000129921 -5.11811e-005 0.000129921 -4.33071e-005 0.000129921 -3.54331e-005 0.000133858 -3.14961e-005 0.000133858 -2.3622e-005 0.000133858 -1.5748e-005 0.000133858 -1.1811e-005 0.000133858 0 0.000133858 0 0.000133858 1.1811e-005 0.000133858 1.5748e-005 0.000129921 1.9685e-005 0.000129921 2.75591e-005 0.000129921 3.54331e-005 0.000125984 3.93701e-005 0.000125984 4.72441e-005 0.000122047 5.51181e-005 0.000122047 5.51181e-005 0.00011811 6.69291e-005 0.000114173 7.08661e-005 0.000110236 7.48031e-005 0.000110236 8.26772e-005 0.000106299 8.66142e-005 9.84252e-005 9.05512e-005 9.84252e-005 9.84252e-005 9.05512e-005 0.000106299 8.66142e-005 0.000106299 8.26772e-005 0.00011811 7.87402e-005 0.00011811zm0.0308071 0.0610157l-0.0355472 -0.0581181 0.00474016 -0.00289764 0.0355472 0.0581181 -0.00474016 0.00289764zm0 0l0.00474016 -0.00289764 7.08661e-005 0.000122047 6.29921e-005 0.000125984 5.90551e-005 0.000129921 5.11811e-005 0.000129921 4.33071e-005 0.000129921 3.54331e-005 0.000129921 3.14961e-005 0.000133858 2.3622e-005 0.000133858 1.5748e-005 0.000133858 1.1811e-005 0.000133858 0 0.000133858 0 0.000133858 -1.1811e-005 0.000133858 -1.5748e-005 0.000133858 -1.9685e-005 0.000129921 -2.75591e-005 0.000129921 -3.54331e-005 0.000129921 -3.93701e-005 0.000125984 -4.72441e-005 0.000125984 -5.51181e-005 0.000122047 -5.51181e-005 0.000122047 -6.69291e-005 0.00011811 -7.08661e-005 0.000114173 -7.48031e-005 0.000110236 -8.26772e-005 0.000110236 -8.66142e-005 0.000106299 -9.05512e-005 9.84252e-005 -9.84252e-005 9.84252e-005 -0.000106299 9.05512e-005 -0.000106299 8.66142e-005 -0.00011811 8.26772e-005 -0.00011811 7.87402e-005 -0.000122047 7.08661e-005 -0.000125984 6.29921e-005 -0.000129921 5.90551e-005 -0.000129921 5.11811e-005 -0.000129921 4.33071e-005 -0.000129921 3.54331e-005 -0.000133858 3.14961e-005 -0.000133858 2.3622e-005 -0.000133858 1.5748e-005 -0.000133858 1.1811e-005 -0.000133858 0 -0.000133858 0 -0.000133858 -1.1811e-005 -0.000133858 -1.5748e-005 -0.000129921 -1.9685e-005 -0.000129921 -2.75591e-005 -0.000129921 -3.54331e-005 -0.000125984 -3.93701e-005 -0.000125984 -4.72441e-005 -0.000122047 -5.51181e-005 -0.000122047 -5.51181e-005 -0.00011811 -6.69291e-005 -0.000114173 -7.08661e-005 -0.000110236 -7.48031e-005 -0.000110236 -8.26772e-005 -0.000106299 -8.66142e-005 -9.84252e-005 -9.05512e-005 -9.84252e-005 -9.84252e-005 -9.05512e-005 -0.000106299 -8.66142e-005 -0.000106299 -8.26772e-005 -0.00011811 -7.87402e-005 -0.00011811z"/>
   </g>
  </g>
 </g>
</svg>
