<?xml version="1.0" encoding="UTF-8"?>
<!DOCTYPE svg PUBLIC "-//W3C//DTD SVG 1.1//EN" "http://www.w3.org/Graphics/SVG/1.1/DTD/svg11.dtd">
<!-- Creator: CorelDRAW X5 -->
<svg xmlns="http://www.w3.org/2000/svg" xml:space="preserve" width="0.166661in" height="0.13237in" style="shape-rendering:geometricPrecision; text-rendering:geometricPrecision; image-rendering:optimizeQuality; fill-rule:evenodd; clip-rule:evenodd"
viewBox="0 0 0.166661 0.13237"
 xmlns:xlink="http://www.w3.org/1999/xlink">
 <defs>
  <style type="text/css">
   <![CDATA[
    .fil0 {fill:#0A63C5}
   ]]>
  </style>
 </defs>
 <g id="Layer_x0020_1">
  <metadata id="CorelCorpID_0Corel-Layer"/>
  <g id="_290794840">
   <path id="_290358936" class="fil0" d="M0.0391772 0.00684646c6.69291e-005,-0.00124803 -0.000232283,-0.00239764 -0.000870079,-0.00333465 -0.000940945,-0.0017874 -0.00266535,-0.00287402 -0.00473622,-0.00298425 -0.00862992,-0.000472441 -0.0172441,-0.000523622 -0.0260315,-0.000527559l-0.000850394 0c-0.00155118,0 -0.00290551,0.000535433 -0.0039252,0.00155906 -0.00210236,0.00131496 -0.00311811,0.0036063 -0.00265354,0.00604724 0.00126772,0.00670079 0.00187795,0.0137717 0.00192126,0.0222677 7.87402e-006,0.000456693 7.08661e-005,0.000913386 0.000188976,0.00139764 0.000267717,0.00298031 0.00247638,0.00517323 0.00541732,0.00534646 0.00936614,0.000551181 0.0177913,0.00108661 0.0261575,0.00208661 0.000240157,3.54331e-005 0.000480315,4.33071e-005 0.000708661,4.33071e-005 0.000755906,0 0.00147244,-0.000145669 0.0021378,-0.000448819 0.00247638,-0.000708661 0.00387795,-0.00283858 0.00357874,-0.00548425 -0.00109449,-0.00963386 -0.00143307,-0.0181299 -0.00104331,-0.0259685zm-0.0109646 0.0198465c-0.00525984,-0.000511811 -0.0103622,-0.000862205 -0.014874,-0.00114961 -0.000145669,-0.00491339 -0.000527559,-0.00956299 -0.00112992,-0.0141142 0.00601969,2.3622e-005 0.0109173,0.000110236 0.0154449,0.00026378 -5.90551e-005,0.00480315 0.000129921,0.00974803 0.000559055,0.015z"/>
   <path id="_290358744" class="fil0" d="M0.0453425 0.029874c0,0.000464567 5.90551e-005,0.000913386 0.000181102,0.00139764 0.000275591,0.00298031 0.00247244,0.00517323 0.00541339,0.00534646 0.00352756,0.000204724 0.0201732,0.000413386 0.0394488,0.000665354 0.0288031,0.000350394 0.0646457,0.000807087 0.069811,0.00142913 0.000240157,2.75591e-005 0.000484252,4.33071e-005 0.000708661,4.33071e-005 0.000759843,0 0.00147244,-0.000153543 0.0021378,-0.000456693 0.00248425,-0.000708661 0.00387795,-0.00283858 0.00357874,-0.00548425 -0.00109449,-0.00963386 -0.00143307,-0.0181299 -0.00103543,-0.0259685 5.90551e-005,-0.00124803 -0.000240157,-0.00239764 -0.000870079,-0.00333465 -0.000948819,-0.0017874 -0.00267323,-0.00287402 -0.00474409,-0.00298425 -0.00938976,-0.000511811 -0.10898,-0.000527559 -0.10998,-0.000527559 -0.00155512,0 -0.00290945,0.000535433 -0.0039252,0.00155906 -0.0021063,0.0013189 -0.00312205,0.0036063 -0.00265748,0.00604724 0.00127559,0.00669291 0.00188189,0.0137638 0.00193307,0.0222677zm0.109283 -0.00308661c-0.00819291,-0.000322835 -0.0352992,-0.000586614 -0.0595236,-0.000818898 -0.0169291,-0.000165354 -0.0330394,-0.000322835 -0.0384646,-0.00046063 -0.000153543,-0.00490551 -0.000523622,-0.00954724 -0.00112598,-0.0140906l0.00392913 1.1811e-005c0.0547402,6.69291e-005 0.0865,0.000161417 0.0946142,0.000291339 -5.11811e-005,0.0048189 0.000129921,0.00977953 0.000570866,0.0150669z"/>
   <path id="_290358840" class="fil0" d="M0.165587 0.0536496c5.90551e-005,-0.00124409 -0.000232283,-0.00238583 -0.000870079,-0.00332677 -0.000948819,-0.00179528 -0.00266535,-0.00287402 -0.00473622,-0.00298819 -0.00923622,-0.000503937 -0.105874,-0.000523622 -0.109984,-0.000531496 -0.00155906,0 -0.00290157,0.000543307 -0.00392126,0.00155906 -0.00211417,0.00132283 -0.00312992,0.00361417 -0.00266535,0.00604724 0.00127559,0.00669685 0.00188189,0.0137717 0.00193307,0.0222677 0,0.000464567 5.90551e-005,0.000913386 0.000181102,0.00140551 0.000275591,0.00298425 0.00247244,0.00516535 0.00541339,0.00533858 0.00352756,0.000204724 0.0201929,0.000413386 0.0394921,0.000661417 0.0287874,0.000362205 0.0646024,0.000811024 0.0697677,0.00143307 0.000251969,2.3622e-005 0.000484252,4.33071e-005 0.000708661,4.33071e-005 0.000759843,0 0.00147244,-0.00015748 0.0021378,-0.000456693 0.00248425,-0.000700787 0.00387795,-0.00283858 0.00357874,-0.00547638 -0.00108661,-0.00964173 -0.00143307,-0.0181378 -0.00103543,-0.0259764zm-0.0109606 0.0199409c-0.00820079,-0.000322835 -0.0353228,-0.00057874 -0.0595748,-0.000811024 -0.0169055,-0.000165354 -0.0329882,-0.000322835 -0.0384134,-0.000468504 -0.000153543,-0.00490551 -0.000523622,-0.00954724 -0.00112598,-0.0140827l0.00395669 0c0.0547205,7.08661e-005 0.0864724,0.000173228 0.0945866,0.000295276 -5.11811e-005,0.00482677 0.000129921,0.0097874 0.000570866,0.0150669z"/>
   <path id="_290359080" class="fil0" d="M0.165587 0.100461c5.90551e-005,-0.00125197 -0.000232283,-0.00239764 -0.000870079,-0.00333858 -0.000948819,-0.00178346 -0.00266535,-0.00287008 -0.00473622,-0.00298425 -0.00940945,-0.000507874 -0.10898,-0.000523622 -0.109988,-0.000523622 -0.00155512,0 -0.00290945,0.000543307 -0.00391732,0.00155906 -0.00211417,0.00131102 -0.00312992,0.0036063 -0.00266535,0.00604724 0.00127559,0.00669291 0.00188189,0.0137717 0.00193307,0.0222638 0,0.00046063 5.90551e-005,0.000917323 0.000181102,0.00139764 0.000275591,0.00298819 0.00247244,0.00517717 0.00541339,0.00535039 0.00352756,0.000204724 0.0201575,0.000413386 0.0394134,0.000653543 0.028815,0.000362205 0.0646811,0.000818898 0.0698465,0.00144094 0.000240157,2.75591e-005 0.000484252,4.33071e-005 0.000708661,4.33071e-005 0.000759843,0 0.00147244,-0.000153543 0.0021378,-0.000456693 0.00248425,-0.000708661 0.00387795,-0.00283858 0.00357874,-0.00548819 -0.00108661,-0.00962992 -0.00143307,-0.018126 -0.00103543,-0.0259646zm-0.0109606 0.019937c-0.00820079,-0.000318898 -0.0353228,-0.000586614 -0.0595748,-0.000814961 -0.0169055,-0.000165354 -0.0329882,-0.000322835 -0.0384134,-0.00046063 -0.000153543,-0.00490551 -0.000523622,-0.00954331 -0.00112598,-0.0140906l0.00450787 7.87402e-006c0.0209331,2.75591e-005 0.0819724,0.000106299 0.0940354,0.000295276 -5.11811e-005,0.0048189 0.000129921,0.00977559 0.000570866,0.015063z"/>
   <path id="_290359224" class="fil0" d="M0.0391772 0.0536496c6.69291e-005,-0.00124409 -0.000232283,-0.00238583 -0.000870079,-0.00332677 -0.000940945,-0.0017874 -0.00266535,-0.00287402 -0.00473622,-0.00298819 -0.00890157,-0.000480315 -0.0177913,-0.000523622 -0.0268819,-0.000531496 -0.00155118,0 -0.00290551,0.000543307 -0.0039252,0.00155906 -0.00210236,0.00132283 -0.00311811,0.00361417 -0.00265354,0.00604724 0.00126772,0.00669685 0.00187795,0.0137835 0.00192126,0.0222756 7.87402e-006,0.000456693 7.08661e-005,0.000913386 0.000188976,0.00139764 0.000279528,0.00298425 0.00247638,0.00516535 0.00541732,0.00533858 0.00970866,0.00057874 0.0177992,0.00109449 0.0261575,0.00209449 0.000240157,2.3622e-005 0.000472441,4.33071e-005 0.000708661,4.33071e-005 0.000755906,0 0.00147244,-0.00015748 0.00212992,-0.000456693 0.00248425,-0.000700787 0.00388583,-0.00283071 0.00358661,-0.00547638 -0.00109449,-0.00963386 -0.00143307,-0.0181299 -0.00104331,-0.0259764zm-0.0109646 0.0198543c-0.0053189,-0.000511811 -0.0105551,-0.00088189 -0.014874,-0.00114961 -0.000145669,-0.00491339 -0.000527559,-0.00957087 -0.00112992,-0.014126 0.00447638,2.75591e-005 0.00988189,7.87402e-005 0.0154449,0.000275591 -5.90551e-005,0.00480709 0.000129921,0.00973622 0.000559055,0.015z"/>
   <path id="_290359296" class="fil0" d="M0.0391772 0.0985709c6.69291e-005,-0.00124803 -0.000232283,-0.00239764 -0.000870079,-0.00333465 -0.000940945,-0.0017874 -0.00266535,-0.00287402 -0.00473622,-0.00297638 -0.00890157,-0.000492126 -0.0177913,-0.000535433 -0.0268819,-0.000535433 -0.00155118,0 -0.00290551,0.000543307 -0.0039252,0.00156299 -0.00210236,0.00130709 -0.00311811,0.0036063 -0.00265354,0.00604331 0.00126772,0.00670079 0.00187795,0.0137717 0.00192126,0.0222677 7.87402e-006,0.000464567 7.08661e-005,0.00092126 0.000188976,0.00139764 0.000279528,0.00298425 0.00247638,0.00517323 0.00541732,0.00534646 0.00934646,0.000551181 0.0177677,0.00108661 0.0261575,0.00209449 0.000240157,2.75591e-005 0.000480315,4.33071e-005 0.000708661,4.33071e-005 0.000755906,0 0.00147244,-0.000153543 0.0021378,-0.000456693 0.00247638,-0.000708661 0.00387795,-0.00283858 0.00357874,-0.00548425 -0.00109449,-0.00963386 -0.00143307,-0.0181299 -0.00104331,-0.0259685zm-0.0109646 0.0198465c-0.0053189,-0.000511811 -0.0105551,-0.000874016 -0.014874,-0.0011378 -0.000145669,-0.0049252 -0.000527559,-0.0095748 -0.00112992,-0.0141299 0.00448425,1.9685e-005 0.0098937,7.87402e-005 0.0154449,0.000271654 -5.90551e-005,0.00481102 0.000129921,0.00974409 0.000559055,0.0149961z"/>
  </g>
 </g>
</svg>
