<?xml version="1.0" encoding="UTF-8"?>
<!DOCTYPE svg PUBLIC "-//W3C//DTD SVG 1.1//EN" "http://www.w3.org/Graphics/SVG/1.1/DTD/svg11.dtd">
<!-- Creator: CorelDRAW X5 -->
<svg xmlns="http://www.w3.org/2000/svg" xml:space="preserve" width="0.166669in" height="0.166669in" style="shape-rendering:geometricPrecision; text-rendering:geometricPrecision; image-rendering:optimizeQuality; fill-rule:evenodd; clip-rule:evenodd"
viewBox="0 0 0.166669 0.166669"
 xmlns:xlink="http://www.w3.org/1999/xlink">
 <defs>
  <style type="text/css">
   <![CDATA[
    .fil0 {fill:#0A63C5}
   ]]>
  </style>
 </defs>
 <g id="Layer_x0020_1">
  <metadata id="CorelCorpID_0Corel-Layer"/>
  <g id="_204626624">
   <path id="_204626072" class="fil0" d="M0.163276 0l-0.159882 0c-0.00187402,0 -0.0033937,0.00151969 -0.0033937,0.0033937l0 0.159882c0,0.00187008 0.00151969,0.0033937 0.0033937,0.0033937l0.135902 0c0.00187402,0 0.0033937,-0.00152362 0.0033937,-0.0033937 0,-0.00187402 -0.00151969,-0.0033937 -0.0033937,-0.0033937l-0.132508 0 0 -0.153094 0.153094 0 0 0.156488c0,0.00187008 0.00151969,0.0033937 0.0033937,0.0033937 0.00187008,0 0.0033937,-0.00152362 0.0033937,-0.0033937l0 -0.159882c0,-0.00187402 -0.00152362,-0.0033937 -0.0033937,-0.0033937z"/>
   <path id="_204626192" class="fil0" d="M0.0372047 0.0352874c-0.00716929,0 -0.013,0.00583071 -0.013,0.013 0,0.00716929 0.00583071,0.0130039 0.013,0.0130039 0.00716929,0 0.013,-0.00583465 0.013,-0.0130039 0,-0.00716929 -0.00583071,-0.013 -0.013,-0.013zm0 0.0192165c-0.00342913,0 -0.00621654,-0.0027874 -0.00621654,-0.00621654 0,-0.00342913 0.0027874,-0.00621654 0.00621654,-0.00621654 0.00342913,0 0.00622047,0.0027874 0.00622047,0.00621654 0,0.00342913 -0.00279134,0.00621654 -0.00622047,0.00621654z"/>
   <path id="_204626264" class="fil0" d="M0.13952 0.0448937l-0.0791378 0c-0.00187402,0 -0.0033937,0.00152362 -0.0033937,0.0033937 0,0.00187402 0.00151969,0.0033937 0.0033937,0.0033937l0.0791378 0c0.00187008,0 0.00338976,-0.00151969 0.00338976,-0.0033937 0,-0.00187008 -0.00151969,-0.0033937 -0.00338976,-0.0033937z"/>
   <path id="_204626744" class="fil0" d="M0.0372047 0.0703307c-0.00187402,0 -0.00338976,0.00152362 -0.00338976,0.0033937 0,0.00187402 0.00151575,0.0033937 0.00338976,0.0033937 0.00342913,0 0.00622047,0.0027874 0.00622047,0.00621654 0,0.00342913 -0.00279134,0.00622047 -0.00622047,0.00622047 -0.00342913,0 -0.00621654,-0.00279134 -0.00621654,-0.00622047 0,-0.00187402 -0.00151969,-0.0033937 -0.0033937,-0.0033937 -0.00187008,0 -0.00338976,0.00151969 -0.00338976,0.0033937 0,0.00716929 0.00583071,0.013 0.013,0.013 0.00716929,0 0.013,-0.00583071 0.013,-0.013 0,-0.00716929 -0.00583071,-0.0130039 -0.013,-0.0130039z"/>
   <path id="_204626888" class="fil0" d="M0.13952 0.0799409l-0.0791378 0c-0.00187402,0 -0.0033937,0.00151969 -0.0033937,0.0033937 0,0.00187008 0.00151969,0.0033937 0.0033937,0.0033937l0.0791378 0c0.00187008,0 0.00338976,-0.00152362 0.00338976,-0.0033937 0,-0.00187402 -0.00151969,-0.0033937 -0.00338976,-0.0033937z"/>
   <path id="_204627008" class="fil0" d="M0.0372047 0.105378c-0.00716929,0 -0.013,0.00583465 -0.013,0.0130039 0,0.00716929 0.00583071,0.013 0.013,0.013 0.00716929,0 0.013,-0.00583071 0.013,-0.013 0,-0.00716929 -0.00583071,-0.0130039 -0.013,-0.0130039zm0 0.0192205c-0.00342913,0 -0.00621654,-0.0027874 -0.00621654,-0.00621654 0,-0.00342913 0.0027874,-0.00621654 0.00621654,-0.00621654 0.00342913,0 0.00622047,0.0027874 0.00622047,0.00621654 0,0.00342913 -0.00279134,0.00621654 -0.00622047,0.00621654z"/>
   <path id="_204627104" class="fil0" d="M0.13952 0.114992l-0.0791378 0c-0.00187402,0 -0.0033937,0.00151575 -0.0033937,0.00338976 0,0.00187008 0.00151969,0.00338976 0.0033937,0.00338976l0.0791378 0c0.00187008,0 0.00338976,-0.00151969 0.00338976,-0.00338976 0,-0.00187402 -0.00151969,-0.00338976 -0.00338976,-0.00338976z"/>
  </g>
 </g>
</svg>
