<?xml version="1.0" encoding="UTF-8"?>
<!DOCTYPE svg PUBLIC "-//W3C//DTD SVG 1.1//EN" "http://www.w3.org/Graphics/SVG/1.1/DTD/svg11.dtd">
<!-- Creator: CorelDRAW X5 -->
<svg xmlns="http://www.w3.org/2000/svg" xml:space="preserve" width="0.333378in" height="0.333378in" style="shape-rendering:geometricPrecision; text-rendering:geometricPrecision; image-rendering:optimizeQuality; fill-rule:evenodd; clip-rule:evenodd"
viewBox="0 0 0.333378 0.333378"
 xmlns:xlink="http://www.w3.org/1999/xlink">
 <defs>
  <style type="text/css">
   <![CDATA[
    .fil0 {fill:#0A63C5}
   ]]>
  </style>
 </defs>
 <g id="Layer_x0020_1">
  <metadata id="CorelCorpID_0Corel-Layer"/>
  <path class="fil0" d="M0.166689 0c-0.0920709,0 -0.166689,0.0746181 -0.166689,0.166689 0,0.0920709 0.0746181,0.166689 0.166689,0.166689 0.0920709,0 0.166689,-0.0746181 0.166689,-0.166689 0,-0.0920709 -0.0746181,-0.166689 -0.166689,-0.166689zm0 0.317217c-0.0833425,0 -0.150528,-0.067626 -0.150528,-0.150528 0,-0.0829016 0.067185,-0.150528 0.150528,-0.150528 0.0833425,0 0.150528,0.067626 0.150528,0.150528 0,0.0829016 -0.067626,0.150528 -0.150528,0.150528zm0.0654449 -0.166689c0.0030748,0.00307087 0.0030748,0.00828346 0,0.0113543 -0.00173622,0.00173622 -0.00347244,0.0021811 -0.00565748,0.0021811 -0.0021811,0 -0.00391339,-0.000889764 -0.00565354,-0.0021811l-0.0462992 -0.0462559 0 0.127823c0,0.0043622 -0.00347244,0.00783858 -0.00783465,0.00783858 -0.0043622,0 -0.00783858,-0.00347638 -0.00783858,-0.00783858l0 -0.127823 -0.0458504 0.045811c-0.00307087,0.00307087 -0.00828346,0.00307087 -0.0113543,0 -0.00307087,-0.00307087 -0.00307087,-0.00827953 0,-0.0113543l0.0593465 -0.0593031c0.000440945,-0.000444882 0.000889764,-0.000889764 0.00129528,-0.000889764l0.000444882 -0.000444882c0.000440945,0 0.000440945,-0.000444882 0.000885827,-0.000444882 0.000444882,0 0.000444882,0 0.000889764,-0.000440945l0.00484646 0c0.000444882,0 0.000444882,0 0.000889764,0.000440945 0.000444882,0 0.000444882,0.000444882 0.000889764,0.000444882 0,0 0.000444882,0 0.000444882,0.000444882 0.000444882,0.000444882 0.000885827,0.000444882 0.00129134,0.000889764l0.0592638 0.059748z"/>
 </g>
</svg>
