<?xml version="1.0" encoding="utf-8"?>
<!-- Generator: Adobe Illustrator 16.0.0, SVG Export Plug-In . SVG Version: 6.00 Build 0)  -->
<!DOCTYPE svg PUBLIC "-//W3C//DTD SVG 1.1//EN" "http://www.w3.org/Graphics/SVG/1.1/DTD/svg11.dtd">
<svg version="1.1" id="Layer_1" xmlns="http://www.w3.org/2000/svg" xmlns:xlink="http://www.w3.org/1999/xlink" x="0px" y="0px"
	 width="24.004px" height="24.004px" viewBox="0 0 24.004 24.004" enable-background="new 0 0 24.004 24.004" xml:space="preserve">
<g id="Layer_x0020_1">
	<path fill="#BBBBBB" d="M12.002,0C5.373,0,0,5.373,0,12.002s5.373,12.002,12.002,12.002s12.002-5.373,12.002-12.002
		S18.631,0,12.002,0z M12.002,22.84c-6.001,0-10.838-4.869-10.838-10.838S6.001,1.164,12.002,1.164S22.84,6.033,22.84,12.002
		S17.97,22.84,12.002,22.84z M16.714,10.838c0.222,0.222,0.222,0.597,0,0.817c-0.125,0.125-0.25,0.157-0.407,0.157
		s-0.282-0.063-0.407-0.157l-3.333-3.33v9.203c0,0.314-0.25,0.564-0.564,0.564s-0.564-0.25-0.564-0.564V8.325l-3.301,3.299
		c-0.222,0.221-0.597,0.221-0.818,0c-0.221-0.222-0.221-0.597,0-0.817l4.273-4.271c0.031-0.032,0.063-0.063,0.093-0.063l0.032-0.032
		c0.032,0,0.032-0.032,0.063-0.032c0.032,0,0.032,0,0.064-0.031h0.349c0.032,0,0.032,0,0.064,0.031c0.032,0,0.032,0.032,0.064,0.032
		c0,0,0.031,0,0.031,0.032c0.032,0.031,0.064,0.031,0.094,0.063L16.714,10.838L16.714,10.838z"/>
</g>
</svg>
