<?xml version="1.0" encoding="UTF-8"?>
<!DOCTYPE svg PUBLIC "-//W3C//DTD SVG 1.1//EN" "http://www.w3.org/Graphics/SVG/1.1/DTD/svg11.dtd">
<!-- Creator: CorelDRAW X5 -->
<svg xmlns="http://www.w3.org/2000/svg" xml:space="preserve" width="0.333378in" height="0.333378in" style="shape-rendering:geometricPrecision; text-rendering:geometricPrecision; image-rendering:optimizeQuality; fill-rule:evenodd; clip-rule:evenodd"
viewBox="0 0 0.333378 0.333378"
 xmlns:xlink="http://www.w3.org/1999/xlink">
 <defs>
  <style type="text/css">
   <![CDATA[
    .fil0 {fill:#0A63C5}
   ]]>
  </style>
 </defs>
 <g id="Layer_x0020_1">
  <metadata id="CorelCorpID_0Corel-Layer"/>
  <g id="_287074584">
   <path id="_287074728" class="fil0" d="M0.270772 0.131087l-0.0150433 0c-0.00467323,0 -0.00817323,0.00127165 -0.0102047,0.00594488l-0.0289449 0.0655039 0.0204528 0c0,0 0.00335039,-0.00880709 0.00411417,-0.0107441 0.00222441,0 0.0221181,5.11811e-005 0.0249528,5.11811e-005 0.000566929,0.0025 0.00235039,0.0106929 0.00235039,0.0106929l0.0180866 0 -0.0157638 -0.0714488zm-0.0240276 0.0460984c0.00161811,-0.00411024 0.00775591,-0.0199882 0.00775591,-0.0199882 -9.44882e-005,0.000192913 0.00159055,-0.0041378 0.00259055,-0.00682677l0.00132283 0.00616535c0,0 0.00372047,0.0170512 0.00450394,0.0206496l-0.0161732 0zm-0.0287992 0.00196063c-0.000145669,0.0148504 -0.0134331,0.0244409 -0.0339134,0.0244409 -0.00873228,-9.44882e-005 -0.0171535,-0.00181102 -0.0217244,-0.00381496l0.00274016 -0.0160039 0.00251575 0.00115354c0.00641339,0.00266929 0.0105472,0.00373622 0.0183543,0.00373622 0.0056063,0 0.0115984,-0.00219685 0.0116417,-0.00699606 2.75591e-005,-0.00312992 -0.00251575,-0.00535433 -0.0101024,-0.00885827 -0.00738583,-0.0034252 -0.0171732,-0.00914961 -0.0170512,-0.0194213 9.44882e-005,-0.0139016 0.0136772,-0.0235906 0.0329291,-0.0235906 0.00754331,0 0.0135827,0.00153937 0.0174528,0.00300787l-0.00264173 0.0154882 -0.00176772 -0.000830709c-0.00357087,-0.00144094 -0.00819291,-0.00283858 -0.0145827,-0.00274016 -0.00761024,0 -0.0111575,0.00318504 -0.0111575,0.00616535 -2.3622e-005,0.00332677 0.0041378,0.00555512 0.010937,0.00885827 0.0112559,0.00509055 0.0164685,0.0112795 0.0163701,0.0194055zm-0.171106 -0.0472992l0.000244094 -0.00144094 0.0302165 0c0.00406693,0.000145669 0.00734252,0.00144094 0.00849606,0.00579528l0.00655906 0.0315866c-0.0064685,-0.0165118 -0.022,-0.0302677 -0.0455157,-0.0359409zm0.0881102 -0.000759843l-0.0306811 0.0713543 -0.0206299 2.3622e-005 -0.0174449 -0.0596063c0.0125551,0.00802362 0.0232205,0.0207441 0.0269843,0.029626l0.00203937 0.00737008 0.0190827 -0.0487677 0.0206496 0zm0.00787795 -7.48031e-005l0.0194803 0 -0.012189 0.0714961 -0.0194764 0 0.012185 -0.0714961z"/>
   <path id="_287074632" class="fil0" d="M0.166689 0c-0.0920709,0 -0.166689,0.0746181 -0.166689,0.166689 0,0.0920709 0.0746181,0.166689 0.166689,0.166689 0.0920709,0 0.166689,-0.0746181 0.166689,-0.166689 0,-0.0920709 -0.0746181,-0.166689 -0.166689,-0.166689zm0 0.317217c-0.0833425,0 -0.150528,-0.067626 -0.150528,-0.150528 0,-0.0829016 0.067185,-0.150528 0.150528,-0.150528 0.0833425,0 0.150528,0.067626 0.150528,0.150528 0,0.0829016 -0.067626,0.150528 -0.150528,0.150528z"/>
  </g>
 </g>
</svg>
