<?xml version="1.0" encoding="UTF-8"?>
<!DOCTYPE svg PUBLIC "-//W3C//DTD SVG 1.1//EN" "http://www.w3.org/Graphics/SVG/1.1/DTD/svg11.dtd">
<!-- Creator: CorelDRAW X5 -->
<svg xmlns="http://www.w3.org/2000/svg" xml:space="preserve" width="0.333378in" height="0.333378in" style="shape-rendering:geometricPrecision; text-rendering:geometricPrecision; image-rendering:optimizeQuality; fill-rule:evenodd; clip-rule:evenodd"
viewBox="0 0 0.333378 0.333378"
 xmlns:xlink="http://www.w3.org/1999/xlink">
 <defs>
  <style type="text/css">
   <![CDATA[
    .fil0 {fill:#0A63C5}
   ]]>
  </style>
 </defs>
 <g id="Layer_x0020_1">
  <metadata id="CorelCorpID_0Corel-Layer"/>
  <g id="_287072520">
   <path id="_287074488" class="fil0" d="M0.166689 0c-0.0920709,0 -0.166689,0.0746181 -0.166689,0.166689 0,0.0920709 0.0746181,0.166689 0.166689,0.166689 0.0920709,0 0.166689,-0.0746181 0.166689,-0.166689 0,-0.0920709 -0.0746181,-0.166689 -0.166689,-0.166689zm0 0.317217c-0.0833425,0 -0.150528,-0.067626 -0.150528,-0.150528 0,-0.0829016 0.067185,-0.150528 0.150528,-0.150528 0.0833425,0 0.150528,0.067626 0.150528,0.150528 0,0.0829016 -0.067626,0.150528 -0.150528,0.150528z"/>
   <g>
    <polygon id="_287074416" class="fil0" points="0.231854,0.154217 0.237067,0.154217 0.237067,0.162354 0.231854,0.162354 "/>
    <polygon id="_287074344" class="fil0" points="0.231854,0.142012 0.237067,0.142012 0.237067,0.15015 0.231854,0.15015 "/>
    <polygon id="_287074272" class="fil0" points="0.231854,0.137941 0.237067,0.137941 0.237067,0.132728 0.234461,0.130122 0.229248,0.130122 0.229248,0.135335 0.231854,0.135335 "/>
    <polygon id="_287074200" class="fil0" points="0.148256,0.130122 0.159055,0.130122 0.159055,0.135335 0.148256,0.135335 "/>
    <polygon id="_287074128" class="fil0" points="0.132059,0.130122 0.142858,0.130122 0.142858,0.135335 0.132059,0.135335 "/>
    <polygon id="_287074056" class="fil0" points="0.115858,0.130122 0.126661,0.130122 0.126661,0.135335 0.115862,0.135335 "/>
    <polygon id="_287073984" class="fil0" points="0.213051,0.130122 0.223846,0.130122 0.223846,0.135335 0.213051,0.135335 "/>
    <polygon id="_287073912" class="fil0" points="0.0834646,0.130122 0.0942677,0.130122 0.0942677,0.135335 0.0834646,0.135335 "/>
    <polygon id="_287073840" class="fil0" points="0.19685,0.130122 0.20765,0.130122 0.20765,0.135335 0.19685,0.135335 "/>
    <polygon id="_287073768" class="fil0" points="0.0996614,0.130122 0.110465,0.130122 0.110465,0.135335 0.0996614,0.135335 "/>
    <polygon id="_287073696" class="fil0" points="0.180654,0.130122 0.191453,0.130122 0.191453,0.135335 0.180654,0.135335 "/>
    <polygon id="_287073624" class="fil0" points="0.164453,0.130122 0.175256,0.130122 0.175256,0.135335 0.164453,0.135335 "/>
    <polygon id="_287073552" class="fil0" points="0.0996614,0.239598 0.110465,0.239598 0.110465,0.244811 0.0996614,0.244811 "/>
    <polygon id="_287073480" class="fil0" points="0.0834646,0.239598 0.0942638,0.239598 0.0942638,0.244811 0.0834646,0.244811 "/>
    <polygon id="_287073408" class="fil0" points="0.19685,0.239598 0.20765,0.239598 0.20765,0.244811 0.19685,0.244811 "/>
    <polygon id="_287073336" class="fil0" points="0.213047,0.239598 0.223846,0.239598 0.223846,0.244811 0.213047,0.244811 "/>
    <polygon id="_287073264" class="fil0" points="0.115858,0.239598 0.126661,0.239598 0.126661,0.244811 0.115862,0.244811 "/>
    <polygon id="_287073192" class="fil0" points="0.132055,0.239598 0.142858,0.239598 0.142858,0.244811 0.132055,0.244811 "/>
    <polygon id="_287073120" class="fil0" points="0.164453,0.239598 0.175252,0.239598 0.175252,0.244811 0.164453,0.244811 "/>
    <polygon id="_287073048" class="fil0" points="0.148256,0.239598 0.159055,0.239598 0.159055,0.244811 0.148256,0.244811 "/>
    <polygon id="_287072976" class="fil0" points="0.180654,0.239598 0.191453,0.239598 0.191453,0.244811 0.180654,0.244811 "/>
    <polygon id="_287072904" class="fil0" points="0.231854,0.239598 0.229248,0.239598 0.229248,0.244811 0.234461,0.244811 0.237067,0.242205 0.237067,0.236992 0.231854,0.236992 "/>
    <polygon id="_287072832" class="fil0" points="0.231854,0.212413 0.237067,0.212413 0.237067,0.220606 0.231854,0.220606 "/>
    <polygon id="_287072760" class="fil0" points="0.231854,0.224701 0.237067,0.224701 0.237067,0.232894 0.231854,0.232894 "/>
    <path id="_287072664" class="fil0" d="M0.208394 0.187465c0,0.00575197 0.00467717,0.0104291 0.0104252,0.0104291 0.00575197,0 0.0104291,-0.00467717 0.0104291,-0.0104291 0,-0.00574803 -0.00467717,-0.0104252 -0.0104291,-0.0104252 -0.00574803,0 -0.0104252,0.00467717 -0.0104252,0.0104252zm0.0104252 -0.0052126c0.00287795,0 0.0052126,0.00233858 0.0052126,0.0052126 3.93701e-006,0.00287402 -0.00233465,0.0052126 -0.0052126,0.0052126 -0.00287402,0 -0.0052126,-0.00233858 -0.0052126,-0.0052126 0,-0.00287402 0.00233858,-0.0052126 0.0052126,-0.0052126z"/>
    <path id="_287072640" class="fil0" d="M0.260524 0.16922l-0.0130866 0 5.51181e-005 -0.0364921c0,-0.00718504 -0.00584646,-0.0130315 -0.0130315,-0.0130315l-0.0011063 0 0 -0.0249646 -0.00309449 -0.00255906 -0.018626 0.00354331 -0.00601181 -0.0160315 -0.00331102 -0.00154331 -0.116878 0.0415551 -0.0125827 0 -0.0026063 0.0026063 0 0.130327 0.0026063 0.0026063 0.16161 0c0.00718504,0 0.0130315,-0.00584646 0.0130315,-0.0130394l-5.51181e-005 -0.0364882 0.0130866 3.93701e-006 0.0026063 -0.0026063 0 -0.0312795 -0.0026063 -0.0026063zm-0.0588819 -0.0853071l0.00479921 0.0127913 -0.0877559 0.0167008 0.0829567 -0.0294921zm0.0265 0.0139685l0 0.021815 -0.114618 0 0.114618 -0.021815zm0.0063189 0.152142l-0.159004 0 0 -0.0052126 0.00261024 0 0 -0.0052126 -0.00261024 0 0 -0.104264 0.00261024 0 0 -0.0052126 -0.00261024 0 0 -0.0052126 0.159004 0c0.00431102,0 0.0078189,0.00350787 0.0078189,0.00781102l-5.51181e-005 0.0365 -0.00515748 0 0 -0.00279921 -0.0052126 0 0 0.00279921 -0.018248 0c-0.00718504,0 -0.0130315,0.00584646 -0.0130315,0.0130315l0 0.0104291c0,0.00718504 0.00584646,0.0130315 0.0130315,0.0130315l0.018248 -3.93701e-006 0 0.0026063 0.0052126 0 0 -0.0026063 0.00515748 0 5.51181e-005 0.0364961c0,0.00431102 -0.00350787,0.0078189 -0.0078189,0.0078189zm0.0234567 -0.0495236l-0.0130906 -3.93701e-006 -0.0312205 3.93701e-006c-0.00431102,0 -0.0078189,-0.00350787 -0.0078189,-0.0078189l0 -0.0104291c0,-0.00431102 0.00350787,-0.0078189 0.0078189,-0.0078189l0.044311 0 0 0.0260669z"/>
   </g>
  </g>
 </g>
</svg>
